<svg width="233" height="37" viewBox="0 0 233 37" fill="none" xmlns="http://www.w3.org/2000/svg">
<path d="M0.496 29V2.856H9.046C11.25 2.856 13.0487 2.97 14.442 3.198C15.8607 3.40067 16.9753 3.78067 17.786 4.338C18.5967 4.89533 19.1793 5.668 19.534 6.656C19.914 7.644 20.1547 8.898 20.256 10.418C20.3573 11.938 20.408 13.7747 20.408 15.928C20.408 18.0813 20.3573 19.918 20.256 21.438C20.1547 22.958 19.914 24.212 19.534 25.2C19.1793 26.188 18.5967 26.9607 17.786 27.518C16.9753 28.0753 15.8607 28.468 14.442 28.696C13.0487 28.8987 11.25 29 9.046 29H0.496ZM4.79 25.352H8.666C10.0847 25.352 11.25 25.3267 12.162 25.276C13.0993 25.2 13.834 25.0227 14.366 24.744C14.898 24.44 15.2907 23.9587 15.544 23.3C15.7973 22.6413 15.9493 21.7167 16 20.526C16.076 19.31 16.114 17.7773 16.114 15.928C16.114 14.0787 16.076 12.5587 16 11.368C15.9493 10.1773 15.7847 9.25267 15.506 8.594C15.2527 7.91 14.8473 7.42867 14.29 7.15C13.758 6.846 13.036 6.66867 12.124 6.618C11.212 6.542 10.0593 6.504 8.666 6.504H4.79V25.352ZM26.0528 29V0.765999H30.0808V12.014H30.3468C30.6508 11.4313 31.0561 10.95 31.5628 10.57C32.0694 10.1647 32.7028 9.86067 33.4628 9.658C34.2481 9.45533 35.1981 9.354 36.3128 9.354C37.6808 9.354 38.7828 9.506 39.6188 9.81C40.4801 10.114 41.1261 10.5827 41.5568 11.216C41.9874 11.8493 42.2788 12.6347 42.4308 13.572C42.6081 14.5093 42.6968 15.6113 42.6968 16.878V29H38.6308V18.474C38.6308 17.2073 38.5801 16.2067 38.4788 15.472C38.4028 14.712 38.2254 14.1547 37.9468 13.8C37.6681 13.42 37.2501 13.1793 36.6928 13.078C36.1608 12.9767 35.4388 12.926 34.5268 12.926C33.5134 12.926 32.7028 13.0527 32.0948 13.306C31.5121 13.5593 31.0688 13.9393 30.7648 14.446C30.4861 14.9527 30.2961 15.586 30.1948 16.346C30.1188 17.106 30.0808 17.9927 30.0808 19.006V29H26.0528ZM53.6295 29.304C52.3122 29.304 51.1975 29.1267 50.2855 28.772C49.3988 28.4173 48.7275 27.8347 48.2715 27.024C47.8155 26.188 47.5875 25.0607 47.5875 23.642C47.5875 22.1473 47.7648 20.9693 48.1195 20.108C48.4742 19.2213 49.0822 18.588 49.9435 18.208C50.8048 17.828 52.0208 17.638 53.5915 17.638C53.8448 17.638 54.2122 17.6507 54.6935 17.676C55.2002 17.676 55.7702 17.6887 56.4035 17.714C57.0622 17.714 57.7082 17.7267 58.3415 17.752C59.0002 17.752 59.5955 17.7647 60.1275 17.79V16.878C60.1275 15.89 60.0642 15.1173 59.9375 14.56C59.8108 14.0027 59.5448 13.5973 59.1395 13.344C58.7595 13.0653 58.2022 12.888 57.4675 12.812C56.7328 12.736 55.7828 12.698 54.6175 12.698C54.0602 12.698 53.4015 12.7233 52.6415 12.774C51.9068 12.7993 51.1848 12.8373 50.4755 12.888C49.7662 12.9387 49.2215 13.002 48.8415 13.078V9.886C49.8802 9.68333 51.0202 9.544 52.2615 9.468C53.5028 9.36667 54.7442 9.316 55.9855 9.316C57.4295 9.316 58.6328 9.40467 59.5955 9.582C60.5835 9.75933 61.3815 10.038 61.9895 10.418C62.5975 10.798 63.0535 11.292 63.3575 11.9C63.6615 12.508 63.8768 13.2427 64.0035 14.104C64.1302 14.94 64.1935 15.9027 64.1935 16.992V29H60.4695L60.3175 26.492H60.0895C59.6588 27.3027 59.0762 27.9233 58.3415 28.354C57.6322 28.7593 56.8595 29.0127 56.0235 29.114C55.1875 29.2407 54.3895 29.304 53.6295 29.304ZM55.4155 26.036C56.0488 26.036 56.6188 25.998 57.1255 25.922C57.6575 25.8207 58.1135 25.6687 58.4935 25.466C58.8988 25.238 59.2155 24.934 59.4435 24.554C59.6715 24.1233 59.8362 23.6293 59.9375 23.072C60.0642 22.5147 60.1275 21.856 60.1275 21.096V20.412H54.5795C53.7435 20.412 53.0975 20.4753 52.6415 20.602C52.2108 20.7287 51.9195 20.9947 51.7675 21.4C51.6155 21.8053 51.5395 22.426 51.5395 23.262C51.5395 24.0473 51.6282 24.6427 51.8055 25.048C51.9828 25.428 52.3502 25.694 52.9075 25.846C53.4902 25.9727 54.3262 26.036 55.4155 26.036ZM71.7754 29V13.002H67.8994V9.62H71.7754V3.996H75.8034V9.62H80.3254V13.002H75.8034V29H71.7754ZM90.5863 29.304C89.2436 29.304 88.1416 29.152 87.2803 28.848C86.4443 28.5187 85.7983 28.0373 85.3423 27.404C84.9116 26.7707 84.6203 25.9853 84.4683 25.048C84.3163 24.1107 84.2403 23.0087 84.2403 21.742V9.62H88.2683V20.146C88.2683 21.4127 88.3063 22.426 88.3823 23.186C88.4836 23.9207 88.6736 24.478 88.9523 24.858C89.2309 25.2127 89.6363 25.4407 90.1683 25.542C90.7256 25.6433 91.4603 25.694 92.3723 25.694C93.3856 25.694 94.1963 25.5673 94.8043 25.314C95.4123 25.0607 95.8556 24.6807 96.1343 24.174C96.4383 23.6673 96.6283 23.034 96.7043 22.274C96.7803 21.514 96.8183 20.6273 96.8183 19.614V9.62H100.884V29H97.1603L97.0083 26.416H96.7423C96.4636 27.024 96.0583 27.5433 95.5263 27.974C95.0196 28.4047 94.3609 28.734 93.5503 28.962C92.7396 29.19 91.7516 29.304 90.5863 29.304Z" fill="#4B0081"/>
<path d="M117.213 29.304C115.338 29.304 113.768 29.19 112.501 28.962C111.234 28.7087 110.196 28.2907 109.385 27.708C108.6 27.1253 107.992 26.34 107.561 25.352C107.156 24.3387 106.877 23.0593 106.725 21.514C106.573 19.9687 106.497 18.1067 106.497 15.928C106.497 13.7493 106.573 11.8873 106.725 10.342C106.877 8.79667 107.156 7.53 107.561 6.542C107.992 5.52867 108.6 4.73067 109.385 4.148C110.196 3.56533 111.234 3.16 112.501 2.932C113.768 2.67867 115.338 2.552 117.213 2.552C117.948 2.552 118.695 2.57733 119.455 2.628C120.24 2.67867 120.988 2.75467 121.697 2.856C122.406 2.932 123.014 3.03333 123.521 3.16V6.58C122.888 6.504 122.254 6.44066 121.621 6.39C121.013 6.314 120.418 6.26333 119.835 6.238C119.252 6.21267 118.746 6.2 118.315 6.2C116.922 6.2 115.769 6.25067 114.857 6.352C113.945 6.45333 113.21 6.68133 112.653 7.036C112.121 7.39067 111.716 7.92267 111.437 8.632C111.184 9.316 111.006 10.2533 110.905 11.444C110.829 12.6347 110.791 14.1293 110.791 15.928C110.791 17.7013 110.829 19.196 110.905 20.412C111.006 21.6027 111.184 22.5527 111.437 23.262C111.716 23.946 112.121 24.4653 112.653 24.82C113.21 25.1747 113.945 25.4027 114.857 25.504C115.769 25.6053 116.922 25.656 118.315 25.656C119.151 25.656 120.063 25.618 121.051 25.542C122.064 25.466 122.938 25.3773 123.673 25.276V28.772C123.116 28.8733 122.457 28.962 121.697 29.038C120.962 29.114 120.202 29.1773 119.417 29.228C118.657 29.2787 117.922 29.304 117.213 29.304ZM136.564 29.304C134.943 29.304 133.588 29.2027 132.498 29C131.434 28.7973 130.586 28.4807 129.952 28.05C129.344 27.594 128.888 26.986 128.584 26.226C128.306 25.466 128.116 24.516 128.014 23.376C127.938 22.236 127.9 20.868 127.9 19.272C127.9 17.7013 127.938 16.346 128.014 15.206C128.116 14.066 128.306 13.116 128.584 12.356C128.888 11.596 129.344 11.0007 129.952 10.57C130.586 10.114 131.434 9.79733 132.498 9.62C133.588 9.41733 134.943 9.316 136.564 9.316C138.211 9.316 139.566 9.41733 140.63 9.62C141.72 9.79733 142.568 10.114 143.176 10.57C143.81 11.0007 144.266 11.596 144.544 12.356C144.848 13.116 145.038 14.066 145.114 15.206C145.216 16.346 145.266 17.7013 145.266 19.272C145.266 20.868 145.216 22.236 145.114 23.376C145.038 24.516 144.848 25.466 144.544 26.226C144.266 26.986 143.81 27.594 143.176 28.05C142.568 28.4807 141.72 28.7973 140.63 29C139.566 29.2027 138.211 29.304 136.564 29.304ZM136.564 25.922C137.73 25.922 138.629 25.846 139.262 25.694C139.896 25.542 140.339 25.238 140.592 24.782C140.871 24.326 141.036 23.6547 141.086 22.768C141.162 21.8813 141.2 20.716 141.2 19.272C141.2 17.828 141.162 16.6753 141.086 15.814C141.036 14.9273 140.871 14.256 140.592 13.8C140.339 13.344 139.896 13.0527 139.262 12.926C138.629 12.774 137.73 12.698 136.564 12.698C135.424 12.698 134.538 12.774 133.904 12.926C133.271 13.0527 132.815 13.344 132.536 13.8C132.283 14.256 132.118 14.9273 132.042 15.814C131.992 16.6753 131.966 17.828 131.966 19.272C131.966 20.716 131.992 21.8813 132.042 22.768C132.118 23.6547 132.283 24.326 132.536 24.782C132.815 25.238 133.271 25.542 133.904 25.694C134.538 25.846 135.424 25.922 136.564 25.922ZM150.518 29V9.62H154.242L154.356 12.204H154.622C154.9 11.596 155.28 11.0767 155.762 10.646C156.268 10.2153 156.889 9.886 157.624 9.658C158.384 9.43 159.296 9.316 160.36 9.316C161.981 9.316 163.197 9.55667 164.008 10.038C164.818 10.494 165.388 11.216 165.718 12.204H166.022C166.3 11.596 166.693 11.0767 167.2 10.646C167.732 10.2153 168.378 9.886 169.138 9.658C169.923 9.43 170.848 9.316 171.912 9.316C173.584 9.316 174.838 9.59467 175.674 10.152C176.51 10.7093 177.067 11.558 177.346 12.698C177.624 13.8127 177.764 15.206 177.764 16.878V29H173.736V18.474C173.736 17.2073 173.698 16.2067 173.622 15.472C173.546 14.712 173.381 14.1547 173.128 13.8C172.9 13.42 172.532 13.1793 172.026 13.078C171.544 12.9767 170.911 12.926 170.126 12.926C169.214 12.926 168.492 13.0527 167.96 13.306C167.428 13.534 167.035 13.9013 166.782 14.408C166.528 14.8893 166.364 15.51 166.288 16.27C166.212 17.03 166.174 17.942 166.174 19.006V29H162.146V18.474C162.146 17.2073 162.095 16.2067 161.994 15.472C161.918 14.712 161.753 14.1547 161.5 13.8C161.272 13.42 160.917 13.1793 160.436 13.078C159.954 12.9767 159.308 12.926 158.498 12.926C157.611 12.926 156.902 13.0527 156.37 13.306C155.838 13.5593 155.432 13.9393 155.154 14.446C154.9 14.9273 154.736 15.5607 154.66 16.346C154.584 17.106 154.546 17.9927 154.546 19.006V29H150.518ZM183.805 36.562V9.62H187.529L187.643 12.204H187.909C188.314 11.3933 188.833 10.7853 189.467 10.38C190.1 9.94933 190.797 9.67067 191.557 9.544C192.342 9.392 193.14 9.316 193.951 9.316C195.243 9.316 196.319 9.48067 197.181 9.81C198.067 10.114 198.777 10.646 199.309 11.406C199.841 12.1407 200.233 13.154 200.487 14.446C200.74 15.738 200.867 17.3467 200.867 19.272C200.867 21.2227 200.74 22.844 200.487 24.136C200.259 25.428 199.879 26.454 199.347 27.214C198.84 27.9487 198.156 28.4807 197.295 28.81C196.433 29.1393 195.357 29.304 194.065 29.304C193.153 29.304 192.317 29.228 191.557 29.076C190.797 28.924 190.125 28.6707 189.543 28.316C188.96 27.936 188.479 27.404 188.099 26.72H187.833V36.562H183.805ZM192.279 25.694C193.292 25.694 194.09 25.6307 194.673 25.504C195.281 25.352 195.737 25.0733 196.041 24.668C196.345 24.2373 196.547 23.604 196.649 22.768C196.75 21.9067 196.801 20.754 196.801 19.31C196.801 17.866 196.75 16.726 196.649 15.89C196.547 15.0287 196.345 14.3827 196.041 13.952C195.737 13.5213 195.281 13.2427 194.673 13.116C194.09 12.964 193.292 12.888 192.279 12.888C191.215 12.888 190.379 13.04 189.771 13.344C189.163 13.648 188.707 14.104 188.403 14.712C188.149 15.244 187.985 15.9027 187.909 16.688C187.858 17.448 187.833 18.322 187.833 19.31C187.833 20.3233 187.858 21.21 187.909 21.97C187.985 22.7047 188.137 23.3253 188.365 23.832C188.669 24.4907 189.125 24.972 189.733 25.276C190.366 25.5547 191.215 25.694 192.279 25.694ZM206.107 29V0.765999H210.135V29H206.107ZM223.803 36.828C223.068 36.828 222.296 36.8027 221.485 36.752C220.7 36.7267 219.94 36.6887 219.205 36.638C218.496 36.5873 217.862 36.524 217.305 36.448V33.294C218.217 33.3193 219.002 33.3447 219.661 33.37C220.345 33.3953 220.953 33.408 221.485 33.408C222.017 33.4333 222.486 33.446 222.891 33.446C224.259 33.446 225.336 33.3573 226.121 33.18C226.906 33.0027 227.489 32.6987 227.869 32.268C228.249 31.8373 228.477 31.242 228.553 30.482C228.654 29.7473 228.705 28.81 228.705 27.67V26.492H228.477C228.224 27.0493 227.844 27.5307 227.337 27.936C226.856 28.316 226.21 28.62 225.399 28.848C224.614 29.0507 223.638 29.152 222.473 29.152C221.13 29.152 220.028 29 219.167 28.696C218.331 28.3667 217.685 27.898 217.229 27.29C216.798 26.6567 216.507 25.8713 216.355 24.934C216.203 23.9967 216.127 22.9073 216.127 21.666V9.62H220.155V20.07C220.155 21.3367 220.193 22.35 220.269 23.11C220.37 23.8447 220.56 24.3893 220.839 24.744C221.118 25.0987 221.523 25.3393 222.055 25.466C222.612 25.5673 223.347 25.618 224.259 25.618C225.272 25.618 226.083 25.4913 226.691 25.238C227.299 24.9847 227.742 24.6047 228.021 24.098C228.325 23.5913 228.515 22.958 228.591 22.198C228.667 21.438 228.705 20.5513 228.705 19.538V9.62H232.771V26.72C232.771 28.5187 232.67 30.0513 232.467 31.318C232.29 32.61 231.897 33.6613 231.289 34.472C230.706 35.2827 229.82 35.878 228.629 36.258C227.438 36.638 225.83 36.828 223.803 36.828Z" fill="#6FB018"/>
</svg>
