<svg width="1295" height="427" viewBox="0 0 1295 427" fill="none" xmlns="http://www.w3.org/2000/svg">
<path opacity="0.6" d="M63.179 103.572C42.4796 132.846 36.8601 148.842 44.7388 212.027C49.059 246.674 67.5843 300.647 75.2653 336.225C86.0651 386.249 82.0145 406.569 78.2728 414.553C74.2418 423.156 60.4115 424.378 49.61 425.711C39.8121 426.92 30.2803 424.404 20.4249 416.9C5.18719 405.296 2.9448 386.227 1.53285 373.39C-0.353475 356.24 2.91656 343.543 9.00211 338.224C41.4473 309.867 111.129 333.732 146.16 342.104C175.718 349.167 228.717 363.672 259.342 371.363C289.968 379.055 296.491 379.935 336.195 380.388C375.9 380.841 448.587 380.841 492.556 378.642C549.917 375.772 566.74 364.872 579.377 357.793C622.536 333.619 643.889 316.909 656.159 304.019C666.257 293.411 667.497 280.491 671.239 268.907C676.863 251.496 699.464 239.594 724.343 216.08C739.639 201.622 758.71 189.846 777.094 173.836C791.127 161.615 804.853 151.615 850.388 93.6147C872.705 65.1888 879.291 42.3333 877.427 28.1366C875.875 16.3159 860.54 10.2874 847.381 5.84842C815.375 -4.94768 766.391 4.90197 757.453 10.2207C753.741 12.4297 753.175 15.5395 753.161 18.6588C753.147 21.778 754.079 25.2972 758.752 28.8697C770.462 37.8206 800.956 44.866 836.678 52.8642C860.72 58.2469 891.321 60.8623 927.975 69.7402C955.018 76.2902 987.334 83.0705 1042.16 104.719C1077.26 118.577 1124.01 144.843 1160.61 166.771C1197.21 188.699 1221.44 207.175 1239.98 222.411C1271.42 248.253 1286.84 274.946 1292.49 305.512C1294.41 322.002 1294.41 340.477 1293.01 352.634C1291.61 364.792 1288.82 370.07 1285.94 375.509" stroke="#B8B8B8" stroke-width="2" stroke-linecap="round" stroke-dasharray="15 15"/>
</svg>
