<svg width="208" height="33" viewBox="0 0 208 33" fill="none" xmlns="http://www.w3.org/2000/svg">
<path d="M-0.000905991 25.2617V1.86972H7.64909C9.62109 1.86972 11.2304 1.97172 12.4771 2.17572C13.7464 2.35705 14.7438 2.69705 15.4691 3.19572C16.1944 3.69438 16.7158 4.38572 17.0331 5.26972C17.3731 6.15372 17.5884 7.27572 17.6791 8.63572C17.7698 9.99572 17.8151 11.6391 17.8151 13.5657C17.8151 15.4924 17.7698 17.1357 17.6791 18.4957C17.5884 19.8557 17.3731 20.9777 17.0331 21.8617C16.7158 22.7457 16.1944 23.4371 15.4691 23.9357C14.7438 24.4344 13.7464 24.7857 12.4771 24.9897C11.2304 25.1711 9.62109 25.2617 7.64909 25.2617H-0.000905991ZM3.84109 21.9977H7.30909C8.57843 21.9977 9.62109 21.9751 10.4371 21.9297C11.2758 21.8617 11.9331 21.7031 12.4091 21.4537C12.8851 21.1817 13.2364 20.7511 13.4631 20.1617C13.6898 19.5724 13.8258 18.7451 13.8711 17.6797C13.9391 16.5917 13.9731 15.2204 13.9731 13.5657C13.9731 11.9111 13.9391 10.5511 13.8711 9.48572C13.8258 8.42038 13.6784 7.59305 13.4291 7.00372C13.2024 6.39172 12.8398 5.96105 12.3411 5.71172C11.8651 5.43972 11.2191 5.28105 10.4031 5.23572C9.58709 5.16772 8.55576 5.13372 7.30909 5.13372H3.84109V21.9977ZM22.8657 25.2617V-0.000282288H26.4697V10.0637H26.7077C26.9797 9.54238 27.3424 9.11172 27.7957 8.77172C28.249 8.40905 28.8157 8.13705 29.4957 7.95572C30.1984 7.77438 31.0484 7.68372 32.0457 7.68372C33.2697 7.68372 34.2557 7.81972 35.0037 8.09172C35.7744 8.36372 36.3524 8.78305 36.7377 9.34972C37.123 9.91638 37.3837 10.6191 37.5197 11.4577C37.6784 12.2964 37.7577 13.2824 37.7577 14.4157V25.2617H34.1197V15.8437C34.1197 14.7104 34.0744 13.8151 33.9837 13.1577C33.9157 12.4777 33.757 11.9791 33.5077 11.6617C33.2584 11.3217 32.8844 11.1064 32.3857 11.0157C31.9097 10.9251 31.2637 10.8797 30.4477 10.8797C29.541 10.8797 28.8157 10.9931 28.2717 11.2197C27.7504 11.4464 27.3537 11.7864 27.0817 12.2397C26.8324 12.6931 26.6624 13.2597 26.5717 13.9397C26.5037 14.6197 26.4697 15.4131 26.4697 16.3197V25.2617H22.8657ZM47.5396 25.5337C46.3609 25.5337 45.3636 25.3751 44.5476 25.0577C43.7543 24.7404 43.1536 24.2191 42.7456 23.4937C42.3376 22.7457 42.1336 21.7371 42.1336 20.4677C42.1336 19.1304 42.2923 18.0764 42.6096 17.3057C42.9269 16.5124 43.4709 15.9457 44.2416 15.6057C45.0123 15.2657 46.1003 15.0957 47.5056 15.0957C47.7323 15.0957 48.0609 15.1071 48.4916 15.1297C48.9449 15.1297 49.4549 15.1411 50.0216 15.1637C50.6109 15.1637 51.1889 15.1751 51.7556 15.1977C52.3449 15.1977 52.8776 15.2091 53.3536 15.2317V14.4157C53.3536 13.5317 53.2969 12.8404 53.1836 12.3417C53.0703 11.8431 52.8323 11.4804 52.4696 11.2537C52.1296 11.0044 51.6309 10.8457 50.9736 10.7777C50.3163 10.7097 49.4663 10.6757 48.4236 10.6757C47.9249 10.6757 47.3356 10.6984 46.6556 10.7437C45.9983 10.7664 45.3523 10.8004 44.7176 10.8457C44.0829 10.8911 43.5956 10.9477 43.2556 11.0157V8.15972C44.1849 7.97838 45.2049 7.85372 46.3156 7.78572C47.4263 7.69505 48.5369 7.64972 49.6476 7.64972C50.9396 7.64972 52.0163 7.72905 52.8776 7.88772C53.7616 8.04638 54.4756 8.29572 55.0196 8.63572C55.5636 8.97572 55.9716 9.41772 56.2436 9.96172C56.5156 10.5057 56.7083 11.1631 56.8216 11.9337C56.9349 12.6817 56.9916 13.5431 56.9916 14.5177V25.2617H53.6596L53.5236 23.0177H53.3196C52.9343 23.7431 52.4129 24.2984 51.7556 24.6837C51.1209 25.0464 50.4296 25.2731 49.6816 25.3637C48.9336 25.4771 48.2196 25.5337 47.5396 25.5337ZM49.1376 22.6097C49.7043 22.6097 50.2143 22.5757 50.6676 22.5077C51.1436 22.4171 51.5516 22.2811 51.8916 22.0997C52.2543 21.8957 52.5376 21.6237 52.7416 21.2837C52.9456 20.8984 53.0929 20.4564 53.1836 19.9577C53.2969 19.4591 53.3536 18.8697 53.3536 18.1897V17.5777H48.3896C47.6416 17.5777 47.0636 17.6344 46.6556 17.7477C46.2703 17.8611 46.0096 18.0991 45.8736 18.4617C45.7376 18.8244 45.6696 19.3797 45.6696 20.1277C45.6696 20.8304 45.7489 21.3631 45.9076 21.7257C46.0663 22.0657 46.3949 22.3037 46.8936 22.4397C47.4149 22.5531 48.1629 22.6097 49.1376 22.6097ZM63.7754 25.2617V10.9477H60.3074V7.92172H63.7754V2.88972H67.3794V7.92172H71.4254V10.9477H67.3794V25.2617H63.7754ZM80.6062 25.5337C79.4049 25.5337 78.4189 25.3977 77.6482 25.1257C76.9002 24.8311 76.3222 24.4004 75.9142 23.8337C75.5289 23.2671 75.2682 22.5644 75.1322 21.7257C74.9962 20.8871 74.9282 19.9011 74.9282 18.7677V7.92172H78.5322V17.3397C78.5322 18.4731 78.5662 19.3797 78.6342 20.0597C78.7249 20.7171 78.8949 21.2157 79.1442 21.5557C79.3935 21.8731 79.7562 22.0771 80.2322 22.1677C80.7309 22.2584 81.3882 22.3037 82.2042 22.3037C83.1109 22.3037 83.8362 22.1904 84.3802 21.9637C84.9242 21.7371 85.3209 21.3971 85.5702 20.9437C85.8422 20.4904 86.0122 19.9237 86.0802 19.2437C86.1482 18.5637 86.1822 17.7704 86.1822 16.8637V7.92172H89.8202V25.2617H86.4882L86.3522 22.9497H86.1142C85.8649 23.4937 85.5022 23.9584 85.0262 24.3437C84.5729 24.7291 83.9835 25.0237 83.2582 25.2277C82.5329 25.4317 81.6489 25.5337 80.6062 25.5337Z" fill="white"/>
<path d="M104.43 25.5337C102.753 25.5337 101.347 25.4317 100.214 25.2277C99.0808 25.0011 98.1514 24.6271 97.4261 24.1057C96.7234 23.5844 96.1794 22.8817 95.7941 21.9977C95.4314 21.0911 95.1821 19.9464 95.0461 18.5637C94.9101 17.1811 94.8421 15.5151 94.8421 13.5657C94.8421 11.6164 94.9101 9.95038 95.0461 8.56772C95.1821 7.18505 95.4314 6.05172 95.7941 5.16772C96.1794 4.26105 96.7234 3.54705 97.4261 3.02572C98.1514 2.50438 99.0808 2.14172 100.214 1.93772C101.347 1.71105 102.753 1.59772 104.43 1.59772C105.087 1.59772 105.756 1.62038 106.436 1.66572C107.139 1.71105 107.807 1.77905 108.442 1.86972C109.077 1.93772 109.621 2.02838 110.074 2.14172V5.20172C109.507 5.13372 108.941 5.07705 108.374 5.03172C107.83 4.96372 107.297 4.91838 106.776 4.89572C106.255 4.87305 105.801 4.86172 105.416 4.86172C104.169 4.86172 103.138 4.90705 102.322 4.99772C101.506 5.08839 100.849 5.29239 100.35 5.60972C99.8741 5.92705 99.5114 6.40305 99.2621 7.03772C99.0354 7.64972 98.8768 8.48839 98.7861 9.55372C98.7181 10.6191 98.6841 11.9564 98.6841 13.5657C98.6841 15.1524 98.7181 16.4897 98.7861 17.5777C98.8768 18.6431 99.0354 19.4931 99.2621 20.1277C99.5114 20.7397 99.8741 21.2044 100.35 21.5217C100.849 21.8391 101.506 22.0431 102.322 22.1337C103.138 22.2244 104.169 22.2697 105.416 22.2697C106.164 22.2697 106.98 22.2357 107.864 22.1677C108.771 22.0997 109.553 22.0204 110.21 21.9297V25.0577C109.711 25.1484 109.122 25.2277 108.442 25.2957C107.785 25.3637 107.105 25.4204 106.402 25.4657C105.722 25.5111 105.065 25.5337 104.43 25.5337ZM121.744 25.5337C120.294 25.5337 119.081 25.4431 118.106 25.2617C117.154 25.0804 116.395 24.7971 115.828 24.4117C115.284 24.0037 114.876 23.4597 114.604 22.7797C114.355 22.0997 114.185 21.2497 114.094 20.2297C114.026 19.2097 113.992 17.9857 113.992 16.5577C113.992 15.1524 114.026 13.9397 114.094 12.9197C114.185 11.8997 114.355 11.0497 114.604 10.3697C114.876 9.68972 115.284 9.15705 115.828 8.77172C116.395 8.36372 117.154 8.08038 118.106 7.92172C119.081 7.74038 120.294 7.64972 121.744 7.64972C123.218 7.64972 124.43 7.74038 125.382 7.92172C126.357 8.08038 127.116 8.36372 127.66 8.77172C128.227 9.15705 128.635 9.68972 128.884 10.3697C129.156 11.0497 129.326 11.8997 129.394 12.9197C129.485 13.9397 129.53 15.1524 129.53 16.5577C129.53 17.9857 129.485 19.2097 129.394 20.2297C129.326 21.2497 129.156 22.0997 128.884 22.7797C128.635 23.4597 128.227 24.0037 127.66 24.4117C127.116 24.7971 126.357 25.0804 125.382 25.2617C124.43 25.4431 123.218 25.5337 121.744 25.5337ZM121.744 22.5077C122.787 22.5077 123.592 22.4397 124.158 22.3037C124.725 22.1677 125.122 21.8957 125.348 21.4877C125.598 21.0797 125.745 20.4791 125.79 19.6857C125.858 18.8924 125.892 17.8497 125.892 16.5577C125.892 15.2657 125.858 14.2344 125.79 13.4637C125.745 12.6704 125.598 12.0697 125.348 11.6617C125.122 11.2537 124.725 10.9931 124.158 10.8797C123.592 10.7437 122.787 10.6757 121.744 10.6757C120.724 10.6757 119.931 10.7437 119.364 10.8797C118.798 10.9931 118.39 11.2537 118.14 11.6617C117.914 12.0697 117.766 12.6704 117.698 13.4637C117.653 14.2344 117.63 15.2657 117.63 16.5577C117.63 17.8497 117.653 18.8924 117.698 19.6857C117.766 20.4791 117.914 21.0797 118.14 21.4877C118.39 21.8957 118.798 22.1677 119.364 22.3037C119.931 22.4397 120.724 22.5077 121.744 22.5077ZM134.229 25.2617V7.92172H137.561L137.663 10.2337H137.901C138.15 9.68972 138.49 9.22505 138.921 8.83972C139.374 8.45439 139.93 8.15972 140.587 7.95572C141.267 7.75172 142.083 7.64972 143.035 7.64972C144.486 7.64972 145.574 7.86505 146.299 8.29572C147.024 8.70372 147.534 9.34972 147.829 10.2337H148.101C148.35 9.68972 148.702 9.22505 149.155 8.83972C149.631 8.45439 150.209 8.15972 150.889 7.95572C151.592 7.75172 152.419 7.64972 153.371 7.64972C154.867 7.64972 155.989 7.89905 156.737 8.39772C157.485 8.89638 157.984 9.65572 158.233 10.6757C158.482 11.6731 158.607 12.9197 158.607 14.4157V25.2617H155.003V15.8437C155.003 14.7104 154.969 13.8151 154.901 13.1577C154.833 12.4777 154.686 11.9791 154.459 11.6617C154.255 11.3217 153.926 11.1064 153.473 11.0157C153.042 10.9251 152.476 10.8797 151.773 10.8797C150.957 10.8797 150.311 10.9931 149.835 11.2197C149.359 11.4237 149.008 11.7524 148.781 12.2057C148.554 12.6364 148.407 13.1917 148.339 13.8717C148.271 14.5517 148.237 15.3677 148.237 16.3197V25.2617H144.633V15.8437C144.633 14.7104 144.588 13.8151 144.497 13.1577C144.429 12.4777 144.282 11.9791 144.055 11.6617C143.851 11.3217 143.534 11.1064 143.103 11.0157C142.672 10.9251 142.094 10.8797 141.369 10.8797C140.576 10.8797 139.941 10.9931 139.465 11.2197C138.989 11.4464 138.626 11.7864 138.377 12.2397C138.15 12.6704 138.003 13.2371 137.935 13.9397C137.867 14.6197 137.833 15.4131 137.833 16.3197V25.2617H134.229ZM164.012 32.0277V7.92172H167.344L167.446 10.2337H167.684C168.047 9.50838 168.512 8.96438 169.078 8.60172C169.645 8.21638 170.268 7.96705 170.948 7.85372C171.651 7.71772 172.365 7.64972 173.09 7.64972C174.246 7.64972 175.21 7.79705 175.98 8.09172C176.774 8.36372 177.408 8.83972 177.884 9.51972C178.36 10.1771 178.712 11.0837 178.938 12.2397C179.165 13.3957 179.278 14.8351 179.278 16.5577C179.278 18.3031 179.165 19.7537 178.938 20.9097C178.734 22.0657 178.394 22.9837 177.918 23.6637C177.465 24.3211 176.853 24.7971 176.082 25.0917C175.312 25.3864 174.348 25.5337 173.192 25.5337C172.376 25.5337 171.628 25.4657 170.948 25.3297C170.268 25.1937 169.668 24.9671 169.146 24.6497C168.625 24.3097 168.194 23.8337 167.854 23.2217H167.616V32.0277H164.012ZM171.594 22.3037C172.501 22.3037 173.215 22.2471 173.736 22.1337C174.28 21.9977 174.688 21.7484 174.96 21.3857C175.232 21.0004 175.414 20.4337 175.504 19.6857C175.595 18.9151 175.64 17.8837 175.64 16.5917C175.64 15.2997 175.595 14.2797 175.504 13.5317C175.414 12.7611 175.232 12.1831 174.96 11.7977C174.688 11.4124 174.28 11.1631 173.736 11.0497C173.215 10.9137 172.501 10.8457 171.594 10.8457C170.642 10.8457 169.894 10.9817 169.35 11.2537C168.806 11.5257 168.398 11.9337 168.126 12.4777C167.9 12.9537 167.752 13.5431 167.684 14.2457C167.639 14.9257 167.616 15.7077 167.616 16.5917C167.616 17.4984 167.639 18.2917 167.684 18.9717C167.752 19.6291 167.888 20.1844 168.092 20.6377C168.364 21.2271 168.772 21.6577 169.316 21.9297C169.883 22.1791 170.642 22.3037 171.594 22.3037ZM183.967 25.2617V-0.000282288H187.571V25.2617H183.967ZM199.8 32.2657C199.143 32.2657 198.451 32.2431 197.726 32.1977C197.023 32.1751 196.343 32.1411 195.686 32.0957C195.051 32.0504 194.485 31.9937 193.986 31.9257V29.1037C194.802 29.1264 195.505 29.1491 196.094 29.1717C196.706 29.1944 197.25 29.2057 197.726 29.2057C198.202 29.2284 198.621 29.2397 198.984 29.2397C200.208 29.2397 201.171 29.1604 201.874 29.0017C202.577 28.8431 203.098 28.5711 203.438 28.1857C203.778 27.8004 203.982 27.2677 204.05 26.5877C204.141 25.9304 204.186 25.0917 204.186 24.0717V23.0177H203.982C203.755 23.5164 203.415 23.9471 202.962 24.3097C202.531 24.6497 201.953 24.9217 201.228 25.1257C200.525 25.3071 199.653 25.3977 198.61 25.3977C197.409 25.3977 196.423 25.2617 195.652 24.9897C194.904 24.6951 194.326 24.2757 193.918 23.7317C193.533 23.1651 193.272 22.4624 193.136 21.6237C193 20.7851 192.932 19.8104 192.932 18.6997V7.92172H196.536V17.2717C196.536 18.4051 196.57 19.3117 196.638 19.9917C196.729 20.6491 196.899 21.1364 197.148 21.4537C197.397 21.7711 197.76 21.9864 198.236 22.0997C198.735 22.1904 199.392 22.2357 200.208 22.2357C201.115 22.2357 201.84 22.1224 202.384 21.8957C202.928 21.6691 203.325 21.3291 203.574 20.8757C203.846 20.4224 204.016 19.8557 204.084 19.1757C204.152 18.4957 204.186 17.7024 204.186 16.7957V7.92172H207.824V23.2217C207.824 24.8311 207.733 26.2024 207.552 27.3357C207.393 28.4917 207.042 29.4324 206.498 30.1577C205.977 30.8831 205.183 31.4157 204.118 31.7557C203.053 32.0957 201.613 32.2657 199.8 32.2657Z" fill="#6FB018"/>
</svg>
