<svg width="211" height="34" viewBox="0 0 211 34" fill="none" xmlns="http://www.w3.org/2000/svg">
<path d="M0.168889 26V2.30222H7.91889C9.91667 2.30222 11.547 2.40555 12.81 2.61222C14.0959 2.79592 15.1063 3.14037 15.8411 3.64555C16.5759 4.15074 17.1041 4.85111 17.4256 5.74667C17.77 6.64222 17.9882 7.77889 18.08 9.15666C18.1719 10.5344 18.2178 12.1993 18.2178 14.1511C18.2178 16.103 18.1719 17.7678 18.08 19.1456C17.9882 20.5233 17.77 21.66 17.4256 22.5556C17.1041 23.4511 16.5759 24.1515 15.8411 24.6567C15.1063 25.1619 14.0959 25.5178 12.81 25.7244C11.547 25.9081 9.91667 26 7.91889 26H0.168889ZM4.06111 22.6933H7.57445C8.86037 22.6933 9.91667 22.6704 10.7433 22.6244C11.593 22.5556 12.2589 22.3948 12.7411 22.1422C13.2233 21.8667 13.5793 21.4304 13.8089 20.8333C14.0385 20.2363 14.1763 19.3981 14.2222 18.3189C14.2911 17.2167 14.3256 15.8274 14.3256 14.1511C14.3256 12.4748 14.2911 11.097 14.2222 10.0178C14.1763 8.93852 14.027 8.10037 13.7744 7.50333C13.5448 6.88333 13.1774 6.44704 12.6722 6.19444C12.19 5.91889 11.5356 5.75815 10.7089 5.71222C9.88222 5.64333 8.83741 5.60889 7.57445 5.60889H4.06111V22.6933ZM23.3344 26V0.407775H26.9855V10.6033H27.2266C27.5022 10.0752 27.8696 9.63889 28.3288 9.29444C28.7881 8.92703 29.3622 8.65148 30.0511 8.46778C30.7629 8.28407 31.624 8.19222 32.6344 8.19222C33.8744 8.19222 34.8733 8.33 35.6311 8.60555C36.4118 8.88111 36.9974 9.30592 37.3877 9.88C37.7781 10.4541 38.0422 11.1659 38.18 12.0156C38.3407 12.8652 38.4211 13.8641 38.4211 15.0122V26H34.7355V16.4589C34.7355 15.3107 34.6896 14.4037 34.5977 13.7378C34.5288 13.0489 34.3681 12.5437 34.1155 12.2222C33.8629 11.8778 33.484 11.6596 32.9788 11.5678C32.4966 11.4759 31.8422 11.43 31.0155 11.43C30.097 11.43 29.3622 11.5448 28.8111 11.7744C28.2829 12.0041 27.8811 12.3485 27.6055 12.8078C27.3529 13.267 27.1807 13.8411 27.0888 14.53C27.02 15.2189 26.9855 16.0226 26.9855 16.9411V26H23.3344ZM48.3308 26.2756C47.1368 26.2756 46.1264 26.1148 45.2997 25.7933C44.496 25.4719 43.8875 24.9437 43.4742 24.2089C43.0608 23.4511 42.8542 22.4293 42.8542 21.1433C42.8542 19.7885 43.0149 18.7207 43.3364 17.94C43.6579 17.1363 44.209 16.5622 44.9897 16.2178C45.7705 15.8733 46.8727 15.7011 48.2964 15.7011C48.526 15.7011 48.859 15.7126 49.2953 15.7356C49.7545 15.7356 50.2712 15.747 50.8453 15.77C51.4423 15.77 52.0279 15.7815 52.602 15.8044C53.199 15.8044 53.7386 15.8159 54.2208 15.8389V15.0122C54.2208 14.1167 54.1634 13.4163 54.0486 12.9111C53.9338 12.4059 53.6927 12.0385 53.3253 11.8089C52.9808 11.5563 52.4757 11.3956 51.8097 11.3267C51.1438 11.2578 50.2827 11.2233 49.2264 11.2233C48.7212 11.2233 48.1242 11.2463 47.4353 11.2922C46.7694 11.3152 46.1149 11.3496 45.472 11.3956C44.829 11.4415 44.3353 11.4989 43.9908 11.5678V8.67444C44.9323 8.49074 45.9657 8.36444 47.0908 8.29555C48.216 8.2037 49.3412 8.15778 50.4664 8.15778C51.7753 8.15778 52.866 8.23815 53.7386 8.39889C54.6342 8.55963 55.3575 8.81222 55.9086 9.15666C56.4597 9.50111 56.8731 9.94889 57.1486 10.5C57.4242 11.0511 57.6194 11.717 57.7342 12.4978C57.849 13.2556 57.9064 14.1281 57.9064 15.1156V26H54.5308L54.3931 23.7267H54.1864C53.796 24.4615 53.2679 25.0241 52.602 25.4144C51.959 25.7819 51.2586 26.0115 50.5008 26.1033C49.7431 26.2181 49.0197 26.2756 48.3308 26.2756ZM49.9497 23.3133C50.5238 23.3133 51.0405 23.2789 51.4997 23.21C51.982 23.1181 52.3953 22.9804 52.7397 22.7967C53.1071 22.59 53.3942 22.3144 53.6008 21.97C53.8075 21.5796 53.9568 21.1319 54.0486 20.6267C54.1634 20.1215 54.2208 19.5244 54.2208 18.8356V18.2156H49.192C48.4342 18.2156 47.8486 18.273 47.4353 18.3878C47.0449 18.5026 46.7808 18.7437 46.6431 19.1111C46.5053 19.4785 46.4364 20.0411 46.4364 20.7989C46.4364 21.5107 46.5168 22.0504 46.6775 22.4178C46.8382 22.7622 47.1712 23.0033 47.6764 23.1411C48.2045 23.2559 48.9623 23.3133 49.9497 23.3133ZM64.7789 26V11.4989H61.2655V8.43333H64.7789V3.33555H68.43V8.43333H72.5289V11.4989H68.43V26H64.7789ZM81.8297 26.2756C80.6126 26.2756 79.6137 26.1378 78.833 25.8622C78.0752 25.5637 77.4897 25.1274 77.0763 24.5533C76.686 23.9793 76.4219 23.2674 76.2841 22.4178C76.1463 21.5681 76.0774 20.5693 76.0774 19.4211V8.43333H79.7286V17.9744C79.7286 19.1226 79.763 20.0411 79.8319 20.73C79.9237 21.3959 80.096 21.9011 80.3486 22.2456C80.6012 22.567 80.9686 22.7737 81.4508 22.8656C81.956 22.9574 82.6219 23.0033 83.4486 23.0033C84.3671 23.0033 85.1019 22.8885 85.653 22.6589C86.2041 22.4293 86.606 22.0848 86.8586 21.6256C87.1341 21.1663 87.3063 20.5922 87.3752 19.9033C87.4441 19.2144 87.4786 18.4107 87.4786 17.4922V8.43333H91.1641V26H87.7886L87.6508 23.6578H87.4097C87.1571 24.2089 86.7897 24.6796 86.3075 25.07C85.8482 25.4604 85.2512 25.7589 84.5163 25.9656C83.7815 26.1722 82.886 26.2756 81.8297 26.2756ZM105.965 26.2756C104.266 26.2756 102.842 26.1722 101.694 25.9656C100.546 25.7359 99.6043 25.357 98.8695 24.8289C98.1576 24.3007 97.6065 23.5889 97.2161 22.6933C96.8487 21.7748 96.5961 20.6152 96.4583 19.2144C96.3206 17.8137 96.2517 16.1259 96.2517 14.1511C96.2517 12.1763 96.3206 10.4885 96.4583 9.08778C96.5961 7.68703 96.8487 6.53889 97.2161 5.64333C97.6065 4.72481 98.1576 4.00148 98.8695 3.47333C99.6043 2.94518 100.546 2.57777 101.694 2.37111C102.842 2.14148 104.266 2.02666 105.965 2.02666C106.631 2.02666 107.308 2.04963 107.997 2.09555C108.709 2.14148 109.386 2.21037 110.029 2.30222C110.672 2.37111 111.224 2.46296 111.683 2.57778V5.67778C111.109 5.60889 110.535 5.55148 109.961 5.50555C109.409 5.43666 108.87 5.39074 108.342 5.36778C107.814 5.34481 107.354 5.33333 106.964 5.33333C105.701 5.33333 104.656 5.37926 103.829 5.47111C103.003 5.56296 102.337 5.76963 101.832 6.09111C101.349 6.41259 100.982 6.89481 100.729 7.53778C100.5 8.15778 100.339 9.00741 100.247 10.0867C100.178 11.1659 100.144 12.5207 100.144 14.1511C100.144 15.7585 100.178 17.1133 100.247 18.2156C100.339 19.2948 100.5 20.1559 100.729 20.7989C100.982 21.4189 101.349 21.8896 101.832 22.2111C102.337 22.5326 103.003 22.7393 103.829 22.8311C104.656 22.923 105.701 22.9689 106.964 22.9689C107.722 22.9689 108.548 22.9344 109.444 22.8656C110.362 22.7967 111.155 22.7163 111.821 22.6244V25.7933C111.315 25.8852 110.718 25.9656 110.029 26.0344C109.364 26.1033 108.675 26.1607 107.963 26.2067C107.274 26.2526 106.608 26.2756 105.965 26.2756ZM123.506 26.2756C122.036 26.2756 120.807 26.1837 119.82 26C118.856 25.8163 118.086 25.5293 117.512 25.1389C116.961 24.7256 116.548 24.1744 116.272 23.4856C116.02 22.7967 115.847 21.9356 115.756 20.9022C115.687 19.8689 115.652 18.6289 115.652 17.1822C115.652 15.7585 115.687 14.53 115.756 13.4967C115.847 12.4633 116.02 11.6022 116.272 10.9133C116.548 10.2244 116.961 9.68481 117.512 9.29444C118.086 8.88111 118.856 8.59407 119.82 8.43333C120.807 8.24963 122.036 8.15778 123.506 8.15778C124.998 8.15778 126.227 8.24963 127.191 8.43333C128.179 8.59407 128.948 8.88111 129.499 9.29444C130.073 9.68481 130.486 10.2244 130.739 10.9133C131.014 11.6022 131.187 12.4633 131.256 13.4967C131.347 14.53 131.393 15.7585 131.393 17.1822C131.393 18.6289 131.347 19.8689 131.256 20.9022C131.187 21.9356 131.014 22.7967 130.739 23.4856C130.486 24.1744 130.073 24.7256 129.499 25.1389C128.948 25.5293 128.179 25.8163 127.191 26C126.227 26.1837 124.998 26.2756 123.506 26.2756ZM123.506 23.21C124.562 23.21 125.377 23.1411 125.951 23.0033C126.525 22.8656 126.927 22.59 127.157 22.1767C127.409 21.7633 127.559 21.1548 127.604 20.3511C127.673 19.5474 127.708 18.4911 127.708 17.1822C127.708 15.8733 127.673 14.8285 127.604 14.0478C127.559 13.2441 127.409 12.6356 127.157 12.2222C126.927 11.8089 126.525 11.5448 125.951 11.43C125.377 11.2922 124.562 11.2233 123.506 11.2233C122.472 11.2233 121.669 11.2922 121.094 11.43C120.52 11.5448 120.107 11.8089 119.854 12.2222C119.625 12.6356 119.476 13.2441 119.407 14.0478C119.361 14.8285 119.338 15.8733 119.338 17.1822C119.338 18.4911 119.361 19.5474 119.407 20.3511C119.476 21.1548 119.625 21.7633 119.854 22.1767C120.107 22.59 120.52 22.8656 121.094 23.0033C121.669 23.1411 122.472 23.21 123.506 23.21ZM136.153 26V8.43333H139.529L139.632 10.7756H139.873C140.126 10.2244 140.47 9.7537 140.907 9.36333C141.366 8.97296 141.929 8.67444 142.595 8.46778C143.283 8.26111 144.11 8.15778 145.075 8.15778C146.544 8.15778 147.646 8.37592 148.381 8.81222C149.116 9.22555 149.633 9.88 149.931 10.7756H150.207C150.459 10.2244 150.815 9.7537 151.275 9.36333C151.757 8.97296 152.342 8.67444 153.031 8.46778C153.743 8.26111 154.581 8.15778 155.546 8.15778C157.061 8.15778 158.198 8.41037 158.956 8.91555C159.713 9.42074 160.219 10.19 160.471 11.2233C160.724 12.2337 160.85 13.4967 160.85 15.0122V26H157.199V16.4589C157.199 15.3107 157.165 14.4037 157.096 13.7378C157.027 13.0489 156.877 12.5437 156.648 12.2222C156.441 11.8778 156.108 11.6596 155.649 11.5678C155.213 11.4759 154.639 11.43 153.927 11.43C153.1 11.43 152.446 11.5448 151.963 11.7744C151.481 11.9811 151.125 12.3141 150.896 12.7733C150.666 13.2096 150.517 13.7722 150.448 14.4611C150.379 15.15 150.345 15.9767 150.345 16.9411V26H146.693V16.4589C146.693 15.3107 146.647 14.4037 146.556 13.7378C146.487 13.0489 146.337 12.5437 146.108 12.2222C145.901 11.8778 145.58 11.6596 145.143 11.5678C144.707 11.4759 144.122 11.43 143.387 11.43C142.583 11.43 141.94 11.5448 141.458 11.7744C140.976 12.0041 140.608 12.3485 140.356 12.8078C140.126 13.2441 139.977 13.8181 139.908 14.53C139.839 15.2189 139.805 16.0226 139.805 16.9411V26H136.153ZM166.326 32.8544V8.43333H169.701L169.805 10.7756H170.046C170.413 10.0407 170.884 9.48963 171.458 9.12222C172.032 8.73185 172.664 8.47926 173.353 8.36444C174.064 8.22667 174.788 8.15778 175.523 8.15778C176.694 8.15778 177.67 8.30704 178.45 8.60555C179.254 8.88111 179.897 9.36333 180.379 10.0522C180.861 10.7181 181.217 11.6367 181.447 12.8078C181.677 13.9789 181.791 15.437 181.791 17.1822C181.791 18.9504 181.677 20.42 181.447 21.5911C181.24 22.7622 180.896 23.6922 180.414 24.3811C179.954 25.047 179.334 25.5293 178.554 25.8278C177.773 26.1263 176.797 26.2756 175.626 26.2756C174.799 26.2756 174.041 26.2067 173.353 26.0689C172.664 25.9311 172.055 25.7015 171.527 25.38C170.999 25.0356 170.563 24.5533 170.218 23.9333H169.977V32.8544H166.326ZM174.007 23.0033C174.926 23.0033 175.649 22.9459 176.177 22.8311C176.728 22.6933 177.141 22.4407 177.417 22.0733C177.693 21.683 177.876 21.1089 177.968 20.3511C178.06 19.5704 178.106 18.5256 178.106 17.2167C178.106 15.9078 178.06 14.8744 177.968 14.1167C177.876 13.3359 177.693 12.7504 177.417 12.36C177.141 11.9696 176.728 11.717 176.177 11.6022C175.649 11.4644 174.926 11.3956 174.007 11.3956C173.043 11.3956 172.285 11.5333 171.734 11.8089C171.183 12.0844 170.769 12.4978 170.494 13.0489C170.264 13.5311 170.115 14.1281 170.046 14.84C170 15.5289 169.977 16.3211 169.977 17.2167C169.977 18.1352 170 18.9389 170.046 19.6278C170.115 20.2937 170.253 20.8563 170.459 21.3156C170.735 21.9126 171.148 22.3489 171.699 22.6244C172.273 22.877 173.043 23.0033 174.007 23.0033ZM186.542 26V0.407775H190.193V26H186.542ZM202.582 33.0956C201.916 33.0956 201.215 33.0726 200.481 33.0267C199.769 33.0037 199.08 32.9693 198.414 32.9233C197.771 32.8774 197.197 32.82 196.692 32.7511V29.8922C197.518 29.9152 198.23 29.9381 198.827 29.9611C199.447 29.9841 199.998 29.9956 200.481 29.9956C200.963 30.0185 201.388 30.03 201.755 30.03C202.995 30.03 203.971 29.9496 204.683 29.7889C205.395 29.6281 205.923 29.3526 206.267 28.9622C206.612 28.5719 206.818 28.0322 206.887 27.3433C206.979 26.6774 207.025 25.8278 207.025 24.7944V23.7267H206.818C206.589 24.2319 206.244 24.6681 205.785 25.0356C205.349 25.38 204.763 25.6556 204.028 25.8622C203.316 26.0459 202.432 26.1378 201.376 26.1378C200.159 26.1378 199.16 26 198.379 25.7244C197.622 25.4259 197.036 25.0011 196.623 24.45C196.232 23.8759 195.968 23.1641 195.831 22.3144C195.693 21.4648 195.624 20.4774 195.624 19.3522V8.43333H199.275V17.9056C199.275 19.0537 199.309 19.9722 199.378 20.6611C199.47 21.327 199.642 21.8207 199.895 22.1422C200.148 22.4637 200.515 22.6819 200.997 22.7967C201.502 22.8885 202.168 22.9344 202.995 22.9344C203.914 22.9344 204.648 22.8196 205.199 22.59C205.751 22.3604 206.152 22.0159 206.405 21.5567C206.681 21.0974 206.853 20.5233 206.922 19.8344C206.991 19.1456 207.025 18.3419 207.025 17.4233V8.43333H210.711V23.9333C210.711 25.5637 210.619 26.953 210.435 28.1011C210.274 29.2722 209.918 30.2252 209.367 30.96C208.839 31.6948 208.035 32.2344 206.956 32.5789C205.877 32.9233 204.419 33.0956 202.582 33.0956Z" fill="white"/>
</svg>
