<svg width="36" height="34" viewBox="0 0 36 34" fill="none" xmlns="http://www.w3.org/2000/svg">
<path d="M20.2083 14.417L13.1249 7.33366L15.4999 5.00033L20.2083 9.70866L29.6666 0.291992L31.9999 2.62533L20.2083 14.417ZM10.3333 26.8337L21.9166 30.0003L31.8333 26.917C31.6944 26.667 31.493 26.4517 31.2291 26.2712C30.9652 26.0906 30.6666 26.0003 30.3333 26.0003H21.9166C21.1666 26.0003 20.5694 25.9725 20.1249 25.917C19.6805 25.8614 19.2221 25.7503 18.7499 25.5837L14.8749 24.292L15.7916 21.042L19.1666 22.167C19.6388 22.3059 20.1944 22.417 20.8333 22.5003C21.4721 22.5837 22.4166 22.6392 23.6666 22.667C23.6666 22.3614 23.5763 22.0698 23.3958 21.792C23.2152 21.5142 22.9999 21.3337 22.7499 21.2503L12.9999 17.667H10.3333V26.8337ZM0.333252 32.667V14.3337H12.9999C13.1944 14.3337 13.3888 14.3545 13.5833 14.3962C13.7777 14.4378 13.9583 14.4864 14.1249 14.542L23.9166 18.167C24.8333 18.5003 25.5763 19.0837 26.1458 19.917C26.7152 20.7503 26.9999 21.667 26.9999 22.667H30.3333C31.7221 22.667 32.9027 23.1253 33.8749 24.042C34.8471 24.9587 35.3333 26.167 35.3333 27.667V29.3337L21.9999 33.5003L10.3333 30.2503V32.667H0.333252ZM3.66659 29.3337H6.99992V17.667H3.66659V29.3337Z" fill="#4B0081"/>
</svg>
