<svg width="36" height="34" viewBox="0 0 36 34" fill="none" xmlns="http://www.w3.org/2000/svg">
<path d="M20.2085 14.417L13.1252 7.33366L15.5002 5.00033L20.2085 9.70866L29.6668 0.291992L32.0002 2.62533L20.2085 14.417ZM10.3335 26.8337L21.9168 30.0003L31.8335 26.917C31.6946 26.667 31.4932 26.4517 31.2293 26.2712C30.9654 26.0906 30.6668 26.0003 30.3335 26.0003H21.9168C21.1668 26.0003 20.5696 25.9726 20.1252 25.917C19.6807 25.8614 19.2224 25.7503 18.7502 25.5837L14.8752 24.292L15.7918 21.042L19.1668 22.167C19.6391 22.3059 20.1946 22.417 20.8335 22.5003C21.4724 22.5837 22.4168 22.6392 23.6668 22.667C23.6668 22.3614 23.5766 22.0698 23.396 21.792C23.2154 21.5142 23.0002 21.3337 22.7502 21.2503L13.0002 17.667H10.3335V26.8337ZM0.333496 32.667V14.3337H13.0002C13.1946 14.3337 13.3891 14.3545 13.5835 14.3962C13.7779 14.4378 13.9585 14.4864 14.1252 14.542L23.9168 18.167C24.8335 18.5003 25.5766 19.0837 26.146 19.917C26.7154 20.7503 27.0002 21.667 27.0002 22.667H30.3335C31.7224 22.667 32.9029 23.1253 33.8752 24.042C34.8474 24.9587 35.3335 26.167 35.3335 27.667V29.3337L22.0002 33.5003L10.3335 30.2503V32.667H0.333496ZM3.66683 29.3337H7.00016V17.667H3.66683V29.3337Z" fill="#4B0081"/>
</svg>
