<svg width="28" height="34" viewBox="0 0 28 34" fill="none" xmlns="http://www.w3.org/2000/svg">
<path d="M13.9998 23.6667C16.0832 23.6667 17.854 22.9375 19.3123 21.4792C20.7707 20.0209 21.4998 18.25 21.4998 16.1667C21.4998 14.0834 20.7707 12.3125 19.3123 10.8542C17.854 9.39587 16.0832 8.66671 13.9998 8.66671V11.1667C15.3887 11.1667 16.5693 11.6528 17.5415 12.625C18.5137 13.5973 18.9998 14.7778 18.9998 16.1667C18.9998 17.5556 18.5137 18.7362 17.5415 19.7084C16.5693 20.6806 15.3887 21.1667 13.9998 21.1667C13.0832 21.1667 12.229 20.9306 11.4373 20.4584C10.6457 19.9862 10.0276 19.3473 9.58317 18.5417L7.4165 19.75C8.08317 20.9723 8.99984 21.9306 10.1665 22.625C11.3332 23.3195 12.6109 23.6667 13.9998 23.6667ZM7.74984 17.5834C8.11095 17.5834 8.40956 17.4653 8.64567 17.2292C8.88178 16.9931 8.99984 16.6945 8.99984 16.3334C8.99984 15.9723 8.88178 15.6737 8.64567 15.4375C8.40956 15.2014 8.11095 15.0834 7.74984 15.0834C7.38873 15.0834 7.09012 15.2014 6.854 15.4375C6.61789 15.6737 6.49984 15.9723 6.49984 16.3334C6.49984 16.6945 6.61789 16.9931 6.854 17.2292C7.09012 17.4653 7.38873 17.5834 7.74984 17.5834ZM8.6665 14.0834C9.02762 14.0834 9.32623 13.9653 9.56234 13.7292C9.79845 13.4931 9.9165 13.1945 9.9165 12.8334C9.9165 12.4723 9.79845 12.1737 9.56234 11.9375C9.32623 11.7014 9.02762 11.5834 8.6665 11.5834C8.30539 11.5834 8.00678 11.7014 7.77067 11.9375C7.53456 12.1737 7.4165 12.4723 7.4165 12.8334C7.4165 13.1945 7.53456 13.4931 7.77067 13.7292C8.00678 13.9653 8.30539 14.0834 8.6665 14.0834ZM11.0832 11.7917C11.4443 11.7917 11.7429 11.6737 11.979 11.4375C12.2151 11.2014 12.3332 10.9028 12.3332 10.5417C12.3332 10.1806 12.2151 9.88198 11.979 9.64587C11.7429 9.40976 11.4443 9.29171 11.0832 9.29171C10.7221 9.29171 10.4234 9.40976 10.1873 9.64587C9.95123 9.88198 9.83317 10.1806 9.83317 10.5417C9.83317 10.9028 9.95123 11.2014 10.1873 11.4375C10.4234 11.6737 10.7221 11.7917 11.0832 11.7917ZM13.9998 33.6667C10.1387 32.6945 6.95123 30.4792 4.43734 27.0209C1.92345 23.5625 0.666504 19.7223 0.666504 15.5V5.33337L13.9998 0.333374L27.3332 5.33337V15.5C27.3332 19.7223 26.0762 23.5625 23.5623 27.0209C21.0484 30.4792 17.8609 32.6945 13.9998 33.6667ZM13.9998 30.1667C16.8887 29.25 19.2776 27.4167 21.1665 24.6667C23.0554 21.9167 23.9998 18.8612 23.9998 15.5V7.62504L13.9998 3.87504L3.99984 7.62504V15.5C3.99984 18.8612 4.94428 21.9167 6.83317 24.6667C8.72206 27.4167 11.1109 29.25 13.9998 30.1667Z" fill="#6FB018"/>
</svg>
