<svg width="38" height="28" viewBox="0 0 38 28" fill="none" xmlns="http://www.w3.org/2000/svg">
<path d="M13.167 26.5C9.69477 26.5 6.74338 25.2847 4.31283 22.8541C1.88227 20.4236 0.666992 17.4722 0.666992 14C0.666992 10.5277 1.88227 7.57635 4.31283 5.14579C6.74338 2.71524 9.69477 1.49996 13.167 1.49996C16.6392 1.49996 19.5906 2.71524 22.0212 5.14579C24.4517 7.57635 25.667 10.5277 25.667 14C25.667 17.4722 24.4517 20.4236 22.0212 22.8541C19.5906 25.2847 16.6392 26.5 13.167 26.5ZM31.5003 27.3333L25.667 21.5L28.042 19.1666L29.8337 20.9583V0.666626H33.167V21L35.0003 19.1666L37.3337 21.5L31.5003 27.3333ZM13.167 23.1666C15.7225 23.1666 17.8892 22.2777 19.667 20.5C21.4448 18.7222 22.3337 16.5555 22.3337 14C22.3337 11.4444 21.4448 9.27774 19.667 7.49996C17.8892 5.72218 15.7225 4.83329 13.167 4.83329C10.6114 4.83329 8.44477 5.72218 6.66699 7.49996C4.88921 9.27774 4.00033 11.4444 4.00033 14C4.00033 16.5555 4.88921 18.7222 6.66699 20.5C8.44477 22.2777 10.6114 23.1666 13.167 23.1666ZM16.5003 19.8333L18.8337 17.5L14.8337 13.4583V7.33329H11.5003V14.8333L16.5003 19.8333Z" fill="#4B0081"/>
</svg>
