<svg width="60" height="60" viewBox="0 0 60 60" fill="none" xmlns="http://www.w3.org/2000/svg">
<rect width="60" height="60" rx="10" fill="#A700F4"/>
<mask id="mask0_2080_3968" style="mask-type:alpha" maskUnits="userSpaceOnUse" x="10" y="10" width="40" height="40">
<rect x="10" y="10" width="40" height="40" fill="#D9D9D9"/>
</mask>
<g mask="url(#mask0_2080_3968)">
<path d="M21.6667 38.3333H25V30H21.6667V38.3333ZM35 38.3333H38.3333V21.6667H35V38.3333ZM28.3333 38.3333H31.6667V33.3333H28.3333V38.3333ZM28.3333 30H31.6667V26.6667H28.3333V30ZM18.3333 45C17.4167 45 16.6319 44.6736 15.9792 44.0208C15.3264 43.3681 15 42.5833 15 41.6667V18.3333C15 17.4167 15.3264 16.6319 15.9792 15.9792C16.6319 15.3264 17.4167 15 18.3333 15H41.6667C42.5833 15 43.3681 15.3264 44.0208 15.9792C44.6736 16.6319 45 17.4167 45 18.3333V41.6667C45 42.5833 44.6736 43.3681 44.0208 44.0208C43.3681 44.6736 42.5833 45 41.6667 45H18.3333ZM18.3333 41.6667H41.6667V18.3333H18.3333V41.6667Z" fill="#FBF5FF"/>
</g>
</svg>
