<svg width="26" height="34" viewBox="0 0 26 34" fill="none" xmlns="http://www.w3.org/2000/svg">
<path d="M12.9998 33.6667C12.2776 33.6667 11.6248 33.4931 11.0415 33.1459C10.4582 32.7987 9.99984 32.3334 9.6665 31.75C8.74984 31.75 7.96512 31.4237 7.31234 30.7709C6.65956 30.1181 6.33317 29.3334 6.33317 28.4167V22.5C4.69428 21.4167 3.38178 19.9862 2.39567 18.2084C1.40956 16.4306 0.916504 14.5 0.916504 12.4167C0.916504 9.0556 2.09011 6.20143 4.43734 3.85421C6.78456 1.50699 9.63873 0.333374 12.9998 0.333374C16.3609 0.333374 19.2151 1.50699 21.5623 3.85421C23.9096 6.20143 25.0832 9.0556 25.0832 12.4167C25.0832 14.5556 24.5901 16.5 23.604 18.25C22.6179 20 21.3054 21.4167 19.6665 22.5V28.4167C19.6665 29.3334 19.3401 30.1181 18.6873 30.7709C18.0346 31.4237 17.2498 31.75 16.3332 31.75C15.9998 32.3334 15.5415 32.7987 14.9582 33.1459C14.3748 33.4931 13.7221 33.6667 12.9998 33.6667ZM9.6665 28.4167H16.3332V26.9167H9.6665V28.4167ZM9.6665 25.25H16.3332V23.6667H9.6665V25.25ZM9.33317 20.3334H11.7498V15.8334L8.08317 12.1667L9.83317 10.4167L12.9998 13.5834L16.1665 10.4167L17.9165 12.1667L14.2498 15.8334V20.3334H16.6665C18.1665 19.6112 19.3887 18.5487 20.3332 17.1459C21.2776 15.7431 21.7498 14.1667 21.7498 12.4167C21.7498 9.97226 20.9026 7.90282 19.2082 6.20837C17.5137 4.51393 15.4443 3.66671 12.9998 3.66671C10.5554 3.66671 8.48595 4.51393 6.7915 6.20837C5.09706 7.90282 4.24984 9.97226 4.24984 12.4167C4.24984 14.1667 4.72206 15.7431 5.6665 17.1459C6.61095 18.5487 7.83317 19.6112 9.33317 20.3334Z" fill="#6FB018"/>
</svg>
