<svg width="60" height="60" viewBox="0 0 60 60" fill="none" xmlns="http://www.w3.org/2000/svg">
<rect width="60" height="60" rx="10" fill="#189525"/>
<mask id="mask0_2060_411" style="mask-type:alpha" maskUnits="userSpaceOnUse" x="10" y="10" width="40" height="40">
<rect x="10" y="10" width="40" height="40" fill="#D9D9D9"/>
</mask>
<g mask="url(#mask0_2060_411)">
<path d="M44.3333 46.666L39.8333 42.166C39.2222 42.5271 38.5833 42.8118 37.9167 43.0202C37.25 43.2285 36.5556 43.3327 35.8333 43.3327C33.75 43.3327 31.9792 42.6035 30.5208 41.1452C29.0625 39.6868 28.3333 37.916 28.3333 35.8327C28.3333 33.7493 29.0625 31.9785 30.5208 30.5202C31.9792 29.0618 33.75 28.3327 35.8333 28.3327C37.9167 28.3327 39.6875 29.0618 41.1458 30.5202C42.6042 31.9785 43.3333 33.7493 43.3333 35.8327C43.3333 36.5549 43.2292 37.2493 43.0208 37.916C42.8125 38.5827 42.5278 39.2216 42.1667 39.8327L46.6667 44.3327L44.3333 46.666ZM35.8333 39.9993C37 39.9993 37.9861 39.5966 38.7917 38.791C39.5972 37.9855 40 36.9993 40 35.8327C40 34.666 39.5972 33.6799 38.7917 32.8743C37.9861 32.0688 37 31.666 35.8333 31.666C34.6667 31.666 33.6806 32.0688 32.875 32.8743C32.0694 33.6799 31.6667 34.666 31.6667 35.8327C31.6667 36.9993 32.0694 37.9855 32.875 38.791C33.6806 39.5966 34.6667 39.9993 35.8333 39.9993ZM45 26.666H41.6667V18.3327H38.3333V23.3327H21.6667V18.3327H18.3333V41.666H26.6667V44.9993H18.3333C17.4167 44.9993 16.6319 44.673 15.9792 44.0202C15.3264 43.3674 15 42.5827 15 41.666V18.3327C15 17.416 15.3264 16.6313 15.9792 15.9785C16.6319 15.3257 17.4167 14.9993 18.3333 14.9993H25.2917C25.5972 14.0271 26.1944 13.2285 27.0833 12.6035C27.9722 11.9785 28.9444 11.666 30 11.666C31.1111 11.666 32.1042 11.9785 32.9792 12.6035C33.8542 13.2285 34.4444 14.0271 34.75 14.9993H41.6667C42.5833 14.9993 43.3681 15.3257 44.0208 15.9785C44.6736 16.6313 45 17.416 45 18.3327V26.666ZM30 18.3327C30.4722 18.3327 30.8681 18.173 31.1875 17.8535C31.5069 17.5341 31.6667 17.1382 31.6667 16.666C31.6667 16.1938 31.5069 15.798 31.1875 15.4785C30.8681 15.1591 30.4722 14.9993 30 14.9993C29.5278 14.9993 29.1319 15.1591 28.8125 15.4785C28.4931 15.798 28.3333 16.1938 28.3333 16.666C28.3333 17.1382 28.4931 17.5341 28.8125 17.8535C29.1319 18.173 29.5278 18.3327 30 18.3327Z" fill="#F6FBF6"/>
</g>
</svg>
