<svg width="60" height="60" viewBox="0 0 60 60" fill="none" xmlns="http://www.w3.org/2000/svg">
<rect width="60" height="60" rx="10" fill="#053EFF"/>
<mask id="mask0_2060_401" style="mask-type:alpha" maskUnits="userSpaceOnUse" x="10" y="10" width="40" height="40">
<rect x="10" y="10" width="40" height="40" fill="#D9D9D9"/>
</mask>
<g mask="url(#mask0_2060_401)">
<path d="M18.3333 44.9993C17.4167 44.9993 16.6319 44.673 15.9792 44.0202C15.3264 43.3674 15 42.5827 15 41.666V18.3327C15 17.416 15.3264 16.6313 15.9792 15.9785C16.6319 15.3257 17.4167 14.9993 18.3333 14.9993H25.3333C25.6944 13.9993 26.2986 13.1938 27.1458 12.5827C27.9931 11.9716 28.9444 11.666 30 11.666C31.0556 11.666 32.0069 11.9716 32.8542 12.5827C33.7014 13.1938 34.3056 13.9993 34.6667 14.9993H41.6667C42.5833 14.9993 43.3681 15.3257 44.0208 15.9785C44.6736 16.6313 45 17.416 45 18.3327V41.666C45 42.5827 44.6736 43.3674 44.0208 44.0202C43.3681 44.673 42.5833 44.9993 41.6667 44.9993H18.3333ZM18.3333 41.666H41.6667V18.3327H18.3333V41.666ZM21.6667 38.3327H33.3333V34.9993H21.6667V38.3327ZM21.6667 31.666H38.3333V28.3327H21.6667V31.666ZM21.6667 24.9993H38.3333V21.666H21.6667V24.9993ZM30 17.0827C30.3611 17.0827 30.6597 16.9646 30.8958 16.7285C31.1319 16.4924 31.25 16.1938 31.25 15.8327C31.25 15.4716 31.1319 15.173 30.8958 14.9368C30.6597 14.7007 30.3611 14.5827 30 14.5827C29.6389 14.5827 29.3403 14.7007 29.1042 14.9368C28.8681 15.173 28.75 15.4716 28.75 15.8327C28.75 16.1938 28.8681 16.4924 29.1042 16.7285C29.3403 16.9646 29.6389 17.0827 30 17.0827Z" fill="#F5F7FF"/>
</g>
</svg>
