<svg width="34" height="38" viewBox="0 0 34 38" fill="none" xmlns="http://www.w3.org/2000/svg">
<path d="M14.9168 37.75L12.5835 35.375L15.6252 32.3333H10.0418C9.68072 33.3056 9.07655 34.1042 8.22933 34.7292C7.38211 35.3542 6.41683 35.6667 5.3335 35.6667C3.94461 35.6667 2.76405 35.1806 1.79183 34.2083C0.819607 33.2361 0.333496 32.0556 0.333496 30.6667C0.333496 29.5833 0.645996 28.6181 1.271 27.7708C1.896 26.9236 2.69461 26.3194 3.66683 25.9583V12.0417C2.69461 11.6806 1.896 11.0764 1.271 10.2292C0.645996 9.38194 0.333496 8.41667 0.333496 7.33333C0.333496 5.94444 0.819607 4.76389 1.79183 3.79167C2.76405 2.81944 3.94461 2.33333 5.3335 2.33333C6.41683 2.33333 7.38211 2.64583 8.22933 3.27083C9.07655 3.89583 9.68072 4.69444 10.0418 5.66667H15.6252L12.5835 2.625L14.9168 0.25L22.0002 7.33333L14.9168 14.4167L12.5835 12.0417L15.6252 9H10.0418C9.79183 9.72222 9.40294 10.3472 8.87516 10.875C8.34738 11.4028 7.72238 11.7917 7.00016 12.0417V25.9583C7.72238 26.2083 8.34738 26.5972 8.87516 27.125C9.40294 27.6528 9.79183 28.2778 10.0418 29H15.6252L12.5835 25.9583L14.9168 23.5833L22.0002 30.6667L14.9168 37.75ZM28.6668 35.6667C27.2779 35.6667 26.0974 35.1806 25.1252 34.2083C24.1529 33.2361 23.6668 32.0556 23.6668 30.6667C23.6668 29.5556 23.9793 28.5764 24.6043 27.7292C25.2293 26.8819 26.0279 26.2917 27.0002 25.9583V12.0417C26.0279 11.7083 25.2293 11.1181 24.6043 10.2708C23.9793 9.42361 23.6668 8.44444 23.6668 7.33333C23.6668 5.94444 24.1529 4.76389 25.1252 3.79167C26.0974 2.81944 27.2779 2.33333 28.6668 2.33333C30.0557 2.33333 31.2363 2.81944 32.2085 3.79167C33.1807 4.76389 33.6668 5.94444 33.6668 7.33333C33.6668 8.44444 33.3543 9.42361 32.7293 10.2708C32.1043 11.1181 31.3057 11.7083 30.3335 12.0417V25.9583C31.3057 26.3194 32.1043 26.9236 32.7293 27.7708C33.3543 28.6181 33.6668 29.5833 33.6668 30.6667C33.6668 32.0556 33.1807 33.2361 32.2085 34.2083C31.2363 35.1806 30.0557 35.6667 28.6668 35.6667ZM5.3335 32.3333C5.80572 32.3333 6.20155 32.1736 6.521 31.8542C6.84044 31.5347 7.00016 31.1389 7.00016 30.6667C7.00016 30.1944 6.84044 29.7986 6.521 29.4792C6.20155 29.1597 5.80572 29 5.3335 29C4.86127 29 4.46544 29.1597 4.146 29.4792C3.82655 29.7986 3.66683 30.1944 3.66683 30.6667C3.66683 31.1389 3.82655 31.5347 4.146 31.8542C4.46544 32.1736 4.86127 32.3333 5.3335 32.3333ZM28.6668 32.3333C29.1391 32.3333 29.5349 32.1736 29.8543 31.8542C30.1738 31.5347 30.3335 31.1389 30.3335 30.6667C30.3335 30.1944 30.1738 29.7986 29.8543 29.4792C29.5349 29.1597 29.1391 29 28.6668 29C28.1946 29 27.7988 29.1597 27.4793 29.4792C27.1599 29.7986 27.0002 30.1944 27.0002 30.6667C27.0002 31.1389 27.1599 31.5347 27.4793 31.8542C27.7988 32.1736 28.1946 32.3333 28.6668 32.3333ZM5.3335 9C5.80572 9 6.20155 8.84028 6.521 8.52083C6.84044 8.20139 7.00016 7.80556 7.00016 7.33333C7.00016 6.86111 6.84044 6.46528 6.521 6.14583C6.20155 5.82639 5.80572 5.66667 5.3335 5.66667C4.86127 5.66667 4.46544 5.82639 4.146 6.14583C3.82655 6.46528 3.66683 6.86111 3.66683 7.33333C3.66683 7.80556 3.82655 8.20139 4.146 8.52083C4.46544 8.84028 4.86127 9 5.3335 9ZM28.6668 9C29.1391 9 29.5349 8.84028 29.8543 8.52083C30.1738 8.20139 30.3335 7.80556 30.3335 7.33333C30.3335 6.86111 30.1738 6.46528 29.8543 6.14583C29.5349 5.82639 29.1391 5.66667 28.6668 5.66667C28.1946 5.66667 27.7988 5.82639 27.4793 6.14583C27.1599 6.46528 27.0002 6.86111 27.0002 7.33333C27.0002 7.80556 27.1599 8.20139 27.4793 8.52083C27.7988 8.84028 28.1946 9 28.6668 9Z" fill="#4B0081"/>
</svg>
