<svg width="34" height="38" viewBox="0 0 34 38" fill="none" xmlns="http://www.w3.org/2000/svg">
<path d="M14.9166 37.75L12.5833 35.375L15.6249 32.3333H10.0416C9.68047 33.3056 9.07631 34.1042 8.22909 34.7292C7.38186 35.3542 6.41659 35.6667 5.33325 35.6667C3.94436 35.6667 2.76381 35.1806 1.79159 34.2083C0.819363 33.2361 0.333252 32.0556 0.333252 30.6667C0.333252 29.5833 0.645752 28.6181 1.27075 27.7708C1.89575 26.9236 2.69436 26.3194 3.66659 25.9583V12.0417C2.69436 11.6806 1.89575 11.0764 1.27075 10.2292C0.645752 9.38194 0.333252 8.41667 0.333252 7.33333C0.333252 5.94444 0.819363 4.76389 1.79159 3.79167C2.76381 2.81944 3.94436 2.33333 5.33325 2.33333C6.41659 2.33333 7.38186 2.64583 8.22909 3.27083C9.07631 3.89583 9.68047 4.69444 10.0416 5.66667H15.6249L12.5833 2.625L14.9166 0.25L21.9999 7.33333L14.9166 14.4167L12.5833 12.0417L15.6249 9H10.0416C9.79159 9.72222 9.4027 10.3472 8.87492 10.875C8.34714 11.4028 7.72214 11.7917 6.99992 12.0417V25.9583C7.72214 26.2083 8.34714 26.5972 8.87492 27.125C9.4027 27.6528 9.79159 28.2778 10.0416 29H15.6249L12.5833 25.9583L14.9166 23.5833L21.9999 30.6667L14.9166 37.75ZM28.6666 35.6667C27.2777 35.6667 26.0971 35.1806 25.1249 34.2083C24.1527 33.2361 23.6666 32.0556 23.6666 30.6667C23.6666 29.5556 23.9791 28.5764 24.6041 27.7292C25.2291 26.8819 26.0277 26.2917 26.9999 25.9583V12.0417C26.0277 11.7083 25.2291 11.1181 24.6041 10.2708C23.9791 9.42361 23.6666 8.44444 23.6666 7.33333C23.6666 5.94444 24.1527 4.76389 25.1249 3.79167C26.0971 2.81944 27.2777 2.33333 28.6666 2.33333C30.0555 2.33333 31.236 2.81944 32.2083 3.79167C33.1805 4.76389 33.6666 5.94444 33.6666 7.33333C33.6666 8.44444 33.3541 9.42361 32.7291 10.2708C32.1041 11.1181 31.3055 11.7083 30.3333 12.0417V25.9583C31.3055 26.3194 32.1041 26.9236 32.7291 27.7708C33.3541 28.6181 33.6666 29.5833 33.6666 30.6667C33.6666 32.0556 33.1805 33.2361 32.2083 34.2083C31.236 35.1806 30.0555 35.6667 28.6666 35.6667ZM5.33325 32.3333C5.80547 32.3333 6.20131 32.1736 6.52075 31.8542C6.8402 31.5347 6.99992 31.1389 6.99992 30.6667C6.99992 30.1944 6.8402 29.7986 6.52075 29.4792C6.20131 29.1597 5.80547 29 5.33325 29C4.86103 29 4.4652 29.1597 4.14575 29.4792C3.82631 29.7986 3.66659 30.1944 3.66659 30.6667C3.66659 31.1389 3.82631 31.5347 4.14575 31.8542C4.4652 32.1736 4.86103 32.3333 5.33325 32.3333ZM28.6666 32.3333C29.1388 32.3333 29.5346 32.1736 29.8541 31.8542C30.1735 31.5347 30.3333 31.1389 30.3333 30.6667C30.3333 30.1944 30.1735 29.7986 29.8541 29.4792C29.5346 29.1597 29.1388 29 28.6666 29C28.1944 29 27.7985 29.1597 27.4791 29.4792C27.1596 29.7986 26.9999 30.1944 26.9999 30.6667C26.9999 31.1389 27.1596 31.5347 27.4791 31.8542C27.7985 32.1736 28.1944 32.3333 28.6666 32.3333ZM5.33325 9C5.80547 9 6.20131 8.84028 6.52075 8.52083C6.8402 8.20139 6.99992 7.80556 6.99992 7.33333C6.99992 6.86111 6.8402 6.46528 6.52075 6.14583C6.20131 5.82639 5.80547 5.66667 5.33325 5.66667C4.86103 5.66667 4.4652 5.82639 4.14575 6.14583C3.82631 6.46528 3.66659 6.86111 3.66659 7.33333C3.66659 7.80556 3.82631 8.20139 4.14575 8.52083C4.4652 8.84028 4.86103 9 5.33325 9ZM28.6666 9C29.1388 9 29.5346 8.84028 29.8541 8.52083C30.1735 8.20139 30.3333 7.80556 30.3333 7.33333C30.3333 6.86111 30.1735 6.46528 29.8541 6.14583C29.5346 5.82639 29.1388 5.66667 28.6666 5.66667C28.1944 5.66667 27.7985 5.82639 27.4791 6.14583C27.1596 6.46528 26.9999 6.86111 26.9999 7.33333C26.9999 7.80556 27.1596 8.20139 27.4791 8.52083C27.7985 8.84028 28.1944 9 28.6666 9Z" fill="#4B0081"/>
</svg>
