<svg width="60" height="60" viewBox="0 0 60 60" fill="none" xmlns="http://www.w3.org/2000/svg">
<rect width="60" height="60" rx="10" fill="#DC1919"/>
<mask id="mask0_2080_3958" style="mask-type:alpha" maskUnits="userSpaceOnUse" x="10" y="10" width="40" height="40">
<rect x="10" y="10" width="40" height="40" fill="#D9D9D9"/>
</mask>
<g mask="url(#mask0_2080_3958)">
<path d="M29.999 46.666C27.9157 46.666 25.9643 46.2702 24.1449 45.4785C22.3254 44.6868 20.7421 43.6174 19.3949 42.2702C18.0476 40.923 16.9782 39.3396 16.1865 37.5202C15.3949 35.7007 14.999 33.7494 14.999 31.666C14.999 29.5827 15.3949 27.6313 16.1865 25.8118C16.9782 23.9924 18.0476 22.4091 19.3949 21.0618C20.7421 19.7146 22.3254 18.6452 24.1449 17.8535C25.9643 17.0618 27.9157 16.666 29.999 16.666C32.0824 16.666 34.0337 17.0618 35.8532 17.8535C37.6726 18.6452 39.256 19.7146 40.6032 21.0618C41.9504 22.4091 43.0199 23.9924 43.8115 25.8118C44.6032 27.6313 44.999 29.5827 44.999 31.666C44.999 33.7494 44.6032 35.7007 43.8115 37.5202C43.0199 39.3396 41.9504 40.923 40.6032 42.2702C39.256 43.6174 37.6726 44.6868 35.8532 45.4785C34.0337 46.2702 32.0824 46.666 29.999 46.666ZM34.6657 38.666L36.999 36.3327L31.6657 30.9993V23.3327H28.3324V32.3327L34.6657 38.666ZM19.3324 13.916L21.6657 16.2493L14.5824 23.3327L12.249 20.9993L19.3324 13.916ZM40.6657 13.916L47.749 20.9993L45.4157 23.3327L38.3324 16.2493L40.6657 13.916ZM29.999 43.3327C33.249 43.3327 36.006 42.2007 38.2699 39.9368C40.5337 37.673 41.6657 34.916 41.6657 31.666C41.6657 28.416 40.5337 25.6591 38.2699 23.3952C36.006 21.1313 33.249 19.9993 29.999 19.9993C26.749 19.9993 23.9921 21.1313 21.7282 23.3952C19.4643 25.6591 18.3324 28.416 18.3324 31.666C18.3324 34.916 19.4643 37.673 21.7282 39.9368C23.9921 42.2007 26.749 43.3327 29.999 43.3327Z" fill="#FEF6F6"/>
</g>
</svg>
