<svg width="60" height="60" viewBox="0 0 60 60" fill="none" xmlns="http://www.w3.org/2000/svg">
<rect width="60" height="60" rx="10" fill="#561FF9"/>
<mask id="mask0_2060_431" style="mask-type:alpha" maskUnits="userSpaceOnUse" x="10" y="10" width="40" height="40">
<rect x="10" y="10" width="40" height="40" fill="#D9D9D9"/>
</mask>
<g mask="url(#mask0_2060_431)">
<path d="M13.334 19.9993V14.9993C13.334 14.0827 13.6604 13.298 14.3132 12.6452C14.9659 11.9924 15.7507 11.666 16.6673 11.666H21.6673V14.9993H16.6673V19.9993H13.334ZM21.6673 44.9993H16.6673C15.7507 44.9993 14.9659 44.673 14.3132 44.0202C13.6604 43.3674 13.334 42.5827 13.334 41.666V36.666H16.6673V41.666H21.6673V44.9993ZM43.334 19.9993V14.9993H38.334V11.666H43.334C44.2507 11.666 45.0354 11.9924 45.6882 12.6452C46.3409 13.298 46.6673 14.0827 46.6673 14.9993V19.9993H43.334ZM32.5007 24.166C31.584 24.166 30.7993 23.8396 30.1465 23.1868C29.4937 22.5341 29.1673 21.7493 29.1673 20.8327C29.1673 19.916 29.4937 19.1313 30.1465 18.4785C30.7993 17.8257 31.584 17.4993 32.5007 17.4993C33.4173 17.4993 34.202 17.8257 34.8548 18.4785C35.5076 19.1313 35.834 19.916 35.834 20.8327C35.834 21.7493 35.5076 22.5341 34.8548 23.1868C34.202 23.8396 33.4173 24.166 32.5007 24.166ZM24.6673 38.3327L26.334 29.8327L23.334 30.9993V36.666H20.0007V28.8327L26.584 25.9993C27.5562 25.5827 28.2715 25.3118 28.7298 25.1868C29.1882 25.0618 29.6118 24.9993 30.0007 24.9993C30.584 24.9993 31.1257 25.1521 31.6257 25.4577C32.1257 25.7632 32.5284 26.166 32.834 26.666L34.5007 29.3327C34.8062 29.8049 35.1395 30.2424 35.5007 30.6452C35.8618 31.048 36.2784 31.416 36.7507 31.7493L35.0423 34.7077C34.5701 34.4021 34.1187 34.0618 33.6882 33.6868C33.2576 33.3118 32.8618 32.916 32.5007 32.4993L31.334 38.3327H24.6673ZM35.0007 46.666C34.3618 46.666 33.8826 46.3882 33.5632 45.8327C33.2437 45.2771 33.2368 44.7216 33.5423 44.166L40.209 32.4993C40.5701 31.9716 41.0701 31.6799 41.709 31.6243C42.3479 31.5688 42.8201 31.8605 43.1257 32.4993L49.7923 44.166C50.1534 44.7216 50.1534 45.2771 49.7923 45.8327C49.4312 46.3882 48.9451 46.666 48.334 46.666H35.0007ZM41.6673 44.9993C41.8895 44.9993 42.084 44.916 42.2507 44.7493C42.4173 44.5827 42.5007 44.3882 42.5007 44.166C42.5007 43.9438 42.4173 43.7493 42.2507 43.5827C42.084 43.416 41.8895 43.3327 41.6673 43.3327C41.4451 43.3327 41.2507 43.416 41.084 43.5827C40.9173 43.7493 40.834 43.9438 40.834 44.166C40.834 44.3882 40.9173 44.5827 41.084 44.7493C41.2507 44.916 41.4451 44.9993 41.6673 44.9993ZM40.834 41.666H42.5007V34.9993H40.834V41.666Z" fill="#F8F6FF"/>
</g>
</svg>
