<svg width="60" height="60" viewBox="0 0 60 60" fill="none" xmlns="http://www.w3.org/2000/svg">
<rect width="60" height="60" rx="10" fill="#FEAF06"/>
<mask id="mask0_2060_421" style="mask-type:alpha" maskUnits="userSpaceOnUse" x="10" y="10" width="40" height="40">
<rect x="10" y="10" width="40" height="40" fill="#D9D9D9"/>
</mask>
<g mask="url(#mask0_2060_421)">
<path d="M18.5833 41.416C17.4444 40.0827 16.5625 38.5896 15.9375 36.9368C15.3125 35.2841 15 33.5271 15 31.666C15 27.4993 16.4583 23.9577 19.375 21.041C22.2917 18.1243 25.8333 16.666 30 16.666H30.3333L27.6667 13.9993L30 11.666L36.6667 18.3327L30 24.9993L27.625 22.6243L30.25 19.9993H30C26.7778 19.9993 24.0278 21.1382 21.75 23.416C19.4722 25.6938 18.3333 28.4438 18.3333 31.666C18.3333 33.0827 18.5625 34.416 19.0208 35.666C19.4792 36.916 20.125 38.041 20.9583 39.041L18.5833 41.416ZM28.3333 40.8327C28.3333 40.1938 28.1181 39.5618 27.6875 38.9368C27.2569 38.3118 26.7778 37.6591 26.25 36.9785C25.7222 36.298 25.2431 35.5896 24.8125 34.8535C24.3819 34.1174 24.1667 33.3327 24.1667 32.4993C24.1667 30.8882 24.7361 29.5132 25.875 28.3743C27.0139 27.2355 28.3889 26.666 30 26.666C31.6111 26.666 32.9861 27.2355 34.125 28.3743C35.2639 29.5132 35.8333 30.8882 35.8333 32.4993C35.8333 33.3327 35.6181 34.1174 35.1875 34.8535C34.7569 35.5896 34.2778 36.298 33.75 36.9785C33.2222 37.6591 32.7431 38.3118 32.3125 38.9368C31.8819 39.5618 31.6667 40.1938 31.6667 40.8327H28.3333ZM28.3333 44.9993V42.4993H31.6667V44.9993H28.3333ZM41.4167 41.416L39.0417 39.041C39.875 38.041 40.5208 36.916 40.9792 35.666C41.4375 34.416 41.6667 33.0827 41.6667 31.666C41.6667 29.8327 41.2847 28.1313 40.5208 26.5618C39.7569 24.9924 38.7083 23.6799 37.375 22.6243L39.75 20.2493C41.3611 21.6382 42.6389 23.3118 43.5833 25.2702C44.5278 27.2285 45 29.3605 45 31.666C45 33.5271 44.6875 35.2841 44.0625 36.9368C43.4375 38.5896 42.5556 40.0827 41.4167 41.416Z" fill="#FFFCF5"/>
</g>
</svg>
