<svg width="36" height="36" viewBox="0 0 36 36" fill="none" xmlns="http://www.w3.org/2000/svg">
<path d="M3.66683 32C2.75016 32 1.96544 31.6737 1.31266 31.0209C0.659885 30.3681 0.333496 29.5834 0.333496 28.6667V10.3334C0.333496 9.41671 0.659885 8.63198 1.31266 7.97921C1.96544 7.32643 2.75016 7.00004 3.66683 7.00004H10.3335V3.66671C10.3335 2.75004 10.6599 1.96532 11.3127 1.31254C11.9654 0.659763 12.7502 0.333374 13.6668 0.333374H20.3335C21.2502 0.333374 22.0349 0.659763 22.6877 1.31254C23.3404 1.96532 23.6668 2.75004 23.6668 3.66671V7.00004H30.3335C31.2502 7.00004 32.0349 7.32643 32.6877 7.97921C33.3404 8.63198 33.6668 9.41671 33.6668 10.3334V17.4584C33.1668 17.0973 32.6391 16.7848 32.0835 16.5209C31.5279 16.257 30.9446 16.0278 30.3335 15.8334V10.3334H3.66683V28.6667H15.4585C15.5418 29.25 15.6668 29.8195 15.8335 30.375C16.0002 30.9306 16.2085 31.4723 16.4585 32H3.66683ZM13.6668 7.00004H20.3335V3.66671H13.6668V7.00004ZM27.0002 35.3334C24.6946 35.3334 22.7293 34.5209 21.1043 32.8959C19.4793 31.2709 18.6668 29.3056 18.6668 27C18.6668 24.6945 19.4793 22.7292 21.1043 21.1042C22.7293 19.4792 24.6946 18.6667 27.0002 18.6667C29.3057 18.6667 31.271 19.4792 32.896 21.1042C34.521 22.7292 35.3335 24.6945 35.3335 27C35.3335 29.3056 34.521 31.2709 32.896 32.8959C31.271 34.5209 29.3057 35.3334 27.0002 35.3334ZM27.8335 26.6667V22H26.1668V27.3334L29.7502 30.9167L30.9168 29.75L27.8335 26.6667Z" fill="#6FB018"/>
</svg>
