<svg width="637" height="389" viewBox="0 0 637 389" fill="none" xmlns="http://www.w3.org/2000/svg">
<path d="M257.364 326.028C245.828 311.738 239.278 290.359 237.718 261.905C236.166 233.611 240.341 211.74 250.248 196.296C260.156 180.851 275.26 172.582 295.569 171.489C315.875 170.399 331.799 177.003 343.335 191.294C354.871 205.59 361.418 226.883 362.97 255.177C364.521 283.474 360.346 305.379 350.445 320.906C340.543 336.433 325.436 344.74 305.133 345.833C284.824 346.923 268.905 340.324 257.367 326.028H257.364Z" fill="#F2F2F2"/>
<path d="M327.092 305.114C331.575 294.8 333.222 278.707 332.022 256.843C330.814 234.819 327.418 219 321.843 209.383C316.264 199.766 307.95 195.256 296.905 195.848C285.858 196.443 278.088 201.858 273.602 212.093C269.111 222.334 267.467 238.383 268.666 260.244C269.866 282.109 273.256 297.929 278.846 307.704C284.431 317.482 292.748 322.074 303.795 321.479C314.84 320.887 322.606 315.431 327.092 305.111V305.114Z" fill="#6FB018"/>
<path d="M327.092 305.114C331.575 294.8 333.222 278.707 332.022 256.843C330.814 234.819 327.418 219 321.843 209.383C316.264 199.766 307.95 195.256 296.905 195.848C285.858 196.443 278.088 201.858 273.602 212.093C269.111 222.334 267.467 238.383 268.666 260.244C269.866 282.109 273.256 297.929 278.846 307.704C284.431 317.482 292.748 322.074 303.795 321.479C314.84 320.887 322.606 315.431 327.092 305.111V305.114Z" fill="#6FB018" stroke="#6FB018" stroke-width="2.96097" stroke-miterlimit="10"/>
<path d="M397.386 259.426H195.463V262.089H397.386V259.426Z" fill="#6FB018"/>
<path d="M532.856 260.102H508.218C508.096 260.102 507.996 260.2 507.996 260.321V261.88C507.996 262.002 508.096 262.1 508.218 262.1H532.856C532.979 262.1 533.079 262.002 533.079 261.88V260.321C533.079 260.2 532.979 260.102 532.856 260.102Z" fill="#6FB018"/>
<path d="M84.4189 260.102H59.7807C59.658 260.102 59.5586 260.2 59.5586 260.321V261.88C59.5586 262.002 59.658 262.1 59.7807 262.1H84.4189C84.5415 262.1 84.641 262.002 84.641 261.88V260.321C84.641 260.2 84.5415 260.102 84.4189 260.102Z" fill="#6FB018"/>
<path d="M511.286 301.508H486.5C486.418 301.508 486.352 301.573 486.352 301.654V302.695C486.352 302.775 486.418 302.841 486.5 302.841H511.286C511.368 302.841 511.434 302.775 511.434 302.695V301.654C511.434 301.573 511.368 301.508 511.286 301.508Z" fill="#F5F6F9"/>
<path d="M96.4857 89.1677C101.191 89.1677 105.28 85.7863 105.916 81.1742C106.029 80.3479 106.088 79.5011 106.088 78.6455C106.088 68.3753 97.676 60.0507 87.2978 60.0507C86.8714 60.0507 86.451 60.0713 86.0305 60.0976C85.1718 49.971 76.5998 42.0156 66.1446 42.0156C55.1209 42.0156 46.1817 50.8588 46.1817 61.7707C46.1817 62.2542 46.2054 62.7318 46.241 63.2094C43.1112 61.4807 39.4662 60.5547 35.5874 60.7305C25.5615 61.1847 17.3212 69.1225 16.6135 79.0294C16.6076 79.1085 16.6017 79.1876 16.5987 79.2638C16.276 84.6523 20.6789 89.1706 26.133 89.1706H96.4857V89.1677Z" fill="#F2F2F2"/>
<path d="M587.643 134.766C602.502 134.766 603.325 112.637 588.484 111.922C588.079 111.902 587.67 111.893 587.261 111.893C584.611 111.893 582.062 112.309 579.669 113.071C577.683 101.092 567.18 91.9531 554.513 91.9531C541.846 91.9531 530.885 101.502 529.241 113.868C526.171 112.411 522.73 111.594 519.097 111.594C517.069 111.594 515.097 111.849 513.219 112.327C500.227 115.638 502.954 134.769 516.37 134.769H587.649L587.643 134.766Z" fill="#F2F2F2"/>
<path d="M458.006 42.8037C472.861 42.8037 473.682 20.681 458.847 19.9661C458.441 19.9456 458.033 19.9368 457.624 19.9368C454.977 19.9368 452.425 20.3529 450.032 21.1118C448.046 9.13622 437.546 0 424.885 0C412.224 0 401.262 9.54645 399.619 21.9088C396.548 20.4525 393.108 19.635 389.478 19.635C387.449 19.635 385.48 19.8899 383.6 20.3675C370.61 23.6786 373.337 42.8008 386.75 42.8008H458.006V42.8037Z" fill="#F2F2F2"/>
<path d="M451.652 83.4531C459.445 91.596 461.577 91.6517 469.805 83.9395C461.577 91.6517 461.521 93.7614 469.314 101.904C461.521 93.7614 459.389 93.7057 451.16 101.418C459.389 93.7057 459.445 91.596 451.652 83.4531Z" fill="#FAFAFA"/>
<path d="M166.829 20.3809C174.623 28.5238 176.755 28.5794 184.983 20.8673C176.755 28.5794 176.698 30.6892 184.492 38.8321C176.698 30.6892 174.566 30.6335 166.338 38.3456C174.566 30.6335 174.623 28.5238 166.829 20.3809Z" fill="#F2F2F2"/>
<path d="M89.679 136.713C97.4723 144.856 99.6042 144.911 107.833 137.199C99.6042 144.911 99.548 147.021 107.341 155.164C99.548 147.021 97.416 146.965 89.1875 154.678C97.416 146.965 97.4723 144.856 89.679 136.713Z" fill="#FAFAFA"/>
<path d="M0.491531 116.062C8.2848 124.205 10.4167 124.261 18.6452 116.549C10.4167 124.261 10.3605 126.371 18.1537 134.514C10.3605 126.371 8.22854 126.315 0 134.027C8.22854 126.315 8.2848 124.205 0.491531 116.062Z" fill="#FAFAFA"/>
<path d="M542.57 176.885C550.363 185.028 552.495 185.083 560.723 177.371C552.495 185.083 552.439 187.193 560.232 195.336C552.439 187.193 550.307 187.137 542.078 194.85C550.307 187.137 550.363 185.028 542.57 176.885Z" fill="#FAFAFA"/>
<path d="M261.773 150.735L332.934 130.054C334.267 129.667 335.03 128.284 334.637 126.965L305.593 29.092C305.202 27.7735 303.804 27.0175 302.472 27.4072L253.749 41.5657C253.127 41.7474 252.597 42.1576 252.274 42.7172L236.161 70.5596C235.82 71.1486 235.737 71.8459 235.93 72.4964L258.646 149.05C259.037 150.368 260.435 151.124 261.767 150.735H261.773Z" fill="white"/>
<path d="M261.773 150.735L332.934 130.053C334.267 129.667 335.03 128.284 334.637 126.965L305.593 29.092C305.202 27.7735 303.804 27.0175 302.472 27.4072L253.749 41.5657C253.127 41.7474 252.597 42.1576 252.274 42.7172L236.161 70.5596C235.82 71.1486 235.737 71.8459 235.93 72.4964L258.646 149.05C259.037 150.368 260.435 151.124 261.767 150.735H261.773Z" stroke="#4B0081" stroke-width="2.36878" stroke-linecap="round" stroke-linejoin="round"/>
<path d="M253.41 43.0801L259.35 63.1018C259.767 64.5083 258.956 65.9851 257.538 66.407L236.391 72.6512" fill="white"/>
<path d="M253.41 43.0801L259.35 63.1018C259.767 64.5083 258.956 65.9851 257.538 66.407L236.391 72.6512" stroke="#4B0081" stroke-width="2.36878" stroke-linecap="round" stroke-linejoin="round"/>
<path d="M267.314 116.796L263.283 117.968C262.969 118.059 262.79 118.385 262.882 118.695L267.86 135.465C267.952 135.775 268.281 135.953 268.595 135.862L272.626 134.69C272.94 134.599 273.119 134.273 273.027 133.963L268.049 117.193C267.957 116.882 267.628 116.705 267.314 116.796Z" fill="#4B0081"/>
<path d="M289.498 115.897L285.467 117.069C285.153 117.16 284.973 117.486 285.065 117.797L288.525 129.453C288.617 129.763 288.947 129.941 289.26 129.85L293.292 128.678C293.605 128.587 293.785 128.261 293.693 127.95L290.233 116.294C290.141 115.984 289.812 115.806 289.498 115.897Z" fill="#4B0081"/>
<path d="M298.31 107.784L294.279 108.956C293.965 109.047 293.786 109.373 293.878 109.683L298.856 126.453C298.948 126.764 299.277 126.942 299.591 126.85L303.622 125.678C303.936 125.587 304.116 125.262 304.023 124.951L299.045 108.181C298.953 107.871 298.624 107.693 298.31 107.784Z" fill="#4B0081"/>
<path d="M276.129 108.679L272.097 109.85C271.784 109.942 271.604 110.267 271.696 110.578L278.191 132.459C278.283 132.769 278.613 132.947 278.926 132.856L282.958 131.684C283.271 131.593 283.451 131.267 283.359 130.957L276.864 109.076C276.772 108.765 276.443 108.587 276.129 108.679Z" fill="#4B0081"/>
<path d="M252.289 83.0725L300.076 69.1836" stroke="#4B0081" stroke-width="1.77658" stroke-linecap="round" stroke-linejoin="round"/>
<path d="M254.562 90.7385L302.353 76.8496" stroke="#4B0081" stroke-width="1.77658" stroke-linecap="round" stroke-linejoin="round"/>
<path d="M256.838 98.4095L304.628 84.5234" stroke="#4B0081" stroke-width="1.77658" stroke-linecap="round" stroke-linejoin="round"/>
<path d="M358.846 124.32L360.619 120.59C360.957 119.877 360.605 119.034 359.855 118.77L336.037 110.305L334.992 112.171L356.945 124.906C357.629 125.301 358.508 125.032 358.843 124.323L358.846 124.32Z" fill="#4B0081"/>
<path d="M318.168 123.766C328.825 123.766 337.464 115.216 337.464 104.67C337.464 94.1237 328.825 85.5742 318.168 85.5742C307.51 85.5742 298.871 94.1237 298.871 104.67C298.871 115.216 307.51 123.766 318.168 123.766Z" fill="#4B0081"/>
<path d="M318.167 119.784C326.602 119.784 333.44 113.017 333.44 104.67C333.44 96.3233 326.602 89.5566 318.167 89.5566C309.732 89.5566 302.895 96.3233 302.895 104.67C302.895 113.017 309.732 119.784 318.167 119.784Z" fill="white"/>
<path d="M318.168 123.766C328.825 123.766 337.464 115.216 337.464 104.67C337.464 94.1237 328.825 85.5742 318.168 85.5742C307.51 85.5742 298.871 94.1237 298.871 104.67C298.871 115.216 307.51 123.766 318.168 123.766Z" stroke="#4B0081" stroke-width="2.36878" stroke-linecap="round" stroke-linejoin="round"/>
<path d="M318.259 97.3418L318.141 106.666" stroke="#4B0081" stroke-width="2.36878" stroke-linecap="round" stroke-linejoin="round"/>
<ellipse cx="318.075" cy="111.992" rx="1.18439" ry="1.17206" fill="#4B0081"/>
<path d="M318.076 111.999C318.079 111.999 318.081 111.997 318.081 111.994C318.081 111.991 318.079 111.988 318.076 111.988C318.073 111.988 318.07 111.991 318.07 111.994C318.07 111.997 318.073 111.999 318.076 111.999Z" stroke="#4B0081" stroke-width="2.36878" stroke-linecap="round" stroke-linejoin="round"/>
<path d="M523.132 257.138L504.149 260.912L511.776 298.485L471.131 306.566L463.504 268.993L389.029 283.802L383.113 254.659L428.629 139.615L477.547 129.887L497.108 226.227L516.09 222.453L523.132 257.138ZM445.85 182.046L424.336 240.696L456.462 234.309L445.85 182.043V182.046Z" fill="#6FB018"/>
<path d="M209.882 276.587L190.783 273.437L184.417 311.239L143.523 304.494L149.889 266.692L74.959 254.333L79.8979 225.011L163.767 133.496L212.985 141.616L196.658 238.545L215.756 241.695L209.879 276.59L209.882 276.587ZM164.623 179.215L123.445 226.467L155.767 231.797L164.623 179.215Z" fill="#6FB018"/>
<path d="M636.523 262H12.5234V350H636.523V262Z" fill="white"/>
<path d="M142.458 308.34H117.671C117.59 308.34 117.523 308.405 117.523 308.486V309.527C117.523 309.607 117.59 309.673 117.671 309.673H142.458C142.54 309.673 142.606 309.607 142.606 309.527V308.486C142.606 308.405 142.54 308.34 142.458 308.34Z" fill="#6FB018"/>
<path d="M210.518 308.34H185.732C185.65 308.34 185.584 308.405 185.584 308.486V309.527C185.584 309.607 185.65 309.673 185.732 309.673H210.518C210.6 309.673 210.666 309.607 210.666 309.527V308.486C210.666 308.405 210.6 308.34 210.518 308.34Z" fill="#6FB018"/>
<path d="M272.466 292.521H247.679C247.598 292.521 247.531 292.587 247.531 292.668V293.708C247.531 293.789 247.598 293.855 247.679 293.855H272.466C272.547 293.855 272.614 293.789 272.614 293.708V292.668C272.614 292.587 272.547 292.521 272.466 292.521Z" fill="#6FB018"/>
<path d="M307.69 310.016H282.904C282.822 310.016 282.756 310.081 282.756 310.162V311.202C282.756 311.283 282.822 311.349 282.904 311.349H307.69C307.772 311.349 307.838 311.283 307.838 311.202V310.162C307.838 310.081 307.772 310.016 307.69 310.016Z" fill="#6FB018"/>
<path d="M394.614 310.016H369.828C369.746 310.016 369.68 310.081 369.68 310.162V311.202C369.68 311.283 369.746 311.349 369.828 311.349H394.614C394.696 311.349 394.762 311.283 394.762 311.202V310.162C394.762 310.081 394.696 310.016 394.614 310.016Z" fill="#6FB018"/>
<path d="M491.856 309.025H467.07C466.988 309.025 466.922 309.091 466.922 309.172V310.212C466.922 310.293 466.988 310.359 467.07 310.359H491.856C491.938 310.359 492.004 310.293 492.004 310.212V309.172C492.004 309.091 491.938 309.025 491.856 309.025Z" fill="#6FB018"/>
<path d="M182.938 289.959H158.152C158.07 289.959 158.004 290.025 158.004 290.105V291.146C158.004 291.227 158.07 291.292 158.152 291.292H182.938C183.02 291.292 183.086 291.227 183.086 291.146V290.105C183.086 290.025 183.02 289.959 182.938 289.959Z" fill="#6FB018"/>
<path d="M356.005 289.309H331.218C331.137 289.309 331.07 289.374 331.07 289.455V290.495C331.07 290.576 331.137 290.642 331.218 290.642H356.005C356.086 290.642 356.153 290.576 356.153 290.495V289.455C356.153 289.374 356.086 289.309 356.005 289.309Z" fill="#6FB018"/>
<path d="M532.333 289.207H507.546C507.465 289.207 507.398 289.273 507.398 289.354V290.394C507.398 290.475 507.465 290.54 507.546 290.54H532.333C532.415 290.54 532.481 290.475 532.481 290.394V289.354C532.481 289.273 532.415 289.207 532.333 289.207Z" fill="#6FB018"/>
<path d="M445.544 283H420.757C420.676 283 420.609 283.066 420.609 283.147V284.187C420.609 284.268 420.676 284.333 420.757 284.333H445.544C445.626 284.333 445.692 284.268 445.692 284.187V283.147C445.692 283.066 445.626 283 445.544 283Z" fill="#6FB018"/>
<path d="M181.12 355.72C181.12 357.213 180.76 358.613 180.04 359.92C179.347 361.227 178.24 362.28 176.72 363.08C175.227 363.88 173.333 364.28 171.04 364.28H166.36V375H160.76V347.08H171.04C173.2 347.08 175.04 347.453 176.56 348.2C178.08 348.947 179.213 349.973 179.96 351.28C180.733 352.587 181.12 354.067 181.12 355.72ZM170.8 359.76C172.347 359.76 173.493 359.413 174.24 358.72C174.987 358 175.36 357 175.36 355.72C175.36 353 173.84 351.64 170.8 351.64H166.36V359.76H170.8ZM183.656 363.84C183.656 361.6 184.096 359.613 184.976 357.88C185.883 356.147 187.096 354.813 188.616 353.88C190.163 352.947 191.883 352.48 193.776 352.48C195.429 352.48 196.869 352.813 198.096 353.48C199.349 354.147 200.349 354.987 201.096 356V352.84H206.736V375H201.096V371.76C200.376 372.8 199.376 373.667 198.096 374.36C196.843 375.027 195.389 375.36 193.736 375.36C191.869 375.36 190.163 374.88 188.616 373.92C187.096 372.96 185.883 371.613 184.976 369.88C184.096 368.12 183.656 366.107 183.656 363.84ZM201.096 363.92C201.096 362.56 200.829 361.4 200.296 360.44C199.763 359.453 199.043 358.707 198.136 358.2C197.229 357.667 196.256 357.4 195.216 357.4C194.176 357.4 193.216 357.653 192.336 358.16C191.456 358.667 190.736 359.413 190.176 360.4C189.643 361.36 189.376 362.507 189.376 363.84C189.376 365.173 189.643 366.347 190.176 367.36C190.736 368.347 191.456 369.107 192.336 369.64C193.243 370.173 194.203 370.44 195.216 370.44C196.256 370.44 197.229 370.187 198.136 369.68C199.043 369.147 199.763 368.4 200.296 367.44C200.829 366.453 201.096 365.28 201.096 363.92ZM220.885 352.48C222.539 352.48 223.992 352.813 225.245 353.48C226.499 354.12 227.485 354.96 228.205 356V352.84H233.845V375.16C233.845 377.213 233.432 379.04 232.605 380.64C231.779 382.267 230.539 383.547 228.885 384.48C227.232 385.44 225.232 385.92 222.885 385.92C219.739 385.92 217.152 385.187 215.125 383.72C213.125 382.253 211.992 380.253 211.725 377.72H217.285C217.579 378.733 218.205 379.533 219.165 380.12C220.152 380.733 221.339 381.04 222.725 381.04C224.352 381.04 225.672 380.547 226.685 379.56C227.699 378.6 228.205 377.133 228.205 375.16V371.72C227.485 372.76 226.485 373.627 225.205 374.32C223.952 375.013 222.512 375.36 220.885 375.36C219.019 375.36 217.312 374.88 215.765 373.92C214.219 372.96 212.992 371.613 212.085 369.88C211.205 368.12 210.765 366.107 210.765 363.84C210.765 361.6 211.205 359.613 212.085 357.88C212.992 356.147 214.205 354.813 215.725 353.88C217.272 352.947 218.992 352.48 220.885 352.48ZM228.205 363.92C228.205 362.56 227.939 361.4 227.405 360.44C226.872 359.453 226.152 358.707 225.245 358.2C224.339 357.667 223.365 357.4 222.325 357.4C221.285 357.4 220.325 357.653 219.445 358.16C218.565 358.667 217.845 359.413 217.285 360.4C216.752 361.36 216.485 362.507 216.485 363.84C216.485 365.173 216.752 366.347 217.285 367.36C217.845 368.347 218.565 369.107 219.445 369.64C220.352 370.173 221.312 370.44 222.325 370.44C223.365 370.44 224.339 370.187 225.245 369.68C226.152 369.147 226.872 368.4 227.405 367.44C227.939 366.453 228.205 365.28 228.205 363.92ZM259.915 363.44C259.915 364.24 259.861 364.96 259.755 365.6H243.555C243.688 367.2 244.248 368.453 245.235 369.36C246.221 370.267 247.435 370.72 248.875 370.72C250.955 370.72 252.435 369.827 253.315 368.04H259.355C258.715 370.173 257.488 371.933 255.675 373.32C253.861 374.68 251.635 375.36 248.995 375.36C246.861 375.36 244.941 374.893 243.235 373.96C241.555 373 240.235 371.653 239.275 369.92C238.341 368.187 237.875 366.187 237.875 363.92C237.875 361.627 238.341 359.613 239.275 357.88C240.208 356.147 241.515 354.813 243.195 353.88C244.875 352.947 246.808 352.48 248.995 352.48C251.101 352.48 252.981 352.933 254.635 353.84C256.315 354.747 257.608 356.04 258.515 357.72C259.448 359.373 259.915 361.28 259.915 363.44ZM254.115 361.84C254.088 360.4 253.568 359.253 252.555 358.4C251.541 357.52 250.301 357.08 248.835 357.08C247.448 357.08 246.275 357.507 245.315 358.36C244.381 359.187 243.808 360.347 243.595 361.84H254.115ZM297.413 375H291.813L279.133 355.84V375H273.533V347.04H279.133L291.813 366.24V347.04H297.413V375ZM312.788 375.36C310.654 375.36 308.734 374.893 307.028 373.96C305.321 373 303.974 371.653 302.988 369.92C302.028 368.187 301.548 366.187 301.548 363.92C301.548 361.653 302.041 359.653 303.028 357.92C304.041 356.187 305.414 354.853 307.148 353.92C308.881 352.96 310.814 352.48 312.948 352.48C315.081 352.48 317.014 352.96 318.748 353.92C320.481 354.853 321.841 356.187 322.828 357.92C323.841 359.653 324.348 361.653 324.348 363.92C324.348 366.187 323.828 368.187 322.787 369.92C321.774 371.653 320.388 373 318.628 373.96C316.894 374.893 314.948 375.36 312.788 375.36ZM312.788 370.48C313.801 370.48 314.748 370.24 315.628 369.76C316.534 369.253 317.254 368.507 317.788 367.52C318.321 366.533 318.588 365.333 318.588 363.92C318.588 361.813 318.028 360.2 316.908 359.08C315.814 357.933 314.468 357.36 312.868 357.36C311.268 357.36 309.921 357.933 308.828 359.08C307.761 360.2 307.228 361.813 307.228 363.92C307.228 366.027 307.748 367.653 308.788 368.8C309.854 369.92 311.188 370.48 312.788 370.48ZM334.975 357.44V368.16C334.975 368.907 335.149 369.453 335.495 369.8C335.869 370.12 336.482 370.28 337.335 370.28H339.935V375H336.415C331.695 375 329.335 372.707 329.335 368.12V357.44H326.695V352.84H329.335V347.36H334.975V352.84H339.935V357.44H334.975ZM370.734 347.08V351.6H359.094V358.76H368.014V363.2H359.094V375H353.494V347.08H370.734ZM384.545 375.36C382.412 375.36 380.492 374.893 378.785 373.96C377.079 373 375.732 371.653 374.745 369.92C373.785 368.187 373.305 366.187 373.305 363.92C373.305 361.653 373.799 359.653 374.785 357.92C375.799 356.187 377.172 354.853 378.905 353.92C380.639 352.96 382.572 352.48 384.705 352.48C386.839 352.48 388.772 352.96 390.505 353.92C392.239 354.853 393.599 356.187 394.585 357.92C395.599 359.653 396.105 361.653 396.105 363.92C396.105 366.187 395.585 368.187 394.545 369.92C393.532 371.653 392.145 373 390.385 373.96C388.652 374.893 386.705 375.36 384.545 375.36ZM384.545 370.48C385.559 370.48 386.505 370.24 387.385 369.76C388.292 369.253 389.012 368.507 389.545 367.52C390.079 366.533 390.345 365.333 390.345 363.92C390.345 361.813 389.785 360.2 388.665 359.08C387.572 357.933 386.225 357.36 384.625 357.36C383.025 357.36 381.679 357.933 380.585 359.08C379.519 360.2 378.985 361.813 378.985 363.92C378.985 366.027 379.505 367.653 380.545 368.8C381.612 369.92 382.945 370.48 384.545 370.48ZM421.133 352.84V375H415.493V372.2C414.773 373.16 413.826 373.92 412.653 374.48C411.506 375.013 410.253 375.28 408.893 375.28C407.16 375.28 405.626 374.92 404.293 374.2C402.96 373.453 401.906 372.373 401.133 370.96C400.386 369.52 400.013 367.813 400.013 365.84V352.84H405.613V365.04C405.613 366.8 406.053 368.16 406.933 369.12C407.813 370.053 409.013 370.52 410.533 370.52C412.08 370.52 413.293 370.053 414.173 369.12C415.053 368.16 415.493 366.8 415.493 365.04V352.84H421.133ZM438.938 352.52C441.578 352.52 443.712 353.36 445.338 355.04C446.965 356.693 447.778 359.013 447.778 362V375H442.178V362.76C442.178 361 441.738 359.653 440.858 358.72C439.978 357.76 438.778 357.28 437.258 357.28C435.712 357.28 434.485 357.76 433.578 358.72C432.698 359.653 432.258 361 432.258 362.76V375H426.658V352.84H432.258V355.6C433.005 354.64 433.952 353.893 435.098 353.36C436.272 352.8 437.552 352.52 438.938 352.52ZM451.664 363.84C451.664 361.6 452.104 359.613 452.984 357.88C453.89 356.147 455.117 354.813 456.664 353.88C458.21 352.947 459.93 352.48 461.824 352.48C463.264 352.48 464.637 352.8 465.944 353.44C467.25 354.053 468.29 354.88 469.064 355.92V345.4H474.744V375H469.064V371.72C468.37 372.813 467.397 373.693 466.144 374.36C464.89 375.027 463.437 375.36 461.784 375.36C459.917 375.36 458.21 374.88 456.664 373.92C455.117 372.96 453.89 371.613 452.984 369.88C452.104 368.12 451.664 366.107 451.664 363.84ZM469.104 363.92C469.104 362.56 468.837 361.4 468.304 360.44C467.77 359.453 467.05 358.707 466.144 358.2C465.237 357.667 464.264 357.4 463.224 357.4C462.184 357.4 461.224 357.653 460.344 358.16C459.464 358.667 458.744 359.413 458.184 360.4C457.65 361.36 457.384 362.507 457.384 363.84C457.384 365.173 457.65 366.347 458.184 367.36C458.744 368.347 459.464 369.107 460.344 369.64C461.25 370.173 462.21 370.44 463.224 370.44C464.264 370.44 465.237 370.187 466.144 369.68C467.05 369.147 467.77 368.4 468.304 367.44C468.837 366.453 469.104 365.28 469.104 363.92Z" fill="#7E7E7E"/>
</svg>
