<svg width="367" height="57" viewBox="0 0 367 57" fill="none" xmlns="http://www.w3.org/2000/svg">
<path d="M0.000469208 44.58V3.29995H13.5005C16.9805 3.29995 19.8205 3.47995 22.0205 3.83995C24.2605 4.15996 26.0205 4.75995 27.3005 5.63995C28.5805 6.51995 29.5005 7.73995 30.0605 9.29996C30.6605 10.86 31.0405 12.84 31.2005 15.24C31.3605 17.64 31.4405 20.54 31.4405 23.94C31.4405 27.34 31.3605 30.24 31.2005 32.64C31.0405 35.04 30.6605 37.02 30.0605 38.58C29.5005 40.14 28.5805 41.36 27.3005 42.24C26.0205 43.12 24.2605 43.74 22.0205 44.1C19.8205 44.42 16.9805 44.58 13.5005 44.58H0.000469208ZM6.78047 38.82H12.9005C15.1405 38.82 16.9805 38.78 18.4205 38.7C19.9005 38.58 21.0605 38.3 21.9005 37.86C22.7405 37.38 23.3605 36.62 23.7605 35.58C24.1605 34.54 24.4005 33.08 24.4805 31.2C24.6005 29.28 24.6605 26.86 24.6605 23.94C24.6605 21.02 24.6005 18.62 24.4805 16.74C24.4005 14.86 24.1405 13.4 23.7005 12.36C23.3005 11.28 22.6605 10.52 21.7805 10.08C20.9405 9.59995 19.8005 9.31995 18.3605 9.23995C16.9205 9.11995 15.1005 9.05996 12.9005 9.05996H6.78047V38.82ZM40.3533 44.58V-4.57764e-05H46.7133V17.76H47.1333C47.6133 16.84 48.2533 16.08 49.0533 15.48C49.8533 14.84 50.8533 14.36 52.0533 14.04C53.2933 13.72 54.7933 13.56 56.5533 13.56C58.7133 13.56 60.4533 13.8 61.7733 14.28C63.1333 14.76 64.1533 15.5 64.8333 16.5C65.5133 17.5 65.9733 18.74 66.2133 20.22C66.4933 21.7 66.6333 23.44 66.6333 25.44V44.58H60.2133V27.96C60.2133 25.96 60.1333 24.38 59.9733 23.22C59.8533 22.02 59.5733 21.14 59.1333 20.58C58.6933 19.98 58.0333 19.6 57.1533 19.44C56.3133 19.28 55.1733 19.2 53.7333 19.2C52.1333 19.2 50.8533 19.4 49.8933 19.8C48.9733 20.2 48.2733 20.8 47.7933 21.6C47.3533 22.4 47.0533 23.4 46.8933 24.6C46.7733 25.8 46.7133 27.2 46.7133 28.8V44.58H40.3533ZM83.8955 45.06C81.8155 45.06 80.0555 44.78 78.6155 44.22C77.2155 43.66 76.1555 42.74 75.4355 41.46C74.7155 40.14 74.3555 38.36 74.3555 36.12C74.3555 33.76 74.6355 31.9 75.1955 30.54C75.7555 29.14 76.7155 28.14 78.0755 27.54C79.4355 26.94 81.3555 26.64 83.8355 26.64C84.2355 26.64 84.8155 26.66 85.5755 26.7C86.3755 26.7 87.2755 26.72 88.2755 26.76C89.3155 26.76 90.3355 26.78 91.3355 26.82C92.3755 26.82 93.3155 26.84 94.1555 26.88V25.44C94.1555 23.88 94.0555 22.66 93.8555 21.78C93.6555 20.9 93.2355 20.26 92.5955 19.86C91.9955 19.42 91.1155 19.14 89.9555 19.02C88.7955 18.9 87.2955 18.84 85.4555 18.84C84.5755 18.84 83.5355 18.88 82.3355 18.96C81.1755 19 80.0355 19.06 78.9155 19.14C77.7955 19.22 76.9355 19.32 76.3355 19.44V14.4C77.9755 14.08 79.7755 13.86 81.7355 13.74C83.6955 13.58 85.6555 13.5 87.6155 13.5C89.8955 13.5 91.7955 13.64 93.3155 13.92C94.8755 14.2 96.1355 14.64 97.0955 15.24C98.0555 15.84 98.7755 16.62 99.2555 17.58C99.7355 18.54 100.075 19.7 100.275 21.06C100.475 22.38 100.575 23.9 100.575 25.62V44.58H94.6955L94.4555 40.62H94.0955C93.4155 41.9 92.4955 42.88 91.3355 43.56C90.2155 44.2 88.9955 44.6 87.6755 44.76C86.3555 44.96 85.0955 45.06 83.8955 45.06ZM86.7155 39.9C87.7155 39.9 88.6155 39.84 89.4155 39.72C90.2555 39.56 90.9755 39.32 91.5755 39C92.2155 38.64 92.7155 38.16 93.0755 37.56C93.4355 36.88 93.6955 36.1 93.8555 35.22C94.0555 34.34 94.1555 33.3 94.1555 32.1V31.02H85.3955C84.0755 31.02 83.0555 31.12 82.3355 31.32C81.6555 31.52 81.1955 31.94 80.9555 32.58C80.7155 33.22 80.5955 34.2 80.5955 35.52C80.5955 36.76 80.7355 37.7 81.0155 38.34C81.2955 38.94 81.8755 39.36 82.7555 39.6C83.6755 39.8 84.9955 39.9 86.7155 39.9ZM112.547 44.58V19.32H106.427V13.98H112.547V5.09995H118.907V13.98H126.047V19.32H118.907V44.58H112.547ZM142.248 45.06C140.128 45.06 138.388 44.82 137.028 44.34C135.708 43.82 134.688 43.06 133.968 42.06C133.288 41.06 132.828 39.82 132.588 38.34C132.348 36.86 132.228 35.12 132.228 33.12V13.98H138.588V30.6C138.588 32.6 138.648 34.2 138.768 35.4C138.928 36.56 139.228 37.44 139.668 38.04C140.108 38.6 140.748 38.96 141.588 39.12C142.468 39.28 143.628 39.36 145.068 39.36C146.668 39.36 147.948 39.16 148.908 38.76C149.868 38.36 150.568 37.76 151.008 36.96C151.488 36.16 151.788 35.16 151.908 33.96C152.028 32.76 152.088 31.36 152.088 29.76V13.98H158.508V44.58H152.628L152.388 40.5H151.968C151.528 41.46 150.888 42.28 150.048 42.96C149.248 43.64 148.208 44.16 146.928 44.52C145.648 44.88 144.088 45.06 142.248 45.06Z" fill="#4B0081"/>
<path d="M184.29 45.06C181.33 45.06 178.85 44.88 176.85 44.52C174.85 44.12 173.21 43.46 171.93 42.54C170.69 41.62 169.73 40.38 169.05 38.82C168.41 37.22 167.97 35.2 167.73 32.76C167.49 30.32 167.37 27.38 167.37 23.94C167.37 20.5 167.49 17.56 167.73 15.12C167.97 12.68 168.41 10.68 169.05 9.11995C169.73 7.51995 170.69 6.25995 171.93 5.33995C173.21 4.41995 174.85 3.77995 176.85 3.41995C178.85 3.01995 181.33 2.81995 184.29 2.81995C185.45 2.81995 186.63 2.85995 187.83 2.93996C189.07 3.01995 190.25 3.13995 191.37 3.29995C192.49 3.41995 193.45 3.57995 194.25 3.77996V9.17995C193.25 9.05995 192.25 8.95995 191.25 8.87995C190.29 8.75995 189.35 8.67995 188.43 8.63995C187.51 8.59995 186.71 8.57995 186.03 8.57995C183.83 8.57995 182.01 8.65995 180.57 8.81996C179.13 8.97996 177.97 9.33996 177.09 9.89996C176.25 10.46 175.61 11.3 175.17 12.42C174.77 13.5 174.49 14.98 174.33 16.86C174.21 18.74 174.15 21.1 174.15 23.94C174.15 26.74 174.21 29.1 174.33 31.02C174.49 32.9 174.77 34.4 175.17 35.52C175.61 36.6 176.25 37.42 177.09 37.98C177.97 38.54 179.13 38.9 180.57 39.06C182.01 39.22 183.83 39.3 186.03 39.3C187.35 39.3 188.79 39.24 190.35 39.12C191.95 39 193.33 38.86 194.49 38.7V44.22C193.61 44.38 192.57 44.52 191.37 44.64C190.21 44.76 189.01 44.86 187.77 44.94C186.57 45.02 185.41 45.06 184.29 45.06ZM214.845 45.06C212.285 45.06 210.145 44.9 208.425 44.58C206.745 44.26 205.405 43.76 204.405 43.08C203.445 42.36 202.725 41.4 202.245 40.2C201.805 39 201.505 37.5 201.345 35.7C201.225 33.9 201.165 31.74 201.165 29.22C201.165 26.74 201.225 24.6 201.345 22.8C201.505 21 201.805 19.5 202.245 18.3C202.725 17.1 203.445 16.16 204.405 15.48C205.405 14.76 206.745 14.26 208.425 13.98C210.145 13.66 212.285 13.5 214.845 13.5C217.445 13.5 219.585 13.66 221.265 13.98C222.985 14.26 224.325 14.76 225.285 15.48C226.285 16.16 227.005 17.1 227.445 18.3C227.925 19.5 228.225 21 228.345 22.8C228.505 24.6 228.585 26.74 228.585 29.22C228.585 31.74 228.505 33.9 228.345 35.7C228.225 37.5 227.925 39 227.445 40.2C227.005 41.4 226.285 42.36 225.285 43.08C224.325 43.76 222.985 44.26 221.265 44.58C219.585 44.9 217.445 45.06 214.845 45.06ZM214.845 39.72C216.685 39.72 218.105 39.6 219.105 39.36C220.105 39.12 220.805 38.64 221.205 37.92C221.645 37.2 221.905 36.14 221.985 34.74C222.105 33.34 222.165 31.5 222.165 29.22C222.165 26.94 222.105 25.12 221.985 23.76C221.905 22.36 221.645 21.3 221.205 20.58C220.805 19.86 220.105 19.4 219.105 19.2C218.105 18.96 216.685 18.84 214.845 18.84C213.045 18.84 211.645 18.96 210.645 19.2C209.645 19.4 208.925 19.86 208.485 20.58C208.085 21.3 207.825 22.36 207.705 23.76C207.625 25.12 207.585 26.94 207.585 29.22C207.585 31.5 207.625 33.34 207.705 34.74C207.825 36.14 208.085 37.2 208.485 37.92C208.925 38.64 209.645 39.12 210.645 39.36C211.645 39.6 213.045 39.72 214.845 39.72ZM236.877 44.58V13.98H242.757L242.937 18.06H243.357C243.797 17.1 244.397 16.28 245.157 15.6C245.957 14.92 246.937 14.4 248.097 14.04C249.297 13.68 250.737 13.5 252.417 13.5C254.977 13.5 256.897 13.88 258.177 14.64C259.457 15.36 260.357 16.5 260.877 18.06H261.357C261.797 17.1 262.417 16.28 263.217 15.6C264.057 14.92 265.077 14.4 266.277 14.04C267.517 13.68 268.977 13.5 270.657 13.5C273.297 13.5 275.277 13.94 276.597 14.82C277.917 15.7 278.797 17.04 279.237 18.84C279.677 20.6 279.897 22.8 279.897 25.44V44.58H273.537V27.96C273.537 25.96 273.477 24.38 273.357 23.22C273.237 22.02 272.977 21.14 272.577 20.58C272.217 19.98 271.637 19.6 270.837 19.44C270.077 19.28 269.077 19.2 267.837 19.2C266.397 19.2 265.257 19.4 264.417 19.8C263.577 20.16 262.957 20.74 262.557 21.54C262.157 22.3 261.897 23.28 261.777 24.48C261.657 25.68 261.597 27.12 261.597 28.8V44.58H255.237V27.96C255.237 25.96 255.157 24.38 254.997 23.22C254.877 22.02 254.617 21.14 254.217 20.58C253.857 19.98 253.297 19.6 252.537 19.44C251.777 19.28 250.757 19.2 249.477 19.2C248.077 19.2 246.957 19.4 246.117 19.8C245.277 20.2 244.637 20.8 244.197 21.6C243.797 22.36 243.537 23.36 243.417 24.6C243.297 25.8 243.237 27.2 243.237 28.8V44.58H236.877ZM289.435 56.52V13.98H295.315L295.495 18.06H295.915C296.555 16.78 297.375 15.82 298.375 15.18C299.375 14.5 300.475 14.06 301.675 13.86C302.915 13.62 304.175 13.5 305.455 13.5C307.495 13.5 309.195 13.76 310.555 14.28C311.955 14.76 313.075 15.6 313.915 16.8C314.755 17.96 315.375 19.56 315.775 21.6C316.175 23.64 316.375 26.18 316.375 29.22C316.375 32.3 316.175 34.86 315.775 36.9C315.415 38.94 314.815 40.56 313.975 41.76C313.175 42.92 312.095 43.76 310.735 44.28C309.375 44.8 307.675 45.06 305.635 45.06C304.195 45.06 302.875 44.94 301.675 44.7C300.475 44.46 299.415 44.06 298.495 43.5C297.575 42.9 296.815 42.06 296.215 40.98H295.795V56.52H289.435ZM302.815 39.36C304.415 39.36 305.675 39.26 306.595 39.06C307.555 38.82 308.275 38.38 308.755 37.74C309.235 37.06 309.555 36.06 309.715 34.74C309.875 33.38 309.955 31.56 309.955 29.28C309.955 27 309.875 25.2 309.715 23.88C309.555 22.52 309.235 21.5 308.755 20.82C308.275 20.14 307.555 19.7 306.595 19.5C305.675 19.26 304.415 19.14 302.815 19.14C301.135 19.14 299.815 19.38 298.855 19.86C297.895 20.34 297.175 21.06 296.695 22.02C296.295 22.86 296.035 23.9 295.915 25.14C295.835 26.34 295.795 27.72 295.795 29.28C295.795 30.88 295.835 32.28 295.915 33.48C296.035 34.64 296.275 35.62 296.635 36.42C297.115 37.46 297.835 38.22 298.795 38.7C299.795 39.14 301.135 39.36 302.815 39.36ZM324.65 44.58V-4.57764e-05H331.01V44.58H324.65ZM352.59 56.94C351.43 56.94 350.21 56.9 348.93 56.82C347.69 56.78 346.49 56.72 345.33 56.64C344.21 56.56 343.21 56.46 342.33 56.34V51.36C343.77 51.4 345.01 51.44 346.05 51.48C347.13 51.52 348.09 51.54 348.93 51.54C349.77 51.58 350.51 51.6 351.15 51.6C353.31 51.6 355.01 51.46 356.25 51.18C357.49 50.9 358.41 50.42 359.01 49.74C359.61 49.06 359.97 48.12 360.09 46.92C360.25 45.76 360.33 44.28 360.33 42.48V40.62H359.97C359.57 41.5 358.97 42.26 358.17 42.9C357.41 43.5 356.39 43.98 355.11 44.34C353.87 44.66 352.33 44.82 350.49 44.82C348.37 44.82 346.63 44.58 345.27 44.1C343.95 43.58 342.93 42.84 342.21 41.88C341.53 40.88 341.07 39.64 340.83 38.16C340.59 36.68 340.47 34.96 340.47 33V13.98H346.83V30.48C346.83 32.48 346.89 34.08 347.01 35.28C347.17 36.44 347.47 37.3 347.91 37.86C348.35 38.42 348.99 38.8 349.83 39C350.71 39.16 351.87 39.24 353.31 39.24C354.91 39.24 356.19 39.04 357.15 38.64C358.11 38.24 358.81 37.64 359.25 36.84C359.73 36.04 360.03 35.04 360.15 33.84C360.27 32.64 360.33 31.24 360.33 29.64V13.98H366.75V40.98C366.75 43.82 366.59 46.24 366.27 48.24C365.99 50.28 365.37 51.94 364.41 53.22C363.49 54.5 362.09 55.44 360.21 56.04C358.33 56.64 355.79 56.94 352.59 56.94Z" fill="#6FB018"/>
</svg>
