<svg width="399" height="256" viewBox="0 0 399 256" fill="none" xmlns="http://www.w3.org/2000/svg">
<path fill-rule="evenodd" clip-rule="evenodd" d="M72.3091 186.21C71.7726 198.626 45.5886 217.877 51.604 250.725L398.537 255.153C393.031 228.235 372.669 212.811 370.946 199.186C367.896 171.448 395.348 151.694 391.154 135.092C386.96 118.49 351.882 116.808 346.544 109.033C341.207 101.257 343.875 67.0042 334.726 58.8074C325.576 50.6107 307.083 56.4964 278.679 41.3664C245.89 23.503 253.385 4.254 227.12 0.669514C196.503 -3.50846 197.285 12.7082 171.48 25.9692C154.302 34.7968 115.248 17.6054 104.371 30.835C95.0974 42.1152 107.429 61.4113 97.8624 73.7231C90.2846 83.4763 61.3768 64.1704 48.7073 86.9763C32.1585 116.766 73.2053 165.497 72.3111 186.21" fill="#EDECFF"/>
<path d="M82.8008 123.922H17.2148V247.382H82.8008V123.922Z" fill="#F1F1F1"/>
<path fill-rule="evenodd" clip-rule="evenodd" d="M58.654 116.823H27.4941V254.547H87.4302V156.142C71.4375 155.366 58.654 138.061 58.654 116.823Z" fill="#6F79E7"/>
<path d="M34.4319 116.823H0V254.547H34.4319V116.823Z" fill="#7E88FC"/>
<path d="M30.9873 121.742H3.44336V208.558H30.9873V121.742Z" fill="white"/>
<path fill-rule="evenodd" clip-rule="evenodd" d="M17.2145 222.172C22.9863 222.172 27.6673 226.851 27.6673 232.625C27.6673 238.399 22.9882 243.078 17.2145 243.078C11.4408 243.078 6.76172 238.399 6.76172 232.625C6.76172 226.851 11.4408 222.172 17.2145 222.172Z" fill="#3B47C6"/>
<path d="M126.824 123.922H61.2383V247.382H126.824V123.922Z" fill="#F1F1F1"/>
<path fill-rule="evenodd" clip-rule="evenodd" d="M102.674 116.823H71.5137V254.547H131.45V156.142C115.457 155.366 102.674 138.061 102.674 116.823Z" fill="#E7AD4B"/>
<path d="M78.4534 116.823H44.0215V254.547H78.4534V116.823Z" fill="#FFC35C"/>
<path d="M75.0088 121.742H47.4648V208.558H75.0088V121.742Z" fill="white"/>
<path fill-rule="evenodd" clip-rule="evenodd" d="M61.236 222.172C67.0077 222.172 71.6888 226.851 71.6888 232.625C71.6888 238.399 67.0097 243.078 61.236 243.078C55.4623 243.078 50.7832 238.399 50.7832 232.625C50.7832 226.851 55.4623 222.172 61.236 222.172Z" fill="#C89134"/>
<path fill-rule="evenodd" clip-rule="evenodd" d="M314.338 228.268H321.405C325.994 228.268 329.969 224.515 330.24 219.926L338.72 76.3816C338.991 71.7929 335.46 68.0394 330.871 68.0394H82.8044C78.2158 68.0394 74.2402 71.7929 73.969 76.3816L65.4892 219.926C65.218 224.515 68.7495 228.268 73.3382 228.268H314.336H314.338Z" fill="white"/>
<path d="M321.405 228.75H73.3402C70.9899 228.75 68.8262 227.828 67.2481 226.154C65.6662 224.476 64.8703 222.253 65.0098 219.897L73.4896 76.3523C73.7765 71.5022 77.9564 67.5562 82.8065 67.5562H330.871C333.222 67.5562 335.385 68.4778 336.965 70.1522C338.547 71.8304 339.343 74.053 339.204 76.4093L330.724 219.954C330.437 224.804 326.259 228.75 321.407 228.75H321.405ZM82.8045 68.5211C78.4556 68.5211 74.7099 72.0584 74.4525 76.4073L65.9727 219.952C65.8489 222.039 66.5505 224.006 67.9497 225.488C69.343 226.968 71.2591 227.781 73.3402 227.781H321.405C325.754 227.781 329.5 224.244 329.757 219.895L338.237 76.3484C338.361 74.2613 337.657 72.2942 336.26 70.8125C334.866 69.3327 332.952 68.5191 330.869 68.5191H82.8045V68.5211Z" fill="#9186FF"/>
<path fill-rule="evenodd" clip-rule="evenodd" d="M82.8044 68.0394H323.802C328.391 68.0394 331.923 71.7929 331.651 76.3816L323.172 219.926C322.9 224.515 318.925 228.268 314.336 228.268H73.3382C68.7495 228.268 65.218 224.515 65.4892 219.926L73.969 76.3816C74.2402 71.7929 78.2157 68.0394 82.8044 68.0394Z" fill="white"/>
<path d="M314.336 228.75H73.3383C70.9879 228.75 68.8242 227.828 67.2462 226.154C65.6642 224.476 64.8683 222.253 65.0079 219.899L73.4876 76.3541C73.7745 71.5041 77.9525 67.558 82.8045 67.558H323.803C326.153 67.558 328.317 68.4797 329.895 70.154C331.477 71.8323 332.272 74.0549 332.133 76.4092L323.653 219.954C323.366 224.804 319.188 228.75 314.336 228.75ZM82.8045 68.5229C78.4556 68.5229 74.708 72.0622 74.4525 76.4111L65.9728 219.956C65.849 222.043 66.5505 224.01 67.9497 225.494C69.345 226.973 71.2591 227.787 73.3402 227.787H314.338C318.687 227.787 322.435 224.25 322.692 219.899L331.172 76.3541C331.296 74.2671 330.594 72.3 329.195 70.8163C327.802 69.3365 325.886 68.5229 323.804 68.5229H82.8045Z" fill="#9186FF"/>
<mask id="mask0_2553_3556" style="mask-type:luminance" maskUnits="userSpaceOnUse" x="72" y="75" width="253" height="138">
<path d="M81.5974 75.4701H324.136C324.47 75.4701 324.728 75.7432 324.708 76.0773L316.657 212.376C316.637 212.71 316.346 212.984 316.012 212.984H73.4733C73.1392 212.984 72.8818 212.71 72.9014 212.376L80.9528 76.0773C80.9724 75.7432 81.2613 75.4701 81.5974 75.4701Z" fill="white"/>
</mask>
<g mask="url(#mask0_2553_3556)">
<path d="M324.727 75.4701H72.8809V212.984H324.727V75.4701Z" fill="url(#paint0_linear_2553_3556)"/>
</g>
<path fill-rule="evenodd" clip-rule="evenodd" d="M222.514 228.269L231.241 248.944H172.923L164.195 228.269H222.514Z" fill="#434EAC"/>
<path fill-rule="evenodd" clip-rule="evenodd" d="M125.111 254.547H230.427L230.437 254.397C230.712 250.056 227.776 246.517 223.905 246.517H132.646C128.774 246.517 125.398 250.056 125.121 254.397L125.111 254.547Z" fill="#6570D5"/>
<path fill-rule="evenodd" clip-rule="evenodd" d="M183.625 254.547H236.899C238.135 254.547 239.196 253.977 239.878 252.946C240.56 251.916 240.67 250.715 240.187 249.577L231.141 228.269H222.418L230.164 246.517H191.158C187.286 246.517 183.912 250.059 183.633 254.398L183.623 254.547H183.625Z" fill="#2D357D"/>
<path fill-rule="evenodd" clip-rule="evenodd" d="M127.387 212.983H252.689L253.333 202.104L253.337 202.049L258.468 115.475L262.436 48.5313L263.1 37.3258H148.733H137.798L137.154 48.2051H137.158C137.148 48.3151 137.14 48.4232 137.134 48.5313L136.892 52.6071L127.387 212.983Z" fill="white"/>
<path d="M253.167 213.492H126.848L126.879 212.954L136.626 48.5017C136.63 48.4369 136.634 48.372 136.64 48.3091L136.646 48.1755L137.318 36.8168H263.638L262.94 48.5803L253.166 213.492H253.167ZM127.925 212.476H252.208L252.806 202.409H252.802L252.829 202.014L262.561 37.8347H148.225H138.277L137.688 47.7864H137.701L137.666 48.2522C137.656 48.3543 137.648 48.4585 137.642 48.5627L127.927 212.476H127.925Z" fill="#9186FF"/>
<path d="M166.374 77.034H145.948L144.737 97.4601H165.163L166.374 77.034ZM146.596 75.1317H168.388L166.951 99.3624H142.721L144.157 75.1317H146.596Z" fill="#CBCDFF"/>
<path d="M164.336 111.388H143.91L142.7 131.814H163.126L164.336 111.388ZM144.561 109.485H166.353L164.916 133.716H140.686L142.122 109.485H144.561Z" fill="#CBCDFF"/>
<path d="M162.299 145.741H141.873L140.663 166.167H161.089L162.299 145.741ZM142.524 143.839H164.316L162.879 168.069H138.648L140.085 143.839H142.524Z" fill="#CBCDFF"/>
<path d="M160.264 180.094H139.838L138.628 200.52H159.054L160.264 180.094ZM140.489 178.192H162.281L160.844 202.422H136.613L138.05 178.192H140.489Z" fill="#CBCDFF"/>
<path fill-rule="evenodd" clip-rule="evenodd" d="M245.43 254.547V249.447H351.178C360.267 249.447 367.725 242.986 367.725 235.109C367.725 227.233 360.267 220.771 351.178 220.771H245.43V215.672H378.94C389.631 215.672 398.38 224.419 398.38 235.109C398.38 245.8 389.633 254.549 378.94 254.549H245.43V254.547Z" fill="#FFC35C"/>
<path fill-rule="evenodd" clip-rule="evenodd" d="M353.387 254.547H245.43V249.447H351.178C360.267 249.447 367.725 242.986 367.725 235.109C367.725 227.233 360.267 220.771 351.178 220.771H245.43V215.672H353.387C364.077 215.672 372.826 224.419 372.826 235.109C372.826 245.8 364.079 254.549 353.387 254.549" fill="#E7AD4B"/>
<path fill-rule="evenodd" clip-rule="evenodd" d="M250.109 220.769V249.445H353.336C361.24 249.445 367.725 242.984 367.725 235.107C367.725 227.231 361.24 220.769 353.336 220.769H250.109Z" fill="white"/>
<path fill-rule="evenodd" clip-rule="evenodd" d="M250.109 220.769V224.055H362.469C359.979 222.005 356.793 220.769 353.336 220.769H250.109Z" fill="#C1C9FF"/>
<path fill-rule="evenodd" clip-rule="evenodd" d="M376.672 215.67H369.297C375.145 220.164 378.911 227.2 378.911 235.108C378.911 243.015 375.145 250.053 369.297 254.547H376.672C381.892 250.053 385.252 243.017 385.252 235.108C385.252 227.198 381.892 220.162 376.672 215.67Z" fill="#E7AD4B"/>
<path fill-rule="evenodd" clip-rule="evenodd" d="M359.549 248.027C364.371 245.702 367.724 240.771 367.724 235.107C367.724 229.444 364.371 224.513 359.549 222.188C361.253 226.152 362.693 230.519 362.693 235.107C362.693 239.696 361.255 244.063 359.549 248.027Z" fill="#969698"/>
<path fill-rule="evenodd" clip-rule="evenodd" d="M270.415 187.485C267.974 195.25 268.006 202.841 270.425 210.609H392.567C390.519 203.497 390.537 195.788 392.567 187.485H270.413H270.415Z" fill="#F1EEEE"/>
<path fill-rule="evenodd" clip-rule="evenodd" d="M268.255 182.427C263.547 193.509 263.606 204.588 268.255 215.668H393.565C394.351 215.668 394.994 215.027 394.994 214.239V212.036C394.994 211.25 394.353 210.608 393.565 210.608H299.433C296.747 202.839 296.713 195.248 299.421 187.483H393.565C394.351 187.483 394.994 186.843 394.994 186.055V183.852C394.994 183.066 394.353 182.423 393.565 182.423H268.255V182.427Z" fill="#AAB4F4"/>
<path fill-rule="evenodd" clip-rule="evenodd" d="M366.198 182.427H268.255C263.547 193.509 263.606 204.588 268.255 215.668H366.198C366.984 215.668 367.627 215.027 367.627 214.239V212.036C367.627 211.25 366.986 210.608 366.198 210.608H272.066C269.38 202.839 269.346 195.248 272.054 187.483H366.198C366.984 187.483 367.627 186.843 367.627 186.055V183.852C367.627 183.066 366.986 182.423 366.198 182.423" fill="#C1C9FF"/>
<path fill-rule="evenodd" clip-rule="evenodd" d="M365.192 187.485H270.417C267.976 195.25 268.008 202.841 270.427 210.609H365.192C363.144 203.497 363.162 195.788 365.192 187.485Z" fill="white"/>
<path d="M308.337 195.34H274.148V197.274H308.337V195.34Z" fill="#DFDFDF"/>
<path fill-rule="evenodd" clip-rule="evenodd" d="M278.459 195.047H288.494V202.572L283.476 200.253L278.459 202.572V195.047Z" fill="#D9332D"/>
<path d="M353.437 229.615H252.836V231.199H353.437V229.615Z" fill="#EDECFF"/>
<path d="M353.437 233.993H252.836V235.577H353.437V233.993Z" fill="#EDECFF"/>
<path d="M353.437 238.371H252.836V239.955H353.437V238.371Z" fill="#EDECFF"/>
<path d="M353.437 242.75H252.836V244.334H353.437V242.75Z" fill="#EDECFF"/>
<path fill-rule="evenodd" clip-rule="evenodd" d="M338.798 215.124C338.878 215.287 338.943 216.026 343.614 213.701C344.153 213.208 344.937 212.604 345.065 212.563C345.192 212.522 345.475 212.785 345.475 212.785C346.087 212.557 347.822 211.832 347.779 211.441C347.686 210.614 346.688 209.847 345.859 209.812L345.697 209.879C345.764 210.012 345.67 210.606 345.057 210.857C344.444 211.109 343.561 211.071 343.233 210.902C342.927 211.138 341.836 213.113 340.625 213.846C339.415 214.579 338.745 214.593 338.796 215.124" fill="#0C3684"/>
<path fill-rule="evenodd" clip-rule="evenodd" d="M343.248 210.995L339.453 203.234L343.148 201.073L345.905 209.865C346.064 210.535 345.873 210.928 345.237 211.26C344.551 211.618 343.775 211.409 343.248 210.995Z" fill="#F99F97"/>
<path fill-rule="evenodd" clip-rule="evenodd" d="M356.455 143.661C356.473 144.186 357.056 145.835 357.732 145.919C358.408 146.004 360.778 144.041 360.878 143.703C360.878 143.663 360.878 143.618 360.877 143.573C361.861 143.803 365.426 144.874 367.354 145.636L366.526 154.21L366.43 154.077C366.507 162.287 366.576 165.868 366.697 173.98C363.655 174.721 352.074 177.069 349.805 175.368C351.318 160.135 349.569 153.018 351.131 144.911C352.306 143.85 355.327 143.6 356.474 143.431L356.453 143.663L356.455 143.661Z" fill="#3B86FF"/>
<path fill-rule="evenodd" clip-rule="evenodd" d="M346.644 206.522C344.384 207.292 343.875 207.608 341.682 208.518C340.517 206.131 335.779 196.951 333.562 191.991C331.811 188.072 330.544 185.333 329.475 181.082C326.564 170.637 341.747 170.333 350.192 169.867C351.667 171.284 361.047 172.508 363.289 172.945C357.091 180.79 339.9 179.353 340.175 183.293C340.489 187.786 342.164 191.36 343.335 194.013C343.708 194.856 344.703 195.065 344.811 195.709C344.868 196.051 344.001 197.228 343.958 197.741C343.873 198.808 345.957 199.146 345.957 200.373C345.957 203.971 344.587 202.505 346.642 206.522" fill="#082E75"/>
<path fill-rule="evenodd" clip-rule="evenodd" d="M340.316 157.222C341.057 157.962 344.027 161.531 348.442 157.589C352.858 153.647 348.138 154.036 348.138 154.036L344.5 154.582L342.629 153.529L340.318 157.222H340.316Z" fill="#FFA180"/>
<path fill-rule="evenodd" clip-rule="evenodd" d="M351.132 144.912C350.031 145.928 344.556 152.499 343.658 154.14C344.623 155.308 347.832 158.063 348.39 158.452C349.693 157.182 352.963 152.957 353.588 151.772L351.13 144.912H351.132Z" fill="#3B86FF"/>
<path fill-rule="evenodd" clip-rule="evenodd" d="M327.924 144.418C329.592 147.975 336.258 153.306 339.589 156.563C344.02 160.896 345.111 156.189 344.408 155.317C343.767 154.548 342.963 153.733 342.415 153.275C337.14 148.867 329.211 144.278 328.926 143.542C329.625 140.977 328.165 140.399 328.246 142.276C327.875 140.918 326.175 140.154 325.528 140.405C325.029 140.6 324.972 141.653 327.926 144.418" fill="#FFA180"/>
<path fill-rule="evenodd" clip-rule="evenodd" d="M356.744 140.454C355.575 140.006 354.702 138.892 354.539 137.512C354.425 136.55 354.58 135.557 354.765 134.783C354.84 134.464 354.92 134.183 354.989 133.956C356.15 133.956 357.339 132.727 358.581 133.162C359.935 133.737 358.827 136.223 359.403 137.442C359.462 136.901 359.978 135.632 360.841 136.072C361.704 136.512 361.307 138.035 359.912 138.668L360.841 140.301C360.841 140.301 360.865 142.608 360.882 143.571C360.882 143.618 360.882 143.662 360.884 143.701C360.782 144.039 358.414 146.002 357.738 145.918C357.062 145.833 356.479 144.184 356.461 143.66L356.482 143.428L356.748 140.452L356.744 140.454Z" fill="#FFA180"/>
<path fill-rule="evenodd" clip-rule="evenodd" d="M358.578 133.164C357.338 132.73 356.147 133.956 354.986 133.958C354.917 134.186 354.837 134.467 354.762 134.785C353.984 134.4 353.158 133.349 353.074 132.203C352.94 130.393 354.253 128.501 355.76 128.707C357.268 128.913 357.391 130.132 357.562 130.171C358.563 130.399 360.87 129.511 362.54 131.761C364.686 134.65 364.087 138.547 360.834 140.305L359.905 138.672C361.3 138.038 361.699 136.515 360.834 136.076C359.972 135.636 359.455 136.906 359.396 137.446C358.82 136.228 359.928 133.742 358.574 133.166" fill="#C37F5C"/>
<path fill-rule="evenodd" clip-rule="evenodd" d="M311.253 211.6C311.202 211.775 310.75 212.362 315.759 213.819C316.488 213.82 317.475 213.907 317.597 213.964C317.719 214.021 317.748 214.406 317.748 214.406C318.353 214.652 320.12 215.296 320.352 214.978C320.843 214.306 320.631 213.068 320.045 212.478L319.88 212.417C319.839 212.561 319.367 212.934 318.746 212.704C318.125 212.474 317.5 211.849 317.375 211.502C316.989 211.468 314.849 212.182 313.462 211.899C312.075 211.618 311.573 211.173 311.251 211.598" fill="#0C3684"/>
<path fill-rule="evenodd" clip-rule="evenodd" d="M317.324 211.58L319.793 203.301L323.974 204.214L320.044 212.549C319.708 213.15 319.299 213.309 318.606 213.123C317.857 212.92 317.43 212.242 317.322 211.58" fill="#F99F97"/>
<path d="M184.236 88.4295H171.95C171.88 88.4295 171.832 88.0082 171.843 87.4887C171.855 86.9692 171.92 86.548 171.991 86.548H184.276C184.347 86.548 184.395 86.9692 184.383 87.4887C184.372 88.0082 184.306 88.4295 184.236 88.4295Z" fill="#CBCDFF"/>
<path d="M181.138 95.3283H171.923C171.871 95.3283 171.835 94.907 171.843 94.3875C171.851 93.868 171.901 93.4468 171.953 93.4468H181.168C181.22 93.4468 181.256 93.868 181.248 94.3875C181.24 94.907 181.19 95.3283 181.138 95.3283Z" fill="#CBCDFF"/>
<path d="M216.301 81.0739H173.43C173.185 81.0739 173.018 80.6526 173.056 80.1331C173.095 79.6136 173.325 79.1924 173.57 79.1924H216.442C216.687 79.1924 216.854 79.6136 216.815 80.1331C216.776 80.6526 216.546 81.0739 216.301 81.0739Z" fill="#CBCDFF"/>
<path d="M179.876 123.55H170.048C169.992 123.55 169.953 123.129 169.962 122.61C169.971 122.09 170.024 121.669 170.08 121.669H179.909C179.965 121.669 180.003 122.09 179.994 122.61C179.985 123.129 179.933 123.55 179.876 123.55Z" fill="#CBCDFF"/>
<path d="M181.116 130.449H170.059C169.995 130.449 169.952 130.028 169.962 129.508C169.972 128.989 170.032 128.568 170.095 128.568H181.152C181.215 128.568 181.258 128.989 181.248 129.508C181.238 130.028 181.179 130.449 181.116 130.449Z" fill="#CBCDFF"/>
<path d="M178.651 116.024H171.28C171.238 116.024 171.209 115.603 171.216 115.084C171.222 114.564 171.262 114.143 171.304 114.143H178.676C178.718 114.143 178.746 114.564 178.74 115.084C178.733 115.603 178.694 116.024 178.651 116.024Z" fill="#CBCDFF"/>
<path d="M187.282 158.044H167.625C167.513 158.044 167.436 157.623 167.454 157.103C167.472 156.584 167.577 156.163 167.689 156.163H187.347C187.459 156.163 187.536 156.584 187.518 157.103C187.5 157.623 187.394 158.044 187.282 158.044Z" fill="#CBCDFF"/>
<path d="M175.507 164.316H167.522C167.476 164.316 167.445 163.894 167.452 163.375C167.459 162.855 167.502 162.434 167.548 162.434H175.534C175.579 162.434 175.61 162.855 175.603 163.375C175.596 163.894 175.553 164.316 175.507 164.316Z" fill="#CBCDFF"/>
<path d="M178.621 149.891H168.792C168.736 149.891 168.697 149.47 168.706 148.95C168.715 148.431 168.768 148.01 168.824 148.01H178.653C178.709 148.01 178.747 148.431 178.738 148.95C178.729 149.47 178.677 149.891 178.621 149.891Z" fill="#CBCDFF"/>
<path d="M182.915 192.538H165.101C164.999 192.538 164.93 192.117 164.946 191.597C164.962 191.078 165.057 190.656 165.159 190.656H182.974C183.075 190.656 183.145 191.078 183.129 191.597C183.113 192.117 183.017 192.538 182.915 192.538Z" fill="#CBCDFF"/>
<path d="M178.577 198.809H165.063C164.986 198.809 164.933 198.388 164.945 197.869C164.957 197.349 165.03 196.928 165.107 196.928H178.621C178.699 196.928 178.751 197.349 178.739 197.869C178.727 198.388 178.654 198.809 178.577 198.809Z" fill="#CBCDFF"/>
<path d="M175.493 184.385H166.279C166.226 184.385 166.19 183.964 166.198 183.444C166.207 182.925 166.256 182.503 166.309 182.503H175.523C175.576 182.503 175.612 182.925 175.603 183.444C175.595 183.964 175.546 184.385 175.493 184.385Z" fill="#CBCDFF"/>
<path fill-rule="evenodd" clip-rule="evenodd" d="M358.836 183.936C353.249 184.85 339.485 182.056 336.466 183.981C331.86 186.921 331.451 195.297 329.407 198.628C328.682 199.811 327.326 200.809 326.65 201.955C326.226 202.672 326.874 204.997 326.414 205.63C325.946 206.271 325.027 206.677 324.687 207.265C324.416 207.735 324.83 208.54 324.6 208.927C324.14 209.694 323.677 209.452 323.321 210.515C321.318 209.387 319.528 209.743 317.803 208.939C319.003 204.991 325.589 177.909 327.695 174.423C330.107 170.433 352.74 171.894 357.106 171.894C360.864 172.623 365.083 172.947 366.694 172.424C366.875 174.006 366.573 182.354 358.836 183.934" fill="#0F419D"/>
<path fill-rule="evenodd" clip-rule="evenodd" d="M369.286 150.125C369.162 152.619 366.022 158.308 364.951 159.841C364.913 159.833 364.876 159.823 364.835 159.813C363.65 159.511 361.207 158.522 359.857 157.929C359.436 157.744 359.122 157.599 358.984 157.522C359.399 156.231 360.8 153.232 361.81 151.338C362.121 150.789 364.581 145.092 366.621 145.528C368.087 145.843 369.408 147.633 369.286 150.125Z" fill="#3B86FF"/>
<path fill-rule="evenodd" clip-rule="evenodd" d="M340.979 162.679C342.075 162.681 355.576 162.921 357.504 162.812C358.035 162.429 359.271 159.14 359.86 157.929C361.21 158.522 363.655 159.511 364.838 159.814C363.804 161.999 360.937 166.933 359.789 167.468C355.619 169.406 345.043 165.456 340.495 164.493C339.768 164.74 336.296 165.536 335.095 162.317C334.694 160.832 338.941 161.468 339.666 162.425C339.025 161.295 339.22 160.558 339.629 160.35C339.967 160.26 340.468 160.942 340.979 162.679Z" fill="#FFA180"/>
<path fill-rule="evenodd" clip-rule="evenodd" d="M354.068 171.567H348.379V172.554H354.561V172.061C354.561 171.789 354.339 171.567 354.068 171.567Z" fill="#B79C4A"/>
<path fill-rule="evenodd" clip-rule="evenodd" d="M349.137 172.554L345.225 161.356H327.416L331.248 172.554H349.137Z" fill="#B79C4A"/>
<path fill-rule="evenodd" clip-rule="evenodd" d="M186.737 253.771C186.145 255.15 174.928 254.787 174.743 254.211C174.387 253.099 175.063 251.515 175.961 250.965L176.178 250.951C176.178 251.163 176.612 251.863 177.429 251.812C178.247 251.761 179.202 251.177 179.471 250.76C179.941 250.876 182.244 252.729 183.989 252.93C185.736 253.128 186.499 253.065 186.737 253.773" fill="white"/>
<path fill-rule="evenodd" clip-rule="evenodd" d="M179.506 250.841L179.895 246.305L175.707 246.675L175.939 250.974C176.124 251.59 176.55 251.835 177.438 251.853C178.395 251.873 179.144 251.391 179.508 250.839" fill="#F99F97"/>
<path fill-rule="evenodd" clip-rule="evenodd" d="M197.219 253.771C196.627 255.15 185.41 254.787 185.226 254.211C184.87 253.099 185.546 251.515 186.444 250.965L186.66 250.951C186.66 251.163 187.094 251.863 187.912 251.812C188.729 251.761 189.684 251.177 189.954 250.76C190.423 250.876 192.727 252.729 194.474 252.93C196.221 253.128 196.983 253.065 197.221 253.773" fill="white"/>
<path fill-rule="evenodd" clip-rule="evenodd" d="M189.988 250.841L190.377 246.305L186.189 246.675L186.421 250.974C186.606 251.59 187.033 251.835 187.921 251.853C188.878 251.873 189.627 251.391 189.99 250.839" fill="#F99F97"/>
<path d="M183.147 159.311H178.547V166.438H183.147V159.311Z" fill="#E5A485"/>
<path fill-rule="evenodd" clip-rule="evenodd" d="M183.508 160.014C183.591 159.481 183.379 158.711 183.664 157.939C183.565 157.117 183.829 156.306 184.157 156.192C184.97 156.04 185.047 157.219 184.976 157.886C185.181 157.455 185.257 156.813 185.283 156.2C185.316 155.4 185.259 154.655 185.283 154.511C185.332 154.217 186.118 153.657 186.48 152.788C186.908 151.76 186.906 150.416 186.71 150.206C186.108 149.62 185.308 150.823 184.638 150.711C183.968 150.599 183.795 148.944 182.952 148.928C182.109 148.913 181.068 150.52 180.399 150.569C179.987 150.599 179.885 149.913 179.23 149.974C178.234 150.066 176.296 153.311 176.241 156.268C176.202 158.42 177.46 159.715 177.868 160.35C178.277 160.987 178.082 161.8 178.405 161.936C178.727 162.073 179.236 161.333 179.499 161.346C180.081 161.386 180.299 162.013 180.688 162.022C181.077 162.032 181.278 161.411 181.573 161.266C181.867 161.12 183.398 161.002 183.504 160.016" fill="#2D357D"/>
<path fill-rule="evenodd" clip-rule="evenodd" d="M176.809 247.681C178.217 247.527 179.769 247.398 180.465 247.688C181.048 235.438 182.925 218.655 183.32 209.574C184.784 213.695 186.502 217.867 186.907 221.77C187.628 228.734 184.073 235.98 184.118 236.666C184.163 237.352 185.004 236.927 185.038 238.482C185.057 239.399 184.281 240.683 184.161 241.526C184.089 242.037 184.955 241.761 184.865 242.294C184.541 244.173 184.049 246.625 184.21 246.824C184.342 246.987 184.82 246.81 185.169 246.989C185.535 247.176 185.443 247.445 185.849 247.555C186.555 247.745 189.654 246.511 191.098 248.502C192.14 241.089 194.443 224.234 194.219 221.516C193.93 218.016 191.837 200.17 191.54 198.359C189.827 197.223 187.842 197.728 185.551 197.798C183.257 197.871 181.316 195.248 177.301 196.362C175.196 196.946 173.913 198.131 173.062 198.899C172.345 207.147 174.337 218.38 174.491 224.753C174.671 232.222 172.317 234.84 172.523 235.489C172.732 236.139 173.805 236.237 173.938 236.707C174.345 238.309 172.305 243.167 172.427 244.222C172.549 245.277 173.555 246.315 173.852 246.631C174.149 246.948 173.535 247.525 174.068 247.84C174.308 247.981 175.495 247.82 176.808 247.679" fill="#FFC35C"/>
<path fill-rule="evenodd" clip-rule="evenodd" d="M194.312 170.05C194.342 170.327 194.423 171.45 194.566 171.453C195.012 171.465 196.506 171.852 196.541 170.927C196.496 169.993 197.056 165.703 197.443 163.876C197.465 163.776 197.852 163.663 197.871 163.579C197.974 163.058 198.147 161.47 198.133 161.227C198.119 160.983 196.692 160.68 196.512 160.578C196.781 159.446 197.026 157.729 196.873 157.652C195.676 157.053 194.407 168.967 194.314 170.052" fill="#DF9A7B"/>
<path fill-rule="evenodd" clip-rule="evenodd" d="M181.392 202.863C181.261 202.128 180.952 199.294 181.561 196.499C180.4 196.1 179.046 195.878 177.301 196.362C175.196 196.945 173.913 198.13 173.062 198.899C172.345 207.147 174.337 218.38 174.491 224.753C174.671 232.222 172.317 234.84 172.523 235.489C172.732 236.139 173.805 236.237 173.938 236.707C174.345 238.309 172.305 243.166 172.427 244.222C172.549 245.277 173.555 246.315 173.852 246.631C174.149 246.947 173.535 247.525 174.068 247.84C174.308 247.981 175.495 247.82 176.808 247.679C178.215 247.525 179.767 247.396 180.463 247.686C181.046 235.435 182.923 218.653 183.318 209.572C182.51 207.3 181.781 205.044 181.39 202.859" fill="#E7AD4B"/>
<path fill-rule="evenodd" clip-rule="evenodd" d="M184.141 159.118C184.709 158.701 184.901 158.065 184.976 157.888C185.047 157.222 184.968 156.041 184.157 156.192C183.828 156.306 183.565 157.117 183.663 157.939C183.715 158.361 183.86 158.786 184.141 159.118Z" fill="#E5A485"/>
<path fill-rule="evenodd" clip-rule="evenodd" d="M196.874 180.468C197.042 177.868 196.987 168.443 197.586 166.481L194.605 166.495C194.273 167.556 192.03 177.807 192.357 180.253L196.876 180.47L196.874 180.468Z" fill="#4186E6"/>
<path fill-rule="evenodd" clip-rule="evenodd" d="M174.191 165.259C171.753 167.285 166.348 182.169 167.433 185.87C168.518 189.57 174.7 198.696 174.7 198.696L174.191 165.259Z" fill="#2C71D0"/>
<path fill-rule="evenodd" clip-rule="evenodd" d="M184.976 157.887C184.901 158.064 184.709 158.701 184.141 159.117C183.856 158.781 183.712 158.357 183.663 157.938C183.378 158.713 183.589 159.481 183.508 160.014C183.479 160.287 183.339 160.493 183.148 160.652V161.674C184.039 161.55 186.499 160.126 185.285 156.201C185.259 156.806 185.184 157.443 184.986 157.874C184.984 157.879 184.982 157.883 184.98 157.889" fill="#DF9A7B"/>
<path fill-rule="evenodd" clip-rule="evenodd" d="M171.845 205.559C174.109 204.834 188.661 202.256 193.845 204.268C193.181 202.621 190.025 185.222 189.997 177.394C190.581 179.33 191.115 180.989 191.341 181.238C192.937 183.001 195.712 182.649 196.875 180.468C196.417 179.279 192.876 166.485 192.041 165.355C191.265 164.306 188.69 163.711 185.89 163.451C179.403 162.852 177.506 163.889 174.191 165.257C171.021 171.85 171.853 202.448 171.845 205.557" fill="#4186E6"/>
<path fill-rule="evenodd" clip-rule="evenodd" d="M190.602 185.406C190.472 182.674 190.067 179.823 190.057 177.396C189.305 174.896 188.47 171.936 188.114 170.95C188.047 171.75 189.301 181.159 190.602 185.408" fill="#2C71D0"/>
<path d="M35.1666 230.324H34.748V147.881H35.1666V230.324ZM35.3887 143.021H34.9701V125.829H35.3887V143.021Z" fill="#2D357D"/>
<defs>
<linearGradient id="paint0_linear_2553_3556" x1="226.401" y1="201.916" x2="116.518" y2="-27.7844" gradientUnits="userSpaceOnUse">
<stop stop-color="#8275FF"/>
<stop offset="1" stop-color="#CBCDFF"/>
</linearGradient>
</defs>
</svg>
