<svg width="730" height="543" viewBox="0 0 730 543" fill="none" xmlns="http://www.w3.org/2000/svg">
<path d="M376.11 101.643L365.351 68.0079L349.56 70.3537C347.465 67.482 345.155 64.8077 342.661 62.3453L347.612 47.0391L316.24 30.8678L306.48 44.0381C303.151 43.5105 299.767 43.2376 296.351 43.2305L288.879 28.5938L255.27 39.3609L257.681 55.6201C254.904 57.6105 252.308 59.8002 249.904 62.164L234.318 57.1134L218.159 88.5101L231.072 98.0926C230.471 101.548 230.141 105.067 230.101 108.623L215.885 115.892L226.644 149.527L242.003 147.245C244.147 150.323 246.538 153.184 249.133 155.814L244.384 170.495L275.757 186.667L284.761 174.516C288.531 175.182 292.378 175.523 296.265 175.517L303.117 188.943L336.726 178.175L334.515 163.264C337.682 161.01 340.616 158.495 343.299 155.764L357.681 160.423L373.839 129.026L361.454 119.833C362.04 116.184 362.326 112.465 362.286 108.713L376.11 101.643ZM307.909 146.011C287.692 152.488 266.051 141.333 259.58 121.1C253.107 100.867 264.254 79.2093 284.471 72.7336C304.688 66.2562 326.328 77.4109 332.8 97.6439C339.273 117.877 328.127 139.533 307.909 146.011Z" fill="#DDD2FE"/>
<path d="M347.509 104.181L340.59 82.5513L330.435 84.0589C329.089 82.2121 327.602 80.4926 325.998 78.9078L329.184 69.065L309.009 58.6659L302.734 67.1356C300.594 66.7964 298.417 66.6205 296.22 66.6151L291.416 57.2031L269.803 64.1275L271.353 74.5823C269.566 75.862 267.897 77.271 266.351 78.7912L256.327 75.5425L245.936 95.7324L254.24 101.894C253.854 104.116 253.642 106.379 253.616 108.666L244.473 113.34L251.392 134.969L261.268 133.503C262.647 135.482 264.184 137.322 265.854 139.013L262.8 148.453L282.974 158.852L288.765 151.038C291.19 151.465 293.663 151.686 296.163 151.682L300.569 160.315L322.182 153.393L320.76 143.803C322.797 142.353 324.684 140.737 326.407 138.98L335.656 141.978L346.047 121.788L338.083 115.876C338.459 113.53 338.642 111.137 338.619 108.725L347.509 104.181ZM303.652 132.713C290.652 136.879 276.735 129.705 272.574 116.694C268.411 103.683 275.58 89.7557 288.58 85.5917C301.581 81.4277 315.498 88.5998 319.659 101.61C323.821 114.621 316.653 128.547 303.652 132.713Z" fill="#F8F6FF"/>
<path d="M260.566 159.699V101.062L234.409 96.7711C232.547 91.1694 230.248 85.7706 227.551 80.6123L243.123 58.9184L201.693 17.4564L179.6 33.3387C174.603 30.8188 169.39 28.6722 163.991 26.9294L159.579 0H100.988L96.5763 26.9294C91.1798 28.6722 85.9645 30.8188 80.968 33.3387L58.8748 17.4564L17.4447 58.9166L33.0153 80.6105C30.318 85.7706 28.017 91.1694 26.1572 96.7692L0 101.061V159.697L25.4398 163.87C27.2763 169.824 29.6078 175.56 32.3804 181.032L17.4447 201.843L58.8748 243.305L79.2589 228.652C84.8831 231.614 90.7943 234.103 96.9421 236.063L100.988 260.763H159.579L163.625 236.063C169.773 234.103 175.685 231.614 181.307 228.652L201.691 243.305L243.121 201.843L228.185 181.032C230.958 175.56 233.29 169.824 235.126 163.87L260.566 159.699ZM130.284 195.308C95.0375 195.308 66.461 166.71 66.461 131.436C66.461 96.1626 95.0375 67.564 130.284 67.564C165.53 67.564 194.107 96.1626 194.107 131.436C194.107 166.708 165.53 195.308 130.284 195.308Z" fill="#A78BFC"/>
<path d="M130.293 212.96C84.7938 212.96 47.7773 175.915 47.7773 130.38C47.7773 84.846 84.7938 47.801 130.293 47.801C175.792 47.801 212.809 84.846 212.809 130.38C212.811 175.915 175.794 212.96 130.293 212.96ZM130.293 74.752C99.6434 74.752 74.7093 99.7071 74.7093 130.379C74.7093 161.052 99.6434 186.005 130.293 186.005C160.943 186.005 185.877 161.05 185.877 130.379C185.877 99.7071 160.943 74.752 130.293 74.752Z" fill="#DDD2FE"/>
<path d="M680.698 216.124V171.9L660.971 168.664C659.566 164.439 657.832 160.368 655.798 156.475L667.542 140.112L636.295 108.841L619.632 120.819C615.864 118.919 611.931 117.3 607.86 115.986L604.533 95.6758H560.343L557.016 115.986C552.945 117.3 549.012 118.919 545.244 120.819L528.581 108.841L497.334 140.112L509.078 156.475C507.044 160.366 505.308 164.439 503.905 168.664L484.178 171.9V216.124L503.364 219.272C504.748 223.763 506.506 228.088 508.599 232.216L497.334 247.912L528.581 279.183L543.955 268.131C548.196 270.365 552.655 272.242 557.291 273.72L560.343 292.348H604.533L607.584 273.72C612.222 272.241 616.678 270.365 620.92 268.131L636.293 279.183L667.54 247.912L656.275 232.216C658.367 228.088 660.124 223.763 661.51 219.272L680.698 216.124ZM582.438 242.982C555.856 242.982 534.302 221.412 534.302 194.809C534.302 168.206 555.856 146.636 582.438 146.636C609.02 146.636 630.574 168.206 630.574 194.809C630.574 221.412 609.02 242.982 582.438 242.982Z" fill="#DDD2FE"/>
<path d="M582.441 256.3C548.123 256.3 520.205 228.36 520.205 194.016C520.205 159.672 548.123 131.732 582.441 131.732C616.758 131.732 644.676 159.672 644.676 194.016C644.676 228.36 616.758 256.3 582.441 256.3ZM582.441 152.061C559.325 152.061 540.517 170.881 540.517 194.016C540.517 217.151 559.323 235.972 582.441 235.972C605.556 235.972 624.362 217.151 624.362 194.016C624.362 170.881 605.558 152.061 582.441 152.061Z" fill="#A78BFC"/>
<path d="M589.155 505.98H135.385C126.24 505.98 118.826 498.561 118.826 489.409V189.65C118.826 180.498 126.24 173.078 135.385 173.078H589.155C598.3 173.078 605.714 180.498 605.714 189.65V489.409C605.714 498.561 598.302 505.98 589.155 505.98Z" fill="#E9E9FF"/>
<path d="M578.767 199.115H145.771V494.822H578.767V199.115Z" fill="#02165C"/>
<path d="M667.967 490.132V506.944C667.967 514.624 661.208 520.856 652.873 520.856H71.6619C63.3296 520.856 56.5684 514.626 56.5684 506.944V490.132C56.5684 482.452 63.3278 476.221 71.6619 476.221H652.873C661.208 476.221 667.967 482.451 667.967 490.132Z" fill="#A78BFC"/>
<path d="M245.802 333.4V316.84L283.722 262.6H306.642V315.64H316.482V333.4H306.642V349H286.122V333.4H245.802ZM287.562 285.16L267.402 315.64H287.562V285.16ZM326.533 304C326.533 290.24 329.173 279.4 334.453 271.48C339.813 263.56 348.413 259.6 360.253 259.6C372.093 259.6 380.653 263.56 385.933 271.48C391.293 279.4 393.973 290.24 393.973 304C393.973 317.92 391.293 328.84 385.933 336.76C380.653 344.68 372.093 348.64 360.253 348.64C348.413 348.64 339.813 344.68 334.453 336.76C329.173 328.84 326.533 317.92 326.533 304ZM373.813 304C373.813 295.92 372.933 289.72 371.173 285.4C369.413 281 365.773 278.8 360.253 278.8C354.733 278.8 351.093 281 349.333 285.4C347.573 289.72 346.693 295.92 346.693 304C346.693 309.44 347.013 313.96 347.653 317.56C348.293 321.08 349.573 323.96 351.493 326.2C353.493 328.36 356.413 329.44 360.253 329.44C364.093 329.44 366.973 328.36 368.893 326.2C370.893 323.96 372.213 321.08 372.853 317.56C373.493 313.96 373.813 309.44 373.813 304ZM405.294 333.4V316.84L443.214 262.6H466.134V315.64H475.974V333.4H466.134V349H445.614V333.4H405.294ZM447.054 285.16L426.894 315.64H447.054V285.16Z" fill="white"/>
<path d="M245.578 399.612C245.578 400.881 245.272 402.071 244.66 403.182C244.07 404.293 243.13 405.188 241.838 405.868C240.568 406.548 238.959 406.888 237.01 406.888H233.032V416H228.272V392.268H237.01C238.846 392.268 240.41 392.585 241.702 393.22C242.994 393.855 243.957 394.727 244.592 395.838C245.249 396.949 245.578 398.207 245.578 399.612ZM236.806 403.046C238.12 403.046 239.095 402.751 239.73 402.162C240.364 401.55 240.682 400.7 240.682 399.612C240.682 397.3 239.39 396.144 236.806 396.144H233.032V403.046H236.806ZM247.733 406.514C247.733 404.61 248.107 402.921 248.855 401.448C249.626 399.975 250.657 398.841 251.949 398.048C253.264 397.255 254.726 396.858 256.335 396.858C257.741 396.858 258.965 397.141 260.007 397.708C261.073 398.275 261.923 398.989 262.557 399.85V397.164H267.351V416H262.557V413.246C261.945 414.13 261.095 414.867 260.007 415.456C258.942 416.023 257.707 416.306 256.301 416.306C254.715 416.306 253.264 415.898 251.949 415.082C250.657 414.266 249.626 413.121 248.855 411.648C248.107 410.152 247.733 408.441 247.733 406.514ZM262.557 406.582C262.557 405.426 262.331 404.44 261.877 403.624C261.424 402.785 260.812 402.151 260.041 401.72C259.271 401.267 258.443 401.04 257.559 401.04C256.675 401.04 255.859 401.255 255.111 401.686C254.363 402.117 253.751 402.751 253.275 403.59C252.822 404.406 252.595 405.381 252.595 406.514C252.595 407.647 252.822 408.645 253.275 409.506C253.751 410.345 254.363 410.991 255.111 411.444C255.882 411.897 256.698 412.124 257.559 412.124C258.443 412.124 259.271 411.909 260.041 411.478C260.812 411.025 261.424 410.39 261.877 409.574C262.331 408.735 262.557 407.738 262.557 406.582ZM279.378 396.858C280.784 396.858 282.019 397.141 283.084 397.708C284.15 398.252 284.988 398.966 285.6 399.85V397.164H290.394V416.136C290.394 417.881 290.043 419.434 289.34 420.794C288.638 422.177 287.584 423.265 286.178 424.058C284.773 424.874 283.073 425.282 281.078 425.282C278.404 425.282 276.205 424.659 274.482 423.412C272.782 422.165 271.819 420.465 271.592 418.312H276.318C276.568 419.173 277.1 419.853 277.916 420.352C278.755 420.873 279.764 421.134 280.942 421.134C282.325 421.134 283.447 420.715 284.308 419.876C285.17 419.06 285.6 417.813 285.6 416.136V413.212C284.988 414.096 284.138 414.833 283.05 415.422C281.985 416.011 280.761 416.306 279.378 416.306C277.792 416.306 276.341 415.898 275.026 415.082C273.712 414.266 272.669 413.121 271.898 411.648C271.15 410.152 270.776 408.441 270.776 406.514C270.776 404.61 271.15 402.921 271.898 401.448C272.669 399.975 273.7 398.841 274.992 398.048C276.307 397.255 277.769 396.858 279.378 396.858ZM285.6 406.582C285.6 405.426 285.374 404.44 284.92 403.624C284.467 402.785 283.855 402.151 283.084 401.72C282.314 401.267 281.486 401.04 280.602 401.04C279.718 401.04 278.902 401.255 278.154 401.686C277.406 402.117 276.794 402.751 276.318 403.59C275.865 404.406 275.638 405.381 275.638 406.514C275.638 407.647 275.865 408.645 276.318 409.506C276.794 410.345 277.406 410.991 278.154 411.444C278.925 411.897 279.741 412.124 280.602 412.124C281.486 412.124 282.314 411.909 283.084 411.478C283.855 411.025 284.467 410.39 284.92 409.574C285.374 408.735 285.6 407.738 285.6 406.582ZM312.553 406.174C312.553 406.854 312.508 407.466 312.417 408.01H298.647C298.761 409.37 299.237 410.435 300.075 411.206C300.914 411.977 301.945 412.362 303.169 412.362C304.937 412.362 306.195 411.603 306.943 410.084H312.077C311.533 411.897 310.491 413.393 308.949 414.572C307.408 415.728 305.515 416.306 303.271 416.306C301.458 416.306 299.826 415.909 298.375 415.116C296.947 414.3 295.825 413.155 295.009 411.682C294.216 410.209 293.819 408.509 293.819 406.582C293.819 404.633 294.216 402.921 295.009 401.448C295.803 399.975 296.913 398.841 298.341 398.048C299.769 397.255 301.413 396.858 303.271 396.858C305.062 396.858 306.66 397.243 308.065 398.014C309.493 398.785 310.593 399.884 311.363 401.312C312.157 402.717 312.553 404.338 312.553 406.174ZM307.623 404.814C307.601 403.59 307.159 402.615 306.297 401.89C305.436 401.142 304.382 400.768 303.135 400.768C301.957 400.768 300.959 401.131 300.143 401.856C299.35 402.559 298.863 403.545 298.681 404.814H307.623ZM344.427 416H339.667L328.889 399.714V416H324.129V392.234H328.889L339.667 408.554V392.234H344.427V416ZM357.495 416.306C355.682 416.306 354.05 415.909 352.599 415.116C351.148 414.3 350.004 413.155 349.165 411.682C348.349 410.209 347.941 408.509 347.941 406.582C347.941 404.655 348.36 402.955 349.199 401.482C350.06 400.009 351.228 398.875 352.701 398.082C354.174 397.266 355.818 396.858 357.631 396.858C359.444 396.858 361.088 397.266 362.561 398.082C364.034 398.875 365.19 400.009 366.029 401.482C366.89 402.955 367.321 404.655 367.321 406.582C367.321 408.509 366.879 410.209 365.995 411.682C365.134 413.155 363.955 414.3 362.459 415.116C360.986 415.909 359.331 416.306 357.495 416.306ZM357.495 412.158C358.356 412.158 359.161 411.954 359.909 411.546C360.68 411.115 361.292 410.481 361.745 409.642C362.198 408.803 362.425 407.783 362.425 406.582C362.425 404.791 361.949 403.42 360.997 402.468C360.068 401.493 358.923 401.006 357.563 401.006C356.203 401.006 355.058 401.493 354.129 402.468C353.222 403.42 352.769 404.791 352.769 406.582C352.769 408.373 353.211 409.755 354.095 410.73C355.002 411.682 356.135 412.158 357.495 412.158ZM376.355 401.074V410.186C376.355 410.821 376.502 411.285 376.797 411.58C377.114 411.852 377.635 411.988 378.361 411.988H380.571V416H377.579C373.567 416 371.561 414.051 371.561 410.152V401.074H369.317V397.164H371.561V392.506H376.355V397.164H380.571V401.074H376.355ZM406.75 392.268V396.11H396.856V402.196H404.438V405.97H396.856V416H392.096V392.268H406.75ZM418.489 416.306C416.676 416.306 415.044 415.909 413.593 415.116C412.143 414.3 410.998 413.155 410.159 411.682C409.343 410.209 408.935 408.509 408.935 406.582C408.935 404.655 409.355 402.955 410.193 401.482C411.055 400.009 412.222 398.875 413.695 398.082C415.169 397.266 416.812 396.858 418.625 396.858C420.439 396.858 422.082 397.266 423.555 398.082C425.029 398.875 426.185 400.009 427.023 401.482C427.885 402.955 428.315 404.655 428.315 406.582C428.315 408.509 427.873 410.209 426.989 411.682C426.128 413.155 424.949 414.3 423.453 415.116C421.98 415.909 420.325 416.306 418.489 416.306ZM418.489 412.158C419.351 412.158 420.155 411.954 420.903 411.546C421.674 411.115 422.286 410.481 422.739 409.642C423.193 408.803 423.419 407.783 423.419 406.582C423.419 404.791 422.943 403.42 421.991 402.468C421.062 401.493 419.917 401.006 418.557 401.006C417.197 401.006 416.053 401.493 415.123 402.468C414.217 403.42 413.763 404.791 413.763 406.582C413.763 408.373 414.205 409.755 415.089 410.73C415.996 411.682 417.129 412.158 418.489 412.158ZM449.589 397.164V416H444.795V413.62C444.183 414.436 443.378 415.082 442.381 415.558C441.406 416.011 440.341 416.238 439.185 416.238C437.712 416.238 436.408 415.932 435.275 415.32C434.142 414.685 433.246 413.767 432.589 412.566C431.954 411.342 431.637 409.891 431.637 408.214V397.164H436.397V407.534C436.397 409.03 436.771 410.186 437.519 411.002C438.267 411.795 439.287 412.192 440.579 412.192C441.894 412.192 442.925 411.795 443.673 411.002C444.421 410.186 444.795 409.03 444.795 407.534V397.164H449.589ZM464.723 396.892C466.967 396.892 468.781 397.606 470.163 399.034C471.546 400.439 472.237 402.411 472.237 404.95V416H467.477V405.596C467.477 404.1 467.103 402.955 466.355 402.162C465.607 401.346 464.587 400.938 463.295 400.938C461.981 400.938 460.938 401.346 460.167 402.162C459.419 402.955 459.045 404.1 459.045 405.596V416H454.285V397.164H459.045V399.51C459.68 398.694 460.485 398.059 461.459 397.606C462.457 397.13 463.545 396.892 464.723 396.892ZM475.54 406.514C475.54 404.61 475.914 402.921 476.662 401.448C477.433 399.975 478.475 398.841 479.79 398.048C481.105 397.255 482.567 396.858 484.176 396.858C485.4 396.858 486.567 397.13 487.678 397.674C488.789 398.195 489.673 398.898 490.33 399.782V390.84H495.158V416H490.33V413.212C489.741 414.141 488.913 414.889 487.848 415.456C486.783 416.023 485.547 416.306 484.142 416.306C482.555 416.306 481.105 415.898 479.79 415.082C478.475 414.266 477.433 413.121 476.662 411.648C475.914 410.152 475.54 408.441 475.54 406.514ZM490.364 406.582C490.364 405.426 490.137 404.44 489.684 403.624C489.231 402.785 488.619 402.151 487.848 401.72C487.077 401.267 486.25 401.04 485.366 401.04C484.482 401.04 483.666 401.255 482.918 401.686C482.17 402.117 481.558 402.751 481.082 403.59C480.629 404.406 480.402 405.381 480.402 406.514C480.402 407.647 480.629 408.645 481.082 409.506C481.558 410.345 482.17 410.991 482.918 411.444C483.689 411.897 484.505 412.124 485.366 412.124C486.25 412.124 487.077 411.909 487.848 411.478C488.619 411.025 489.231 410.39 489.684 409.574C490.137 408.735 490.364 407.738 490.364 406.582Z" fill="white"/>
<path d="M412.443 476.221V477.764C412.443 485.128 406.478 491.1 399.118 491.1H325.415C318.057 491.1 312.092 485.13 312.092 477.764V476.221H412.443Z" fill="#F1F1F1"/>
<path d="M656.999 398.356L639.307 407.572L655.173 438.078L672.866 428.862L656.999 398.356Z" fill="#514E92"/>
<g opacity="0.33">
<path d="M583.826 265.281L606.85 407.576C599.413 407.03 592.11 405.363 585.198 402.655L564.828 276.761C568.826 273.44 573.236 270.486 578.033 267.988C579.94 266.995 581.871 266.093 583.826 265.281Z" fill="white"/>
</g>
<path d="M692.356 291.942C669.368 247.745 615.013 230.5 570.803 253.316C570.695 253.368 570.593 253.422 570.487 253.479C526.22 276.534 509.014 331.139 532.054 375.441C555.094 419.742 609.654 436.965 653.919 413.907C654.027 413.85 654.129 413.796 654.233 413.738C698.269 390.589 715.344 336.139 692.356 291.942ZM661.755 388.735C657.201 392.838 652.061 396.433 646.376 399.392C640.768 402.313 634.963 404.443 629.082 405.825C621.709 407.557 614.215 408.115 606.849 407.573C599.412 407.029 592.109 405.362 585.2 402.654C569.113 396.356 555.151 384.422 546.55 367.888C530.178 336.403 538.625 298.561 564.831 276.762C568.828 273.439 573.235 270.489 578.036 267.99C579.94 266.998 581.872 266.093 583.828 265.282C590.88 262.338 598.174 260.576 605.475 259.912C617.99 258.77 630.52 260.87 641.871 265.831C656.826 272.37 669.734 283.88 677.858 299.497C693.769 330.089 686.244 366.685 661.755 388.735Z" fill="#FEAF06"/>
<path opacity="0.13" d="M644.367 394.329C644.263 394.387 644.157 394.439 644.055 394.492C610.467 411.99 569.061 398.92 551.58 365.309C534.099 331.692 547.156 290.258 580.747 272.764C580.849 272.711 580.956 272.653 581.059 272.605C614.592 255.349 655.793 268.439 673.219 301.95C690.646 335.457 677.723 376.742 644.367 394.329Z" fill="white"/>
<path d="M679.863 422.674L727.797 514.843C732.625 524.126 729.279 535.684 720.104 540.683C720.075 540.701 720.048 540.715 720.018 540.731C710.659 545.768 698.909 542.128 694.018 532.721L645.969 440.329C643.734 436.034 645.402 430.745 649.694 428.509L668.053 418.946C672.343 416.71 677.63 418.379 679.863 422.674Z" fill="#FEAF06"/>
<path d="M551.387 365.368C568.869 398.983 610.272 412.05 643.86 394.556C643.964 394.502 644.069 394.446 644.172 394.389L654.235 413.737C654.131 413.794 654.027 413.848 653.923 413.904C609.655 436.962 555.094 419.74 532.054 375.439C509.013 331.138 526.221 276.534 570.489 253.476C570.593 253.422 570.698 253.367 570.804 253.314L580.867 272.663C580.761 272.715 580.657 272.768 580.551 272.824C546.962 290.32 533.904 331.755 551.387 365.368Z" fill="#FEC956"/>
<path d="M649.693 428.507L659.193 423.559L720.105 540.679C720.076 540.697 720.049 540.712 720.019 540.728C710.661 545.764 698.91 542.124 694.019 532.717L645.97 440.326C643.733 436.033 645.401 430.741 649.693 428.507Z" fill="#FEC956"/>
<path d="M677.861 299.497C669.736 283.881 656.829 272.369 641.874 265.832C630.523 260.873 617.992 258.771 605.478 259.913C598.177 260.577 590.883 262.341 583.831 265.283C581.876 266.094 579.945 266.999 578.038 267.991C573.237 270.49 568.831 273.442 564.833 276.763C538.628 298.562 530.181 336.404 546.553 367.889C555.156 384.425 569.118 396.356 585.203 402.654C592.111 405.363 599.414 407.03 606.852 407.574C614.215 408.116 621.71 407.56 629.085 405.826C634.965 404.444 640.771 402.315 646.379 399.393C652.064 396.432 657.204 392.839 661.757 388.736C686.247 366.688 693.772 330.092 677.861 299.497ZM644.175 394.395C644.071 394.452 643.965 394.504 643.863 394.558C610.275 412.056 568.868 398.986 551.388 365.374C533.907 331.757 546.964 290.324 580.554 272.83C580.657 272.776 580.764 272.719 580.866 272.67C614.4 255.415 655.601 268.505 673.027 302.016C690.454 335.523 677.531 376.807 644.175 394.395Z" fill="url(#paint0_linear_2545_3072)"/>
<path d="M162.272 263.113C159.103 257.614 154.976 252.276 153.886 246.547C150.521 228.865 160.661 203.937 140.474 192.769C130.849 187.446 118.184 188.221 108.783 193.656C101.329 197.965 96.2502 205.324 95.3714 213.953C94.7617 219.939 94.7868 234.843 95.3266 240.834C96.2431 251.043 94.0067 251.171 88.7268 259.892C85.0915 265.895 81.085 273.204 84.0172 280.367C85.5883 284.204 89.2182 287.123 93.3018 287.83C96.973 288.465 101.162 287.525 104.149 289.756C106.894 291.807 107.726 295.583 110.533 297.635C114.378 300.446 121.457 301.248 126.084 301.162C131.434 301.063 136.925 299.186 140.517 295.216C146.31 288.813 147.381 289.278 155.747 287.83C159.829 287.123 163.461 284.204 165.032 280.367C167.591 274.11 165.396 268.536 162.272 263.113Z" fill="black"/>
<path d="M116.016 444.399L115.208 472.502C115.197 472.908 115.183 473.328 115.168 473.768C115.089 475.629 114.901 477.779 114.176 480.017C113.056 483.476 108.249 489.862 105.568 492.303C103.229 494.431 99.1116 496.23 95.8745 494.95C95.2629 494.708 94.6854 494.358 94.151 493.879C89.6638 489.833 95.0889 483.476 98.3906 478.842C99.2945 477.576 100.035 476.44 100.374 475.512C101.307 472.973 101.535 443.981 101.707 443.986L116.016 444.399Z" fill="#F0C9A1"/>
<path d="M115.168 473.768C115.089 475.629 114.901 477.779 114.176 480.017C113.056 483.476 108.249 489.862 105.568 492.303C103.229 494.431 99.1116 496.23 95.8745 494.95C95.2629 494.708 94.6854 494.358 94.151 493.878C89.6638 489.833 95.0889 483.476 98.3906 478.842C98.1934 480.189 98.0015 481.663 98.3458 482.6C99.1851 484.858 102.146 485.726 104.433 484.971C106.714 484.215 108.407 482.289 109.763 480.297C111.12 478.312 112.29 476.153 114.067 474.527C114.393 474.225 114.765 473.934 115.168 473.768Z" fill="#557CFF"/>
<path d="M138.842 444.399L139.651 472.502C139.66 472.908 139.676 473.328 139.69 473.768C139.769 475.629 139.957 477.779 140.682 480.017C141.803 483.476 146.611 489.862 149.29 492.303C151.629 494.431 155.747 496.23 158.984 494.95C159.595 494.708 160.173 494.358 160.707 493.879C165.194 489.833 159.769 483.476 156.468 478.842C155.564 477.576 154.825 476.44 154.484 475.512C153.552 472.973 153.324 443.981 153.152 443.986L138.842 444.399Z" fill="#F0C9A1"/>
<path d="M139.693 473.768C139.772 475.629 139.961 477.779 140.685 480.017C141.806 483.476 146.614 489.862 149.294 492.303C151.632 494.431 155.75 496.23 158.987 494.95C159.599 494.708 160.176 494.358 160.711 493.878C165.198 489.833 159.773 483.476 156.471 478.842C156.668 480.189 156.86 481.663 156.516 482.6C155.676 484.858 152.715 485.726 150.431 484.971C148.151 484.215 146.456 482.289 145.099 480.297C143.741 478.312 142.572 476.153 140.795 474.527C140.468 474.225 140.099 473.934 139.693 473.768Z" fill="#557CFF"/>
<path d="M155.483 327.164C139.796 327.812 112.731 328.715 109.365 328.74C104.058 328.779 99.8829 328.686 96.5812 328.853C96.4233 331.131 96.2745 333.408 96.1274 335.68C95.654 342.971 86.3191 462.689 88.0624 464.907C89.646 466.912 108.073 467.461 119.919 467.194C120.168 461.206 122.726 375.782 123.488 348.894H128.314C130.439 382.789 131.607 432.396 133.75 466.004C145.527 465.164 164.305 464.265 164.364 462.981C165.198 444.945 156.97 368.357 155.483 327.164Z" fill="#7E7E7E"/>
<path d="M155.488 327.16C139.8 327.808 112.736 328.711 109.37 328.736C104.063 328.776 99.8876 328.682 96.5859 328.849C97.7015 312.769 99.1075 289.236 101.364 273.296C101.73 270.717 102.237 268.143 103.006 265.684C104.561 260.686 107.173 256.15 111.762 252.97C117.947 248.682 126.28 247.19 133.511 249.576C140.213 251.783 145.294 257.425 148.26 263.723C151.226 270.026 152.342 276.992 153.255 283.878C154.171 290.774 154.915 311.294 155.488 327.16Z" fill="white"/>
<path d="M225.559 268.116C226.963 267.56 228.55 266.659 228.649 265.151C228.712 264.209 228.116 263.315 227.336 262.784C226.556 262.252 225.613 262.021 224.685 261.847C221.161 261.185 217.513 261.194 213.993 261.874C214.072 260.763 214.142 259.593 213.661 258.586C213.181 257.581 211.945 256.845 210.932 257.308C209.863 257.798 209.665 259.185 209.221 260.273C208.537 261.944 207.056 263.125 205.745 264.365C204.434 265.605 203.171 267.147 203.166 268.953C203.161 270.487 204.093 271.892 205.263 272.885C208.788 275.884 210.856 273.488 214.492 272.022C218.123 270.557 221.92 269.557 225.559 268.116Z" fill="#F0C9A1"/>
<path d="M214.26 272.381C212.71 270.42 210.8 268.761 208.747 267.347C207.034 266.171 205.228 265.154 203.377 264.21C196.648 272.617 188.876 280.273 180.247 286.988C177.991 288.741 175.154 290.746 173.101 290.653C170.292 290.529 167.241 286.489 164.897 282.976C159.802 275.345 155.24 266.1 149.393 258.841C148.289 257.47 134.924 246.136 134.386 251.305C133.95 255.503 136.018 282.849 136.823 295.263C138.434 320.093 136.722 289.693 138.333 314.522C138.563 318.058 143.545 355.969 144.334 356.009C152.2 356.403 160.098 356.28 167.943 355.633C161.816 317.452 159.076 333.911 156.908 295.389C160.342 299.411 165.376 303.572 172.435 303.882C172.711 303.897 172.988 303.902 173.26 303.902C179.726 303.902 184.964 300.528 189.258 297.184C198.612 289.902 207.052 281.623 214.378 272.529C214.335 272.475 214.296 272.426 214.26 272.381Z" fill="#7D9BFF"/>
<path d="M25.3798 268.608C23.9755 268.052 22.3883 267.151 22.2897 265.643C22.2269 264.701 22.8224 263.807 23.6025 263.276C24.3826 262.745 25.326 262.513 26.2532 262.339C29.7773 261.677 33.4251 261.686 36.9456 262.366C36.8667 261.255 36.7968 260.085 37.2774 259.078C37.758 258.073 38.9937 257.337 40.007 257.8C41.0759 258.29 41.2732 259.677 41.7179 260.765C42.4012 262.436 43.8808 263.617 45.1936 264.857C46.5046 266.097 47.7672 267.639 47.7726 269.445C47.7779 270.979 46.8454 272.385 45.676 273.377C42.1502 276.376 40.0805 273.98 36.4471 272.514C32.8171 271.049 29.0187 270.05 25.3798 268.608Z" fill="#F0C9A1"/>
<path d="M116.557 251.797C116.138 247.775 108.55 253.928 107.491 254.766C103.044 258.287 100.691 261.54 97.6742 266.057L86.0438 283.47C83.6997 286.983 80.6491 291.023 77.8406 291.147C75.7871 291.24 72.9481 289.235 70.6938 287.482C62.0656 280.769 54.2911 273.113 47.5639 264.704C45.7131 265.648 43.9071 266.666 42.1944 267.841C40.1409 269.254 38.2309 270.914 36.6814 272.876C36.6473 272.921 36.6078 272.969 36.5684 273.025C43.8927 282.119 52.3344 290.398 61.689 297.68C65.9842 301.024 71.221 304.398 77.6864 304.398C77.9572 304.398 78.2351 304.393 78.5113 304.378C85.5685 304.068 90.6027 299.907 94.0389 295.885C91.8706 334.407 89.1302 317.95 83.0039 356.13C90.8484 356.774 99.1189 357.256 106.985 356.861C107.772 356.822 112.804 319.157 113.035 315.621C114.645 290.792 112.513 320.589 114.123 295.76C114.925 283.341 116.993 255.997 116.557 251.797Z" fill="#7D9BFF"/>
<path d="M132.913 231.326V252.816C132.913 257.044 129.487 260.472 125.262 260.472C121.037 260.472 117.611 257.044 117.611 252.816V231.326H132.913Z" fill="#F0C9A1"/>
<path d="M132.913 235.394V250.219C129.656 251.207 126.308 251.919 122.918 251.849C121.171 251.815 119.34 251.562 117.611 251.034V237.835C118.479 237.421 119.394 237.089 120.301 236.812C124.367 235.572 128.668 235.087 132.913 235.394Z" fill="#E9B588"/>
<path d="M104.627 224.161C104.627 237.938 111.935 249.107 123.384 249.107C134.834 249.107 144.117 237.938 144.117 224.161C144.117 210.384 134.836 199.215 123.384 199.215C111.933 199.215 104.627 210.384 104.627 224.161Z" fill="#F0C9A1"/>
<path d="M138.852 226.492C137.903 230.473 139.713 234.316 142.894 235.075C146.076 235.834 149.426 233.225 150.375 229.244C151.323 225.263 149.514 221.42 146.332 220.661C143.149 219.9 139.801 222.512 138.852 226.492Z" fill="#F0C9A1"/>
<path d="M97.8812 229.244C96.9325 225.263 98.742 221.42 101.924 220.661C105.105 219.9 108.453 222.512 109.404 226.492C110.353 230.473 108.543 234.316 105.362 235.075C102.18 235.834 98.8299 233.225 97.8812 229.244Z" fill="#F0C9A1"/>
<path d="M117.984 241.94C120.478 240.28 126.168 237.956 128.984 241.94" stroke="black" stroke-width="1.10035" stroke-linecap="round"/>
<circle cx="114.684" cy="226.546" r="1.6499" fill="black" stroke="black" stroke-width="1.10035"/>
<circle cx="132.284" cy="226.546" r="1.6499" fill="black" stroke="black" stroke-width="1.10035"/>
<path d="M108.416 198.749C104.237 201.703 100.624 205.984 99.1979 211.26C98.7747 212.825 98.5612 214.566 99.1656 216.056C99.9852 218.073 102.148 219.08 104.135 218.969C106.122 218.858 107.971 217.844 109.707 216.763C113.359 214.491 116.817 211.833 120.018 208.834C118.931 211.005 117.848 213.743 119.062 215.828C120.572 218.42 124.146 217.652 126.632 216.277C129.182 214.87 131.591 213.145 133.797 211.144C133.348 213.579 135.748 215.552 137.958 215.909C140.818 216.37 143.885 215.22 145.798 212.807C147.71 210.393 148.34 206.761 147.233 203.788C146.378 201.491 144.634 199.752 142.811 198.312C131.7 189.547 119.485 190.92 108.416 198.749Z" fill="black"/>
<path d="M132.404 218.758C128.485 218.758 125.289 221.762 124.902 225.584H121.97C121.584 221.761 118.386 218.758 114.468 218.758C110.289 218.758 106.889 222.161 106.889 226.343C106.889 230.525 110.289 233.928 114.468 233.928C118.386 233.928 121.582 230.923 121.97 227.102H124.902C125.289 230.923 128.485 233.928 132.404 233.928C136.583 233.928 139.983 230.525 139.983 226.343C139.983 222.159 136.583 218.758 132.404 218.758ZM114.47 232.409C111.127 232.409 108.406 229.688 108.406 226.341C108.406 222.995 111.127 220.273 114.47 220.273C117.812 220.273 120.531 222.995 120.531 226.341C120.531 229.688 117.812 232.409 114.47 232.409ZM132.404 232.409C129.061 232.409 126.34 229.688 126.34 226.341C126.34 222.995 129.061 220.273 132.404 220.273C135.747 220.273 138.466 222.995 138.466 226.341C138.467 229.688 135.747 232.409 132.404 232.409Z" fill="white"/>
<defs>
<linearGradient id="paint0_linear_2545_3072" x1="612.207" y1="259.609" x2="612.207" y2="407.773" gradientUnits="userSpaceOnUse">
<stop stop-color="white"/>
<stop offset="1" stop-color="#FED57E"/>
</linearGradient>
</defs>
</svg>
